<svg xmlns="http://www.w3.org/2000/svg" width="42" height="48" viewBox="0 0 42 48"><defs><style>.a{fill:#cbdff8;}.b{fill:#006ccb;}</style></defs><g transform="translate(0.046 -0.106)"><rect class="a" width="42" height="48" transform="translate(-0.046 0.106)"/><path class="b" d="M17.4,7.457l1.243-2.486,2.486-1.243L18.643,2.486,17.4,0,16.158,2.486,13.672,3.729l2.486,1.243ZM6.214,12.429,8.285,8.286l4.144-2.072L8.285,4.143,6.214,0,4.144,4.143,0,6.214,4.144,8.286Zm27.344,9.943-2.071,4.143-4.144,2.072,4.144,2.072L33.558,34.8l2.071-4.143,4.144-2.072-4.144-2.072ZM39.044,7.32,32.453.729a2.484,2.484,0,0,0-3.515,0L.729,28.938a2.485,2.485,0,0,0,0,3.515L7.32,39.044a2.486,2.486,0,0,0,3.515,0l28.209-28.21a2.484,2.484,0,0,0,0-3.514ZM27.922,15.8,23.968,11.85l6.727-6.727L34.65,9.078,27.922,15.8Z" transform="translate(0.996 4.334)"/></g></svg>