<svg xmlns="http://www.w3.org/2000/svg" width="52.5" height="52.5" viewBox="0 0 52.5 52.5"><defs><style>.a{fill:#aeaeae;}</style></defs><path class="a" d="M46.875,3.75H5.625A5.626,5.626,0,0,0,0,9.375v41.25A5.626,5.626,0,0,0,5.625,56.25h41.25A5.626,5.626,0,0,0,52.5,50.625V9.375A5.626,5.626,0,0,0,46.875,3.75Zm-5.73,18.609c.023.328.023.668.023,1,0,10.16-7.734,21.867-21.867,21.867A21.766,21.766,0,0,1,7.5,41.777a16.192,16.192,0,0,0,1.852.094,15.409,15.409,0,0,0,9.539-3.281,7.7,7.7,0,0,1-7.184-5.332,8.283,8.283,0,0,0,3.469-.141A7.686,7.686,0,0,1,9.023,25.57v-.094a7.681,7.681,0,0,0,3.469.973,7.67,7.67,0,0,1-3.422-6.4,7.59,7.59,0,0,1,1.043-3.879,21.823,21.823,0,0,0,15.844,8.039,7.7,7.7,0,0,1,13.113-7.02,15.061,15.061,0,0,0,4.875-1.852,7.666,7.666,0,0,1-3.375,4.23,15.3,15.3,0,0,0,4.43-1.2A16.178,16.178,0,0,1,41.145,22.359Z" transform="translate(0 -3.75)"/></svg>