<svg xmlns="http://www.w3.org/2000/svg" width="9.802" height="9.802" viewBox="0 0 9.802 9.802">
  <path id="Icon_material-copyright" data-name="Icon material-copyright" d="M8.96,9.342a1.253,1.253,0,0,1,.147-.426.857.857,0,0,1,.289-.3A.87.87,0,0,1,9.842,8.5a.888.888,0,0,1,.309.064.79.79,0,0,1,.255.176.944.944,0,0,1,.167.26.858.858,0,0,1,.069.314h.877a1.754,1.754,0,0,0-.137-.632,1.471,1.471,0,0,0-.343-.5,1.6,1.6,0,0,0-.529-.323,1.893,1.893,0,0,0-.681-.113,1.915,1.915,0,0,0-.833.167,1.685,1.685,0,0,0-.588.451,1.842,1.842,0,0,0-.348.667,2.87,2.87,0,0,0-.118.8V9.97a2.87,2.87,0,0,0,.113.8,1.782,1.782,0,0,0,.348.662,1.673,1.673,0,0,0,.588.446,1.989,1.989,0,0,0,.833.167,1.869,1.869,0,0,0,.647-.113A1.672,1.672,0,0,0,11,11.626a1.5,1.5,0,0,0,.363-.461,1.319,1.319,0,0,0,.147-.564h-.877a.7.7,0,0,1-.074.284.721.721,0,0,1-.176.225.772.772,0,0,1-.255.147.973.973,0,0,1-.294.049A.832.832,0,0,1,9.4,11.2a.857.857,0,0,1-.289-.3,1.281,1.281,0,0,1-.147-.431,3.3,3.3,0,0,1-.039-.49V9.837A3.265,3.265,0,0,1,8.96,9.342ZM9.9,5a4.9,4.9,0,1,0,4.9,4.9A4.9,4.9,0,0,0,9.9,5Zm0,8.822A3.921,3.921,0,1,1,13.822,9.9,3.926,3.926,0,0,1,9.9,13.822Z" transform="translate(-5 -5)" fill="#fff" opacity="0.23"/>
</svg>
