<svg xmlns="http://www.w3.org/2000/svg" width="42" height="48" viewBox="0 0 42 48"><defs><style>.a{fill:#cbdff8;}.b{fill:#006ccb;}</style></defs><g transform="translate(-0.251 -0.14)"><rect class="a" width="42" height="48" transform="translate(0.251 0.14)"/><path class="b" d="M12.247,24.495h.919V25.72a1.224,1.224,0,0,0,1.225,1.225h3.062a1.224,1.224,0,0,0,1.225-1.225V24.495H19.6a2.45,2.45,0,0,0,2.449-2.449V4.9A2.45,2.45,0,0,0,19.6,2.449V1.225A1.224,1.224,0,0,0,18.371,0h-4.9a1.224,1.224,0,0,0-1.225,1.225V2.449A2.45,2.45,0,0,0,9.8,4.9V22.045A2.45,2.45,0,0,0,12.247,24.495Zm23.27,9.8h-.1A14.672,14.672,0,0,0,24.495,9.8v4.9a9.8,9.8,0,0,1,0,19.6H3.674A3.674,3.674,0,0,0,0,37.967a1.224,1.224,0,0,0,1.225,1.225H37.967a1.224,1.224,0,0,0,1.225-1.225A3.674,3.674,0,0,0,35.517,34.293ZM7.961,31.843H23.882a.612.612,0,0,0,.612-.612V30.006a.612.612,0,0,0-.612-.612H7.961a.612.612,0,0,0-.612.612v1.225A.612.612,0,0,0,7.961,31.843Z" transform="translate(0.996 4.333)"/></g></svg>