<svg xmlns="http://www.w3.org/2000/svg" width="42" height="48" viewBox="0 0 42 48"><defs><style>.a{fill:#cbdff8;}.b{fill:#006ccb;}</style></defs><g transform="translate(0.289 -0.14)"><rect class="a" width="42" height="48" transform="translate(-0.289 0.14)"/><path class="b" d="M16.666,20.061a2.16,2.16,0,0,1-4.321,0,6.173,6.173,0,0,1,12.345,0,2.16,2.16,0,1,1-4.321,0,1.852,1.852,0,0,0-3.7,0Zm1.852-13.58a13.6,13.6,0,0,0-13.58,13.58,2.16,2.16,0,0,0,4.321,0,9.259,9.259,0,0,1,18.518,0c0,5.8-5.479,5.425-5.555,11.081v.029a4.017,4.017,0,0,1-4.012,4.012,2.16,2.16,0,1,0,0,4.321,8.343,8.343,0,0,0,8.333-8.315c.046-2.656,5.555-3.722,5.555-11.128a13.6,13.6,0,0,0-13.58-13.58ZM12.345,24.69a2.469,2.469,0,1,0,2.469,2.469A2.469,2.469,0,0,0,12.345,24.69ZM2.469,34.566a2.469,2.469,0,1,0,2.469,2.469A2.469,2.469,0,0,0,2.469,34.566ZM39.5,20.061c0-.117,0-.233,0-.35A21.093,21.093,0,0,0,25.307.117a2.16,2.16,0,0,0-1.4,4.089A16.761,16.761,0,0,1,35.181,19.787V19.8c0,.086,0,.173,0,.259a2.16,2.16,0,0,0,4.321,0ZM11.8,33.874,5.63,27.7,3.011,30.32l6.173,6.173Z" transform="translate(1.816 3.333)"/></g></svg>