<svg xmlns="http://www.w3.org/2000/svg" width="38" height="47.426" viewBox="0 0 38 47.426"><defs><style>.a{fill:#cbf8ef;}.b{fill:#1bbc9b;}</style></defs><g transform="translate(0.065 0.361)"><rect class="a" width="38" height="47" transform="translate(-0.065 -0.361)"/><path class="b" d="M1.836,25.919l3.925,1.745a3.091,3.091,0,0,0,2.4.045L9.4,27.214a3.091,3.091,0,0,0,1.812-1.98l.891-2.961a2.319,2.319,0,0,1,1.212-1.512l2.137-1.07v4.862A4.637,4.637,0,0,1,12.887,28.7L7.36,31.469a7.729,7.729,0,0,0-4.269,6.913v1.4h30.9V21.236A18.547,18.547,0,0,0,15.451,2.688H1.159A1.159,1.159,0,0,0,0,3.847a1.633,1.633,0,0,0,.173.732L1.546,7.325l-.869.869A2.319,2.319,0,0,0,0,9.836V23.092a3.091,3.091,0,0,0,1.836,2.827ZM5.024,11.962a1.932,1.932,0,1,1-1.932,1.932,1.932,1.932,0,0,1,1.932-1.932ZM35.551,42.876H1.546A1.546,1.546,0,0,0,0,44.422v3.091a1.546,1.546,0,0,0,1.546,1.546H35.551A1.546,1.546,0,0,0,37.1,47.513V44.422A1.546,1.546,0,0,0,35.551,42.876Z" transform="translate(0 -1.993)"/></g></svg>