<svg xmlns="http://www.w3.org/2000/svg" width="52.5" height="52.5" viewBox="0 0 52.5 52.5"><defs><style>.a{fill:#3f7ffe;}</style></defs><path class="a" d="M48.75,3.75H3.738A3.766,3.766,0,0,0,0,7.535v44.93A3.766,3.766,0,0,0,3.738,56.25H48.75a3.776,3.776,0,0,0,3.75-3.785V7.535A3.776,3.776,0,0,0,48.75,3.75Zm-32.883,45H8.086V23.7h7.793V48.75ZM11.977,20.273a4.512,4.512,0,1,1,4.512-4.512A4.514,4.514,0,0,1,11.977,20.273ZM45.035,48.75H37.254V36.563c0-2.906-.059-6.645-4.043-6.645-4.055,0-4.676,3.164-4.676,6.434v12.4H20.754V23.7h7.465v3.422h.105A8.2,8.2,0,0,1,35.7,23.074c7.875,0,9.34,5.191,9.34,11.941Z" transform="translate(0 -3.75)"/></svg>