<svg xmlns="http://www.w3.org/2000/svg" width="42" height="48" viewBox="0 0 42 48"><defs><style>.a{fill:#cbdff8;}.b{fill:#006ccb;}</style></defs><g transform="translate(-0.316 -0.106)"><rect class="a" width="42" height="48" transform="translate(0.316 0.106)"/><path class="b" d="M37.255,17.5a.335.335,0,0,1,.109-.613l.445-.092h0a5.013,5.013,0,0,0,2.15-.454.945.945,0,0,0,.353-.689,1.593,1.593,0,0,0-.4-.932,4.772,4.772,0,0,0-1.99-.521c-.647-.084-.731,0-.9.1s-.235.8-.26,1.26a.232.232,0,0,1-.176.21l-.034.008a.571.571,0,0,1-.655-.361,27.856,27.856,0,0,0-1.629-4.065,4.825,4.825,0,0,0-2.394-2.436,19.478,19.478,0,0,0-3.611-.512A64.354,64.354,0,0,0,21.5,8.063a64.593,64.593,0,0,0-6.769.344,17.784,17.784,0,0,0-3.611.512,4.825,4.825,0,0,0-2.394,2.436,29.789,29.789,0,0,0-1.713,4.308.289.289,0,0,1-.319.176.6.6,0,0,1-.47-.546c-.034-.42-.1-.9-.244-.983-.168-.109-.252-.185-.9-.1a4.809,4.809,0,0,0-1.99.521,1.631,1.631,0,0,0-.395.932.96.96,0,0,0,.353.7,4.864,4.864,0,0,0,2.15.454h0l.445.092a.335.335,0,0,1,.109.613,13.212,13.212,0,0,0-2.713,2.15A41.377,41.377,0,0,0,2.7,24.885a67.843,67.843,0,0,0,.487,7.76l.445.076c0,.1.059,1.1.168,1.78a.484.484,0,0,0,.521.462H9.751c.16,0,.428-.134.428-.311l.084-1.428c.6.008.269.008.915,0,2.083-.025,1.31-.63,2.276-.613.949.017,4.619.252,8.063.252s7.113-.235,8.063-.252c.966-.017.193.6,2.276.613.647.008.395.008,1,0l.084,1.428c0,.176.269.311.428.311H38.7a.484.484,0,0,0,.521-.462c.109-.68.16-1.671.168-1.78l.454-.076a67.652,67.652,0,0,0,.487-7.76,41.206,41.206,0,0,0-.344-5.215A13.276,13.276,0,0,0,37.255,17.5ZM10.364,13a7.965,7.965,0,0,1,.84-1.445,2.688,2.688,0,0,1,1.73-1.05,54.986,54.986,0,0,1,8.558-.613,54.986,54.986,0,0,1,8.558.613,2.688,2.688,0,0,1,1.73,1.05A7.57,7.57,0,0,1,32.628,13a11.254,11.254,0,0,1,.789,2.788c-.084.21.084.311-1.025.218s-7.609-.176-10.893-.176-9.8.092-10.893.176c-1.109.092-.949-.017-1.025-.218A11.636,11.636,0,0,1,10.364,13Zm.705,9.742c-.831,0-2.5-.084-2.9-.1s-.739.319-.941.319-2.142-.3-2.352-1.251a5.027,5.027,0,0,1-.05-1.638.348.348,0,0,1,.319-.294,13.859,13.859,0,0,1,4.644.663,9.8,9.8,0,0,1,3.1,1.495.339.339,0,0,1-.143.6A11.011,11.011,0,0,1,11.069,22.743Zm17.67,6.131c-1.067.143-4.913.185-7.239.185s-6.173-.042-7.239-.185c-1.1-.143-2.5-1.453-1.545-2.536.638-.714,1.747-1.142,4.107-1.453a38.8,38.8,0,0,1,4.67-.361,38.8,38.8,0,0,1,4.67.361c2.36.311,3.628.806,4.107,1.453C31.141,27.5,29.84,28.723,28.739,28.874Zm9.381-7.155c-.21.941-2.15,1.251-2.352,1.251s-.546-.328-.941-.319-2.066.1-2.9.1a11.266,11.266,0,0,1-1.68-.2.339.339,0,0,1-.143-.6,9.8,9.8,0,0,1,3.1-1.495,13.834,13.834,0,0,1,4.644-.663.327.327,0,0,1,.319.294A5.027,5.027,0,0,1,38.121,21.718Z" transform="translate(-0.416 2.321)"/></g></svg>