<svg xmlns="http://www.w3.org/2000/svg" width="42.32" height="48" viewBox="0 0 42.32 48"><defs><style>.a{fill:#cbdff8;}.b{fill:#006ccb;}</style></defs><g transform="translate(0 -0.106)"><rect class="a" width="42" height="48" transform="translate(0.32 0.106)"/><path class="b" d="M36.679,9.188a5.249,5.249,0,0,0-2.543,9.8v9.238c0,4.7-4.118,8.532-9.188,8.532-4.922,0-8.959-3.618-9.18-8.138A13.161,13.161,0,0,0,26.252,15.751V3a1.968,1.968,0,0,0-1.583-1.928L19.509.041A1.964,1.964,0,0,0,17.2,1.583l-.263,1.288a1.964,1.964,0,0,0,1.542,2.313l2.519.5v9.959a7.876,7.876,0,1,1-15.751.1V5.694l2.519-.5A1.964,1.964,0,0,0,9.3,2.88L9.049,1.592A1.964,1.964,0,0,0,6.735.049L1.583,1.067A1.977,1.977,0,0,0,0,3V15.751A13.146,13.146,0,0,0,10.509,28.615C10.722,36.031,17.113,42,24.94,42c7.958,0,14.439-6.186,14.439-13.782V18.984a5.249,5.249,0,0,0-2.7-9.8Zm.074,6.563a1.313,1.313,0,1,1,1.313-1.313A1.316,1.316,0,0,1,36.753,15.751Z" transform="translate(0 2.332)"/></g></svg>