<svg xmlns="http://www.w3.org/2000/svg" width="644.449" height="120" viewBox="0 0 644.449 120"><defs><style>.a{opacity:0.2;}.b,.d,.e{fill:#252525;}.b,.d{font-size:41px;}.b{font-family:SegoeUI-BoldItalic, Segoe UI;font-weight:700;}.b,.e{font-style:italic;}.c{fill:none;stroke:#000;stroke-linecap:round;stroke-linejoin:round;stroke-width:3.583px;}.d{font-family:SegoeUI-Semibold, Segoe UI;}.d,.e{font-weight:600;}.e{font-size:35px;font-family:SegoeUI-SemiboldItalic, Segoe UI;}</style></defs><g class="a" transform="translate(-137.551 -767)"><path d="M31.152,26.828c-.02-3.578,1.6-6.279,4.875-8.268a10.476,10.476,0,0,0-8.258-4.348c-3.461-.273-7.244,2.018-8.629,2.018-1.462,0-4.816-1.921-7.449-1.921C6.25,14.4.469,18.648.469,27.3a24.3,24.3,0,0,0,1.4,7.917C3.121,38.791,7.625,47.566,12.325,47.42c2.457-.058,4.192-1.745,7.39-1.745,3.1,0,4.709,1.745,7.449,1.745,4.738-.068,8.814-8.044,10-11.632C30.81,32.795,31.152,27.013,31.152,26.828ZM25.633,10.819a9.183,9.183,0,0,0,2.34-7.069,10.338,10.338,0,0,0-6.62,3.4,9.327,9.327,0,0,0-2.5,7.01C21.4,14.358,23.722,13.051,25.633,10.819Z" transform="translate(137.456 766.248)"/><path d="M42.513,18.093c0-9.477-6.212-12.256-6.212-12.256-6.1-2.8-22.284-2.769-28.321,0,0,0-6.213,2.779-6.213,12.256,0,11.281-.643,25.291,10.3,28.187A32.239,32.239,0,0,0,22.14,47.391a19.967,19.967,0,0,0,7.734-1.765l-.166-3.6a25.5,25.5,0,0,1-7.519.985c-3.94-.137-8.092-.429-8.739-5.265a10,10,0,0,1-.088-1.355,46.5,46.5,0,0,0,17.428.653c5.472-.653,10.237-4.027,10.845-7.108A71.673,71.673,0,0,0,42.513,18.093ZM35.188,30.3H30.642V19.165c0-4.846-6.24-5.031-6.24.673v6.094H19.885V19.837c0-5.7-6.24-5.518-6.24-.673V30.3H9.089c0-11.9-.507-14.42,1.795-17.062,2.525-2.818,7.782-3,10.123.595l1.131,1.9,1.131-1.9c2.351-3.617,7.617-3.393,10.123-.595C35.7,15.9,35.187,18.4,35.187,30.3Z" transform="translate(224.704 769.241)"/><path d="M39.721,3.75H3.958A3.961,3.961,0,0,0,0,7.708V43.471a3.961,3.961,0,0,0,3.958,3.958H39.721a3.961,3.961,0,0,0,3.958-3.958V7.708A3.961,3.961,0,0,0,39.721,3.75ZM17.17,14.826a2.618,2.618,0,1,1-5.236.039C11.944,11.433,17.111,11.4,17.17,14.826ZM32.448,37.387c-6.4,0-3.325-7.215-2.437-10.393,1.375-4.524-4.407-5.752-5.84.068L21.654,37.134h-4.4l.79-3.169c-3.071,5.05-9.223,4.329-9.223-.419.01-1.394.088-1.365,2.242-10.15h-3.1l.946-3.471H16.36C13.084,32.961,13.182,32.3,13.153,33.4c0,2.038,3.988,1.316,5.6-2.262l1.93-7.741H17.53l.946-3.471h6.708l-.868,3.949c3.949-7.361,12.47-4.66,9.925,3.7-1.384,4.982-1.423,4.943-1.453,5.733,0,1.511,1.706,2.2,3.1-1.648l1.745.653C36.611,35.9,34.768,37.387,32.448,37.387Z" transform="translate(137.551 836.132)"/><text class="b" transform="translate(186 877)"><tspan x="0" y="0">Invision</tspan></text><g transform="translate(365.299 840.325)"><path class="c" d="M8.958,9.854a6.271,6.271,0,0,1,6.271-6.271H21.5V16.125H15.229A6.271,6.271,0,0,1,8.958,9.854Z"/><path class="c" d="M21.5,3.583h6.271a6.271,6.271,0,0,1,0,12.542H21.5Z"/><path class="c" d="M21.5,22.4a6.271,6.271,0,1,1,6.271,6.271A6.271,6.271,0,0,1,21.5,22.4Z"/><path class="c" d="M8.958,34.938a6.271,6.271,0,0,1,6.271-6.271H21.5v6.271a6.271,6.271,0,0,1-12.542,0Z"/><path class="c" d="M8.958,22.4a6.271,6.271,0,0,1,6.271-6.271H21.5V28.667H15.229A6.271,6.271,0,0,1,8.958,22.4Z"/></g><text class="d" transform="translate(592 876)"><tspan x="0" y="0">Adobe XD</tspan></text><path d="M35.385.538H7.615A7.608,7.608,0,0,0,0,8.152v26.7a7.608,7.608,0,0,0,7.615,7.615H35.385A7.608,7.608,0,0,0,43,34.848V8.152A7.608,7.608,0,0,0,35.385.538ZM41.19,34.149A6.491,6.491,0,0,1,34.7,40.671H8.3a6.515,6.515,0,0,1-6.5-6.5V8.833a6.515,6.515,0,0,1,6.5-6.5H34.687a6.5,6.5,0,0,1,6.5,6.5ZM17,20.156,22.02,29.8c.09.143.036.287-.108.287H18.795a.352.352,0,0,1-.376-.233c-1.147-2.365-2.311-4.73-3.512-7.274h-.036c-1.075,2.4-2.257,4.927-3.4,7.292a.344.344,0,0,1-.323.2H8.188c-.179,0-.2-.143-.108-.251l4.909-9.353L8.242,11a.145.145,0,0,1,.108-.251h3.082a.282.282,0,0,1,.323.2c1.129,2.365,2.275,4.8,3.35,7.185h.036c1.039-2.365,2.186-4.82,3.3-7.167.09-.143.143-.233.323-.233h2.885c.143,0,.2.108.108.251L17,20.156Zm5.895,2.92c0-4.175,2.777-7.435,7.185-7.435a7.945,7.945,0,0,1,.932.036V10.929a.18.18,0,0,1,.179-.179h2.831c.143,0,.179.054.179.143V27.341a12.761,12.761,0,0,0,.09,1.756c0,.108-.036.143-.143.2a10.672,10.672,0,0,1-4.587,1.039c-3.888.018-6.665-2.383-6.665-7.256Zm8.116-4.587a2.71,2.71,0,0,0-1.039-.179c-2.257,0-3.834,1.738-3.834,4.622,0,3.3,1.612,4.622,3.637,4.622a3.38,3.38,0,0,0,1.236-.2V18.49Z" transform="translate(538 838.463)"/><text class="e" transform="translate(408 873)"><tspan x="0" y="0">figma</tspan></text><text class="e" transform="translate(282 805)"><tspan x="0" y="0">Mcdonald</tspan></text></g></svg>