<svg xmlns="http://www.w3.org/2000/svg" width="1047.724" height="654.122" viewBox="0 0 1047.724 654.122"><defs><style>.a{fill:#dbdbdb;opacity:0.1;}</style></defs><path class="a" d="M774.621,160.1V-73.988q0-29.361-14.525-43.843t-47.412-14.482q-32.339,0-50.427,17.656t-18.088,49V160.1h-233.5V-70.02q0-62.292-58.649-62.292-35.628,0-53.715,18.053T280.219-62.481l18.088,460.5L-40.153,193.546V-245.192l320.372-.992v64.276h2.192q13.155-17.061,41.931-34.717t64.952-28.567Q425.47-256.1,467.675-256.1q59.745,0,100.58,17.061t68.241,53.96q29.6-34.122,78.929-52.572T825.047-256.1q88.247,0,135.385,41.661t47.138,120.22V398.019Z" transform="translate(40.153 256.104)"/></svg>