<svg xmlns="http://www.w3.org/2000/svg" width="1385.118" height="864.766" viewBox="0 0 1385.118 864.766"><defs><style>.a{fill:#dbdbdb;opacity:0.2;}</style></defs><path class="a" d="M1037,294.135V-15.342q0-38.816-19.2-57.961t-62.68-19.146q-42.753,0-66.666,23.342T864.538-4.326V294.135H555.848V-10.1q0-82.352-77.535-82.352-47.1,0-71.013,23.866T383.387-.13L407.3,608.663-40.153,338.345V-241.679l423.54-1.311v84.975h2.9q17.391-22.555,55.434-45.9t85.868-37.767Q575.413-256.1,631.209-256.1q78.984,0,132.969,22.555t90.216,71.337q39.13-45.11,104.346-69.5T1103.664-256.1q116.665,0,178.982,55.076t62.318,158.934V608.663Z" transform="translate(40.153 256.104)"/></svg>