<svg xmlns="http://www.w3.org/2000/svg" width="42.566" height="48" viewBox="0 0 42.566 48"><defs><style>.a{fill:#cbdff8;}.b{fill:#006ccb;}</style></defs><g transform="translate(0 -0.14)"><rect class="a" width="42" height="48" transform="translate(0.566 0.14)"/><path class="b" d="M27.4,18.376A3.129,3.129,0,0,1,24.28,21.5h-5.9V15.252h5.9A3.129,3.129,0,0,1,27.4,18.376ZM42.328,21.5A20.828,20.828,0,1,1,21.5.672,20.825,20.825,0,0,1,42.328,21.5ZM31.57,18.376a7.294,7.294,0,0,0-7.29-7.29H14.21V31.914h4.166V25.666h5.9a7.294,7.294,0,0,0,7.29-7.29Z" transform="translate(-0.672 2.333)"/></g></svg>