<svg xmlns="http://www.w3.org/2000/svg" width="38" height="47" viewBox="0 0 38 47"><defs><style>.a{fill:#f6fbc5;}.b{fill:#c1cf01;}</style></defs><g transform="translate(-0.218 0.361)"><rect class="a" width="38" height="47" transform="translate(0.218 -0.361)"/><g transform="translate(6.499 4.421)"><path class="b" d="M21.344,35.374a8.73,8.73,0,0,1-3.478-.884.63.63,0,0,0-.884.616l.284,4.135a.317.317,0,0,0,.511.227l1.176-.892a.321.321,0,0,1,.462.081l1.662,2.6a.318.318,0,0,0,.535,0l1.662-2.6a.321.321,0,0,1,.462-.081l1.176.892a.317.317,0,0,0,.511-.227l.284-4.135a.628.628,0,0,0-.884-.616A8.768,8.768,0,0,1,21.344,35.374Z" transform="translate(-9.676 -2.489)"/><path class="b" d="M32.57,23.81l-3.892-3.981c0-12.81-7.556-18.486-7.556-18.486s-7.629,5.675-7.629,18.486L9.6,23.81a.674.674,0,0,0-.178.576l1.492,9.064a.621.621,0,0,0,.957.438l5.44-3.681a6.189,6.189,0,0,0,3.819,1.622,5.853,5.853,0,0,0,3.738-1.622l5.44,3.681a.623.623,0,0,0,.957-.438l1.5-9.073A.721.721,0,0,0,32.57,23.81Zm-11.448-8.2a2.6,2.6,0,1,1,2.489-2.594A2.54,2.54,0,0,1,21.122,15.613Z" transform="translate(-9.415 -1.344)"/></g></g></svg>