<svg xmlns="http://www.w3.org/2000/svg" width="47" height="46" viewBox="0 0 47 46"><defs><style>.a{fill:#c5e5fb;}.b{fill:#009daf;}</style></defs><g transform="translate(0.228 -0.478)"><rect class="a" width="47" height="46" transform="translate(-0.228 0.478)"/><path class="b" d="M35.35,38.917H33.728V1.946A1.946,1.946,0,0,0,31.782,0H4.54A1.946,1.946,0,0,0,2.594,1.946V38.917H.973A.973.973,0,0,0,0,39.89v1.622H36.323V39.89A.973.973,0,0,0,35.35,38.917ZM10.378,6.162a.973.973,0,0,1,.973-.973h3.243a.973.973,0,0,1,.973.973V9.4a.973.973,0,0,1-.973.973H11.351a.973.973,0,0,1-.973-.973Zm0,7.783a.973.973,0,0,1,.973-.973h3.243a.973.973,0,0,1,.973.973v3.243a.973.973,0,0,1-.973.973H11.351a.973.973,0,0,1-.973-.973Zm4.216,12H11.351a.973.973,0,0,1-.973-.973V21.729a.973.973,0,0,1,.973-.973h3.243a.973.973,0,0,1,.973.973v3.243A.973.973,0,0,1,14.594,25.945Zm6.162,12.972H15.567v-6.81a.973.973,0,0,1,.973-.973h3.243a.973.973,0,0,1,.973.973Zm5.189-13.945a.973.973,0,0,1-.973.973H21.729a.973.973,0,0,1-.973-.973V21.729a.973.973,0,0,1,.973-.973h3.243a.973.973,0,0,1,.973.973Zm0-7.783a.973.973,0,0,1-.973.973H21.729a.973.973,0,0,1-.973-.973V13.945a.973.973,0,0,1,.973-.973h3.243a.973.973,0,0,1,.973.973Zm0-7.783a.973.973,0,0,1-.973.973H21.729a.973.973,0,0,1-.973-.973V6.162a.973.973,0,0,1,.973-.973h3.243a.973.973,0,0,1,.973.973Z" transform="translate(4.992 2.412)"/></g></svg>