<svg xmlns="http://www.w3.org/2000/svg" width="42" height="48" viewBox="0 0 42 48"><defs><style>.a{fill:#cbdff8;}.b{fill:#006ccb;}</style></defs><g transform="translate(0.046 -0.106)"><rect class="a" width="42" height="48" transform="translate(-0.046 0.106)"/><path class="b" d="M16.125,28.667H27.771a4.479,4.479,0,1,0,0-8.958h-.09a6.24,6.24,0,0,0-11.843-1.756h-.287a5.372,5.372,0,0,0,.573,10.714Zm21.5-23.292H5.375A3.594,3.594,0,0,0,1.792,8.958V34.042a3.594,3.594,0,0,0,3.583,3.583h32.25a3.594,3.594,0,0,0,3.583-3.583V8.958A3.594,3.594,0,0,0,37.625,5.375Zm0,28.685H5.375V8.94h32.25Z" transform="translate(-0.65 2.5)"/></g></svg>