<svg xmlns="http://www.w3.org/2000/svg" width="47" height="46" viewBox="0 0 47 46"><defs><style>.a{fill:#c5fbca;}.b{fill:#03e111;}</style></defs><g transform="translate(0.25 -0.489)"><rect class="a" width="47" height="46" transform="translate(-0.25 0.489)"/><path class="b" d="M41.512,25.945V38.917a2.6,2.6,0,0,1-2.594,2.594H25.945a2.6,2.6,0,0,1-2.594-2.594V25.945a2.6,2.6,0,0,1,2.594-2.594H38.917A2.6,2.6,0,0,1,41.512,25.945ZM10.378,20.756A10.378,10.378,0,1,0,20.756,31.134,10.378,10.378,0,0,0,10.378,20.756Zm28.461-2.594A2.6,2.6,0,0,0,41.15,14.27L33.445,1.3a2.708,2.708,0,0,0-4.623,0l-7.7,12.972a2.6,2.6,0,0,0,2.312,3.892Z" transform="translate(2.095 2.251)"/></g></svg>