<svg xmlns="http://www.w3.org/2000/svg" width="38" height="46" viewBox="0 0 38 46"><defs><style>.a{fill:#cbdff8;}.b,.c,.d{fill:none;stroke:#0469ff;stroke-linecap:round;stroke-linejoin:round;}.b{stroke-width:2px;}.c{stroke-width:1.5px;}</style></defs><g transform="translate(0.421 -0.002)"><rect class="a" width="38" height="46" transform="translate(-0.421 0.002)"/><g transform="translate(9.355 17.838)"><path class="b" d="M22.8,19.462a3.337,3.337,0,1,1-3.337-3.337A3.337,3.337,0,0,1,22.8,19.462Z" transform="translate(-7.226 -7.226)"/><path class="b" d="M22.259,17.365a1.835,1.835,0,0,0,.367,2.024l.067.067A2.226,2.226,0,1,1,19.545,22.6l-.067-.067a1.85,1.85,0,0,0-3.137,1.313v.189a2.225,2.225,0,0,1-4.449,0v-.1a1.835,1.835,0,0,0-1.2-1.68,1.835,1.835,0,0,0-2.024.367l-.067.067a2.226,2.226,0,1,1-3.148-3.148l.067-.067a1.85,1.85,0,0,0-1.313-3.137H4.016a2.225,2.225,0,0,1,0-4.449h.1a1.835,1.835,0,0,0,1.68-1.2,1.835,1.835,0,0,0-.367-2.024L5.362,8.6A2.226,2.226,0,1,1,8.51,5.451l.067.067a1.835,1.835,0,0,0,2.024.367h.089A1.835,1.835,0,0,0,11.8,4.205V4.016a2.225,2.225,0,0,1,4.449,0v.1a1.85,1.85,0,0,0,3.137,1.313l.067-.067A2.226,2.226,0,1,1,22.6,8.51l-.067.067A1.835,1.835,0,0,0,22.17,10.6v.089A1.835,1.835,0,0,0,23.85,11.8h.189a2.225,2.225,0,0,1,0,4.449h-.1a1.835,1.835,0,0,0-1.68,1.112Z" transform="translate(-1.792 -1.792)"/></g><g transform="translate(1.632 4.323)"><path class="c" d="M20.423,18.274a2.149,2.149,0,1,1-2.149-2.149A2.149,2.149,0,0,1,20.423,18.274Z" transform="translate(-10.394 -10.394)"/><path class="c" d="M14.973,11.821a1.182,1.182,0,0,0,.236,1.3l.043.043a1.433,1.433,0,1,1-2.027,2.027l-.043-.043a1.192,1.192,0,0,0-2.02.845v.122a1.433,1.433,0,1,1-2.865,0v-.064a1.24,1.24,0,0,0-2.077-.845l-.043.043a1.433,1.433,0,1,1-2.027-2.027l.043-.043a1.192,1.192,0,0,0-.845-2.02H3.224a1.433,1.433,0,0,1,0-2.865h.064a1.24,1.24,0,0,0,.845-2.077l-.043-.043A1.433,1.433,0,1,1,6.118,4.148l.043.043a1.182,1.182,0,0,0,1.3.236h.057a1.182,1.182,0,0,0,.716-1.082V3.224a1.433,1.433,0,0,1,2.865,0v.064a1.192,1.192,0,0,0,2.02.845l.043-.043a1.433,1.433,0,1,1,2.027,2.027l-.043.043a1.182,1.182,0,0,0-.236,1.3v.057A1.182,1.182,0,0,0,16,8.239h.122a1.433,1.433,0,0,1,0,2.865h-.064a1.182,1.182,0,0,0-1.082.716Z" transform="translate(-1.792 -1.792)"/></g><g transform="translate(18.044 3.358)"><path class="d" d="M19.008,17.566a1.441,1.441,0,1,1-1.441-1.441A1.441,1.441,0,0,1,19.008,17.566Z" transform="translate(-12.282 -12.282)"/><path class="d" d="M10.631,8.518a.793.793,0,0,0,.159.874l.029.029a.961.961,0,1,1-1.36,1.36l-.029-.029a.8.8,0,0,0-1.355.567V11.4a.961.961,0,0,1-1.922,0v-.043a.832.832,0,0,0-1.393-.567l-.029.029a.961.961,0,1,1-1.36-1.36L3.4,9.43a.8.8,0,0,0-.567-1.355H2.753a.961.961,0,0,1,0-1.922H2.8a.832.832,0,0,0,.567-1.393l-.029-.029a.961.961,0,1,1,1.36-1.36l.029.029A.793.793,0,0,0,5.6,3.56h.038a.793.793,0,0,0,.48-.725V2.753a.961.961,0,0,1,1.922,0V2.8a.8.8,0,0,0,1.355.567l.029-.029a.961.961,0,1,1,1.36,1.36l-.029.029a.793.793,0,0,0-.159.874v.038a.793.793,0,0,0,.725.48H11.4a.961.961,0,0,1,0,1.922h-.043a.793.793,0,0,0-.725.48Z" transform="translate(-1.792 -1.792)"/></g></g></svg>