<svg xmlns="http://www.w3.org/2000/svg" width="42" height="48" viewBox="0 0 42 48"><defs><style>.a{fill:#cbdff8;}.b{fill:#006ccb;}</style></defs><g transform="translate(0.367)"><rect class="a" width="42" height="48" transform="translate(-0.367)"/><path class="b" d="M20.643,19.669a12.031,12.031,0,0,0-5.862-3.242V14.294h1.68a1.011,1.011,0,0,0,1.008-1.008V9.927a1.011,1.011,0,0,0-1.008-1.008h-1.68V6.836h2.007A1.01,1.01,0,0,0,17.5,5.115L12.808.428a1.009,1.009,0,0,0-1.428,0L6.685,5.123A1.008,1.008,0,0,0,7.4,6.845H9.406V8.919H7.727A1.011,1.011,0,0,0,6.719,9.927v3.359a1.011,1.011,0,0,0,1.008,1.008h1.68v2.133a12.093,12.093,0,1,0,11.237,3.242Zm-3.8,13.3a6.717,6.717,0,1,1,0-9.5A6.721,6.721,0,0,1,16.847,32.972Z" transform="translate(8.614 3.78)"/></g></svg>