<svg xmlns="http://www.w3.org/2000/svg" width="42.24" height="48" viewBox="0 0 42.24 48"><defs><style>.a{fill:#cbdff8;}.b{fill:#006ccb;}</style></defs><rect class="a" width="42" height="48" transform="translate(0.24)"/><path class="b" d="M27.564,21.483H40.3a1.356,1.356,0,0,0,1.361-1.411A20.81,20.81,0,0,0,33.048,4.6a1.346,1.346,0,0,0-1.906.4L24.389,15.789a6.737,6.737,0,0,1,3.175,5.694Zm-3.175,5.686a6.609,6.609,0,0,1-7.122,0L10.515,37.961a1.336,1.336,0,0,0,.47,1.881,20.729,20.729,0,0,0,19.686,0,1.337,1.337,0,0,0,.47-1.881Zm-3.561-1.654A4.031,4.031,0,1,0,16.8,21.483,4.032,4.032,0,0,0,20.828,25.514ZM1.361,21.483H14.093A6.711,6.711,0,0,1,17.267,15.8L10.515,5.014a1.339,1.339,0,0,0-1.906-.4A20.81,20.81,0,0,0,0,20.081a1.354,1.354,0,0,0,1.361,1.4Z" transform="translate(0.003 0.487)"/></svg>