<svg xmlns="http://www.w3.org/2000/svg" width="42" height="48" viewBox="0 0 42 48"><defs><style>.a{fill:#cbdff8;}.b{fill:#006ccb;}</style></defs><g transform="translate(-0.11)"><rect class="a" width="42" height="48" transform="translate(0.11)"/><path class="b" d="M35.6,21.483,34.518,34.694c-.277,3.418-5.367,2.948-5.089-.412l.84-10.288-3.452.193a13.072,13.072,0,0,1-2.226,14.7l-3.3-3.3A8.395,8.395,0,0,0,9.431,23.726l-3.3-3.3a13.027,13.027,0,0,1,6.836-3.376l6.324-7.2L15.713,7.769,11.38,11.632c-2.52,2.251-5.929-1.554-3.4-3.813l5.711-5.1a2.546,2.546,0,0,1,2.981-.3S28.37,9.213,28.387,9.23a3,3,0,0,1,.512,4.418l-4.9,5.585,8.911-.5a2.548,2.548,0,0,1,2.7,2.746ZM30.15,8.55a4.275,4.275,0,1,0-4.275-4.275A4.276,4.276,0,0,0,30.15,8.55ZM15.084,38.339a8.4,8.4,0,0,1-6.946-13.11L4.8,21.895a12.92,12.92,0,0,0-2.788,8.037A13.077,13.077,0,0,0,23.129,40.22L19.8,36.886a8.339,8.339,0,0,1-4.712,1.453Z" transform="translate(2.547 2.334)"/></g></svg>