<svg xmlns="http://www.w3.org/2000/svg" width="47" height="47" viewBox="0 0 47 47"><defs><style>.a{fill:#fbc5de;}.b{fill:#f50474;}</style></defs><g transform="translate(-0.39 0.164)"><rect class="a" width="47" height="47" transform="translate(0.39 -0.164)"/><path class="b" d="M34.438,20.74,33.393,33.493c-.268,3.3-5.181,2.846-4.913-.4l.811-9.932-3.332.186a12.62,12.62,0,0,1-2.149,14.189l-3.186-3.186A8.1,8.1,0,0,0,9.175,22.9L5.988,19.718a12.576,12.576,0,0,1,6.6-3.259L18.693,9.51,15.239,7.5l-4.184,3.73A2.466,2.466,0,0,1,7.772,7.548l5.513-4.921a2.458,2.458,0,0,1,2.878-.292S27.458,8.894,27.474,8.91a2.891,2.891,0,0,1,.495,4.265l-4.735,5.392,8.6-.478a2.46,2.46,0,0,1,2.6,2.651ZM29.176,8.254A4.127,4.127,0,1,0,25.05,4.127a4.128,4.128,0,0,0,4.127,4.127ZM14.631,37.012A8.114,8.114,0,0,1,7.926,24.356L4.707,21.137A12.473,12.473,0,0,0,2.016,28.9,12.625,12.625,0,0,0,22.4,38.828L19.18,35.609a8.051,8.051,0,0,1-4.548,1.4Z" transform="translate(5.073 2.894)"/></g></svg>