<svg xmlns="http://www.w3.org/2000/svg" width="423.03" height="366.052" viewBox="0 0 423.03 366.052"><defs><style>.a{fill:#eefdfa;}.b,.h{opacity:0.1;}.c{fill:#3f3d56;}.d{fill:#494949;}.e{fill:#1bbc9b;}.f{fill:#2f2e41;}.g{fill:#ffb8b8;}.h{fill:#252525;}.i{fill:#baf5e9;}.j{fill:#f2f2f2;}</style></defs><path class="a" d="M275.55,645.03c0-2.322-10.153-4.365-25.515-5.547,12.17-.247,21.191-1.145,21.191-2.216,0-1.261-12.515-2.283-27.953-2.283s-27.953,1.022-27.953,2.283c0,.416,1.363.806,3.743,1.142-30.921.017-55.942,2.974-55.942,6.62,0,1.9,6.779,3.608,17.638,4.815-6.6.418-10.843,1.071-10.843,1.805,0,1.261,12.515,2.283,27.953,2.283s27.953-1.022,27.953-2.283a.2.2,0,0,0-.007-.044C253.808,651.228,275.55,648.428,275.55,645.03Z" transform="translate(-151.856 -358.276)"/><path class="b" d="M290.051,644.469q-1.119,0-2.211.017c11.87.178,21.159,1.769,21.159,3.707s-9.29,3.529-21.159,3.707q1.092.016,2.211.017c12.907,0,23.37-1.667,23.37-3.724S302.958,644.469,290.051,644.469Z" transform="translate(-213.413 -362.957)"/><path class="b" d="M233.261,648.21q1.119,0,2.211.017c-11.87.178-21.159,1.769-21.159,3.707s9.29,3.529,21.159,3.707q-1.092.016-2.211.017c-12.907,0-23.37-1.667-23.37-3.724S220.354,648.21,233.261,648.21Z" transform="translate(-174.94 -364.804)"/><path class="c" d="M235.863,646.353s2.532-10.635,20.257-7.09,20.257,7.09,20.257,7.09Z" transform="translate(-187.759 -360.031)"/><path class="d" d="M238.219,601.123c4.222,7.829,13.182,11.19,13.182,11.19s2.115-9.333-2.106-17.162-13.182-11.19-13.182-11.19S234,593.293,238.219,601.123Z" transform="translate(-187.621 -333.092)"/><path class="e" d="M229.907,609.635c7.622,4.586,10.557,13.694,10.557,13.694s-9.422,1.674-17.044-2.912-10.557-13.694-10.557-13.694S222.285,605.049,229.907,609.635Z" transform="translate(-176.407 -344.18)"/><path class="a" d="M307.122,230.838c0,62.6-37.215,84.458-83.122,84.458s-83.122-21.858-83.122-84.458S224,88.6,224,88.6,307.122,168.237,307.122,230.838Z" transform="translate(-140.878 -88.6)"/><path class="c" d="M125.593,217.12l.851-52.391,35.429-64.816-35.295,56.6.382-23.557,24.418-46.893L127.062,126.72h0l.689-42.368L153.9,47.018l-26.038,30.67L128.288,0l-2.7,102.846.222-4.242L99.224,57.913l26.157,48.835L122.9,154.066l-.074-1.256L92.185,109.99l30.553,47.257-.31,5.918-.055.089.025.486-6.284,120.05h8.4l1.007-62.008L156,174.64Z" transform="translate(-45.499 0)"/><path class="f" d="M406.029,564.992l-4.355,7.12s-.209,1.8,1.241.711,4.267-7.445,4.267-7.445Z" transform="translate(-269.592 -323.73)"/><path class="f" d="M484.137,408.4,495.1,390.113a8.835,8.835,0,0,1,6.8-4.327,5.179,5.179,0,0,1,5.735,3.662c2.593,6.981-2.618,12.237-2.618,12.237s-2.277.618-2.156-1.511l2.608-4.55s2.166-6.176-3.894-6.628-14.721,20.411-14.721,20.411Z" transform="translate(-310.299 -235.268)"/><path class="d" d="M453.41,430.45l-7.074,6.111c-.012,2.62-2.327,7.914-5.756,14.328q-.391.74-.806,1.5c-2.037,3.731-4.4,7.782-6.88,11.874q-.409.677-.823,1.355c-2.772,4.538-5.652,9.089-8.342,13.256-.28.436-.558.864-.833,1.295-3.1,4.782-5.9,8.989-7.923,11.993-.3.444-.581.86-.841,1.252-1.508,2.232-2.407,3.538-2.407,3.538a3.158,3.158,0,0,1-1.79.482,1.422,1.422,0,0,1-1.112-.75,5.877,5.877,0,0,1-.435-3.019,46.3,46.3,0,0,1,4.086-11.871c.251-.543.514-1.093.782-1.648,2.149-4.4,4.815-9.134,7.659-13.828l.827-1.356c2.764-4.5,5.659-8.933,8.382-12.966.285-.416.565-.827.841-1.238,2.678-3.93,5.152-7.43,7.126-10.17.3-.412.579-.8.851-1.177,2.257-3.113,3.671-4.982,3.671-4.982l1.609-9.518,3.082,1.857,2.372,1.431Z" transform="translate(-272.893 -254.59)"/><path class="e" d="M417.273,533.976l1.716,12.015c-.3.444-.581.86-.841,1.252l-1.657-11.618C416.742,535.081,417,534.531,417.273,533.976Z" transform="translate(-276.911 -308.422)"/><path class="e" d="M433.986,503.993l1.986,13.911c-.28.436-.558.864-.833,1.295l-1.98-13.85Z" transform="translate(-285.138 -293.623)"/><path class="e" d="M452.185,475.946l1.928,13.5q-.408.677-.823,1.355l-1.946-13.622C451.629,476.768,451.909,476.357,452.185,475.946Z" transform="translate(-294.113 -279.78)"/><path class="e" d="M467.927,453.54l1.637,11.481q-.391.74-.806,1.5l-1.682-11.8C467.373,454.305,467.655,453.914,467.927,453.54Z" transform="translate(-301.878 -268.721)"/><path class="a" d="M949.549,731.03c0-2.322-10.153-4.365-25.515-5.547,12.17-.247,21.191-1.145,21.191-2.216,0-1.261-12.515-2.283-27.953-2.283s-27.953,1.022-27.953,2.283c0,.416,1.363.806,3.744,1.142-30.921.017-55.942,2.974-55.942,6.62,0,1.9,6.779,3.608,17.638,4.815-6.6.418-10.843,1.071-10.843,1.805,0,1.261,12.515,2.283,27.953,2.283s27.953-1.022,27.953-2.283a.2.2,0,0,0-.007-.044C927.807,737.228,949.549,734.428,949.549,731.03Z" transform="translate(-526.519 -400.723)"/><path class="b" d="M964.051,730.469q-1.119,0-2.211.017c11.87.177,21.159,1.769,21.159,3.707s-9.29,3.529-21.159,3.707q1.092.016,2.211.017c12.907,0,23.37-1.667,23.37-3.724S976.958,730.469,964.051,730.469Z" transform="translate(-588.076 -405.404)"/><path class="b" d="M907.261,734.21q1.119,0,2.211.017c-11.87.178-21.159,1.769-21.159,3.707s9.29,3.529,21.159,3.707q-1.092.016-2.211.017c-12.907,0-23.37-1.667-23.37-3.724S894.354,734.21,907.261,734.21Z" transform="translate(-549.603 -407.25)"/><path class="a" d="M261.55,784.03c0-2.322-10.153-4.365-25.515-5.547,12.17-.247,21.191-1.145,21.191-2.216,0-1.261-12.515-2.283-27.953-2.283s-27.953,1.022-27.953,2.283c0,.416,1.363.806,3.743,1.142-30.921.017-55.942,2.974-55.942,6.62,0,1.9,6.779,3.608,17.638,4.815-6.6.418-10.843,1.071-10.843,1.805,0,1.261,12.515,2.283,27.953,2.283s27.953-1.022,27.953-2.283a.2.2,0,0,0-.007-.044C239.808,790.228,261.55,787.428,261.55,784.03Z" transform="translate(-144.947 -426.882)"/><path class="b" d="M276.05,783.469q-1.119,0-2.211.017c11.87.177,21.159,1.769,21.159,3.707s-9.29,3.529-21.159,3.707q1.092.016,2.211.017c12.907,0,23.37-1.667,23.37-3.724S288.957,783.469,276.05,783.469Z" transform="translate(-206.503 -431.563)"/><path class="b" d="M219.261,787.21q1.119,0,2.211.017c-11.87.178-21.159,1.769-21.159,3.707s9.29,3.529,21.159,3.707q-1.092.016-2.211.017c-12.907,0-23.37-1.667-23.37-3.724S206.354,787.21,219.261,787.21Z" transform="translate(-168.03 -433.409)"/><path class="a" d="M589.463,692.976c0-5.151-16.648-9.682-41.835-12.3,19.955-.548,34.745-2.54,34.745-4.915,0-2.8-20.52-5.064-45.832-5.064s-45.832,2.267-45.832,5.064c0,.923,2.235,1.788,6.138,2.533-50.7.038-91.725,6.6-91.725,14.686,0,4.209,11.115,8,28.92,10.682-10.815.926-17.779,2.376-17.779,4,0,2.8,20.52,5.064,45.832,5.064s45.832-2.267,45.832-5.064a.572.572,0,0,0-.011-.1C553.815,706.725,589.463,700.514,589.463,692.976Z" transform="translate(-271.299 -375.901)"/><path class="b" d="M681.893,703.3q-.9,0-1.772.014c9.517.142,16.966,1.418,16.966,2.972s-7.449,2.83-16.966,2.972q.876.013,1.772.014c10.349,0,18.738-1.337,18.738-2.986S692.242,703.3,681.893,703.3Z" transform="translate(-407.029 -391.993)"/><path class="b" d="M688.894,675.3q-.9,0-1.773.014c9.517.142,16.966,1.418,16.966,2.972s-7.449,2.83-16.966,2.972q.876.013,1.773.014c10.349,0,18.738-1.337,18.738-2.986S699.242,675.3,688.894,675.3Z" transform="translate(-410.484 -378.173)"/><path class="b" d="M488.359,703.3q.9,0,1.773.014c-9.517.142-16.966,1.418-16.966,2.972s7.448,2.83,16.966,2.972q-.876.013-1.773.014c-10.349,0-18.738-1.337-18.738-2.986S478.01,703.3,488.359,703.3Z" transform="translate(-303.134 -391.993)"/><path class="b" d="M622.359,674.3q.9,0,1.773.014c-9.517.142-16.966,1.418-16.966,2.972s7.449,2.83,16.966,2.972q-.876.013-1.773.014c-10.349,0-18.738-1.337-18.738-2.986S612.01,674.3,622.359,674.3Z" transform="translate(-369.272 -377.679)"/><path class="b" d="M595.776,725.193c-3.96.938-14.9,1.612-27.782,1.612s-23.822-.674-27.782-1.612c-1.026.243-1.591.5-1.591.775,0,1.318,13.151,2.386,29.373,2.386s29.373-1.068,29.373-2.386C597.367,725.7,596.8,725.435,595.776,725.193Z" transform="translate(-337.19 -402.8)"/><path class="b" d="M600.776,698.593c-3.96-.487-14.9-.837-27.782-.837s-23.822.35-27.782.837c-1.026-.126-1.591-.261-1.591-.4,0-.685,13.151-1.239,29.373-1.239s29.373.555,29.373,1.239C602.367,698.331,601.8,698.466,600.776,698.593Z" transform="translate(-339.658 -388.861)"/><path class="b" d="M510.19,746.919c-2.019.481-7.6.827-14.165.827s-12.146-.346-14.165-.827c-.523.125-.811.258-.811.4,0,.677,6.705,1.225,14.977,1.225S511,747.993,511,747.317C511,747.177,510.713,747.044,510.19,746.919Z" transform="translate(-308.774 -413.523)"/><path class="c" d="M929.159,629.372l-.9-.465c11.69-22.6,5.439-51.948-1.863-72.588a222.454,222.454,0,0,0-18.879-39.844l.856-.541a223.619,223.619,0,0,1,18.977,40.046C934.72,576.81,941.014,606.452,929.159,629.372Z" transform="translate(-561.264 -299.517)"/><rect class="c" width="36.555" height="1.013" transform="translate(369.993 252.558) rotate(-79.645)"/><rect class="c" width="1.013" height="49.809" transform="matrix(0.732, -0.681, 0.681, 0.732, 332.13, 247.924)"/><rect class="c" width="29.378" height="1.013" transform="matrix(0.586, -0.81, 0.81, 0.586, 376.661, 311.099)"/><circle class="e" cx="5.064" cy="5.064" r="5.064" transform="translate(374.535 196.937)"/><circle class="d" cx="5.064" cy="5.064" r="5.064" transform="translate(319.334 235.932)"/><circle class="d" cx="5.064" cy="5.064" r="5.064" transform="translate(341.617 240.997)"/><circle class="e" cx="5.064" cy="5.064" r="5.064" transform="translate(331.488 260.748)"/><circle class="d" cx="5.064" cy="5.064" r="5.064" transform="translate(394.793 273.409)"/><circle class="d" cx="5.064" cy="5.064" r="5.064" transform="translate(378.08 278.979)"/><circle class="d" cx="5.064" cy="5.064" r="5.064" transform="translate(389.728 295.185)"/><circle class="d" cx="5.064" cy="5.064" r="5.064" transform="translate(336.553 203.014)"/><circle class="f" cx="13.007" cy="13.007" r="13.007" transform="translate(211.26 66.138)"/><path class="g" d="M567.561,260.436s1.119,12.872,0,16.23,14.551-1.679,14.551-1.679-6.156-14.551-5.037-15.95S567.561,260.436,567.561,260.436Z" transform="translate(-351.446 -172.528)"/><path class="g" d="M565.918,448.11l-.839,41.134a12.759,12.759,0,0,0,1.959,7.835c2.518,4.2,13.711,35.817,13.711,35.817l9.234-5.037-.839-12.592s-1.679-17.349-7.275-23.785l8.115-39.455Z" transform="translate(-350.223 -266.041)"/><path class="b" d="M565.918,448.11l-.839,41.134a12.759,12.759,0,0,0,1.959,7.835c2.518,4.2,13.711,35.817,13.711,35.817l9.234-5.037-.839-12.592s-1.679-17.349-7.275-23.785l8.115-39.455Z" transform="translate(-350.223 -266.041)"/><path class="f" d="M597.265,593.979s-23.225,4.757-19.308,12.312,11.193,23.225,11.193,23.225,1.959,9.794-1.679,11.752-11.193,13.711-3.917,13.152,14.271-8.675,14.271-8.675l6.156-7.835,1.119,1.959,11.193-9.234s4.2-8.954-11.193-13.431Z" transform="translate(-356.385 -338.037)"/><path class="h" d="M597.265,593.979s-23.225,4.757-19.308,12.312,11.193,23.225,11.193,23.225,1.959,9.794-1.679,11.752-11.193,13.711-3.917,13.152,14.271-8.675,14.271-8.675l6.156-7.835,1.119,1.959,11.193-9.234s4.2-8.954-11.193-13.431Z" transform="translate(-356.385 -338.037)"/><path class="g" d="M556.525,450.32l-.839,41.134a12.758,12.758,0,0,0,1.959,7.835c2.518,4.2,13.711,35.817,13.711,35.817l9.234-5.037-.839-12.592s-1.679-17.349-7.276-23.785l8.115-39.455Z" transform="translate(-345.587 -267.132)"/><path class="d" d="M587.872,596.189s-23.225,4.757-19.308,12.312,11.193,23.225,11.193,23.225,1.959,9.794-1.679,11.753-11.193,13.711-3.918,13.152,14.271-8.674,14.271-8.674l6.156-7.835,1.119,1.959,11.193-9.234s4.2-8.954-11.193-13.432Z" transform="translate(-351.749 -339.128)"/><circle class="g" cx="10.633" cy="10.633" r="10.633" transform="translate(209.4 73.637)"/><path class="e" d="M572.866,279.552s11.753-6.436,17.069-6.436,11.193-2.518,11.753.56,6.156,11.193.56,10.633-10.074.28-12.872,0S572.866,279.552,572.866,279.552Z" transform="translate(-354.092 -179.192)"/><path class="i" d="M556.844,431.519s-5.037,12.592-1.679,13.152,22.386,1.959,23.225,1.4S582.028,430.959,556.844,431.519Z" transform="translate(-344.786 -257.845)"/><path class="e" d="M573.074,363.307c-5.876,5.6-2.518,8.115-4.757,12.312s-18.748.839-25.464-8.115-8.395-5.6-15.67-6.716-13.711-6.436-7.555-9.514c2.812-1.408,5.451-4.332,7.3-8a24.719,24.719,0,0,0,2.521-8.655,21.134,21.134,0,0,0-.308-6.288c-1.119-5.437.778-16.174,3.862-25.735,2.18-6.761,4.956-12.933,7.678-16.23.162-.2.327-.389.492-.568,6.716-7.275,21.826-1.959,21.826-1.959s11.193,9.234,7.275,20.987a40.268,40.268,0,0,0,1.119,29.1C574.473,340.922,578.951,357.711,573.074,363.307Z" transform="translate(-326.598 -184.037)"/><path class="g" d="M526.367,397.277l-3.078,1.959s-12.592-3.638-12.312,0,13.152,4.757,13.152,4.757l4.477-3.358Z" transform="translate(-323.544 -240.952)"/><path class="b" d="M556.231,293.036s-8.109-3.27-7.972,9.558,4.055,28.218,4.055,28.218l-11.45,16.562,3.615,5.544L567.7,333.891v-26.3S566.585,294.156,556.231,293.036Z" transform="translate(-338.297 -189.318)"/><path class="b" d="M563.9,305.2v26.3l-21.406,17.489-1.4-3.078c1.31-2.6-.129-3.929.168-7l7.247-10.485a157.9,157.9,0,0,1-3.694-21.538c2.18-6.761,4.956-12.933,7.678-16.23C562.787,291.824,563.9,305.2,563.9,305.2Z" transform="translate(-338.411 -188.327)"/><path class="e" d="M554.021,290.274s-8.109-3.27-7.972,9.558S550.1,328.05,550.1,328.05l-11.45,16.562,3.615,5.544,23.225-19.028v-26.3S564.375,291.393,554.021,290.274Z" transform="translate(-337.206 -187.955)"/><circle class="f" cx="13.007" cy="13.007" r="13.007" transform="translate(225.351 49.013)"/><path class="f" d="M614.113,220.475a13.007,13.007,0,0,1-20.086-6.83,13.007,13.007,0,1,0,25.372-5.334,13,13,0,0,1-5.287,12.164Z" transform="translate(-364.536 -147.685)"/><circle class="f" cx="9.538" cy="9.538" r="9.538" transform="translate(218.197 71.775)"/><ellipse class="f" cx="8.454" cy="6.612" rx="8.454" ry="6.612" transform="translate(211.26 71.124)"/><ellipse class="g" cx="1.605" cy="2.839" rx="1.605" ry="2.839" transform="translate(215.855 81.672)"/><path class="j" d="M677.455,650.919c.756-1.006,1.395-.536,2.178.052s1.413,1.07.657,2.077-3.394,1.568-3.394,1.568S676.7,651.926,677.455,650.919Z" transform="translate(-405.426 -365.851)"/><path class="j" d="M552.281,669.343c-.883-.9-.322-1.459.376-2.146s1.269-1.238,2.151-.34,1.045,3.59,1.045,3.59S553.164,670.24,552.281,669.343Z" transform="translate(-343.709 -373.776)"/><path class="b" d="M658.647,677.042c1.171.461.887,1.2.528,2.113s-.657,1.646-1.828,1.185-2.413-2.856-2.413-2.856S657.476,676.58,658.647,677.042Z" transform="translate(-394.598 -378.969)"/><path class="b" d="M563.287,721.617c-.7,1.048-1.1.791-1.587.465s-.881-.6-.184-1.643a9.7,9.7,0,0,1,2.709-2.152A9.691,9.691,0,0,1,563.287,721.617Z" transform="translate(-348.304 -399.391)"/><path class="b" d="M592.287,723.617c-.7,1.048-1.1.79-1.587.465s-.881-.6-.184-1.643a9.7,9.7,0,0,1,2.709-2.152A9.692,9.692,0,0,1,592.287,723.617Z" transform="translate(-362.617 -400.378)"/><path class="b" d="M628.149,710.477c.563,1.125.141,1.345-.384,1.608s-.954.469-1.518-.656a9.7,9.7,0,0,1-.522-3.42A9.686,9.686,0,0,1,628.149,710.477Z" transform="translate(-380.181 -394.319)"/><path class="b" d="M615.149,714.477c.563,1.126.141,1.345-.384,1.608s-.954.469-1.518-.656a9.7,9.7,0,0,1-.522-3.42A9.688,9.688,0,0,1,615.149,714.477Z" transform="translate(-373.765 -396.293)"/><path class="j" d="M663.706,629.937c1.1-.608,1.492.083,1.965.94s.85,1.556-.252,2.164-3.739.038-3.739.038S662.6,630.545,663.706,629.937Z" transform="translate(-397.928 -355.671)"/></svg>