<svg xmlns="http://www.w3.org/2000/svg" width="396.484" height="305.641" viewBox="0 0 396.484 305.641"><defs><style>.a{fill:#eefdfa;}.b{fill:#494949;}.c{opacity:0.1;}.d{fill:#f2f2f2;}.e{fill:#1bbc9b;}.f{fill:#3f3d56;}.g{fill:#ffb9b9;}.h{fill:#252525;}.i{fill:#31e1bd;}.j{fill:#2f2e41;}</style></defs><path class="a" d="M78.744,169.026c10.914-70.858,48.627-122.008,92.894-124.06,23.4-1.084,48.028,11.73,65.958,56.572,32.051,80.161-1.97,135.554-25.688,161.876-11.469,12.728-21.771,28.074-30.676,45.521-16.021,31.388-46.841,70.392-83.547,9.279C71.08,273.919,71.474,216.224,78.744,169.026Z" transform="translate(-74.5 -44.904)"/><rect class="b" width="319.017" height="115.976" transform="translate(77.467 186.932)"/><path class="c" d="M291.407,495.52,205.35,554.6V520.384l36.219-24.864Z" transform="translate(-127.883 -308.588)"/><path class="c" d="M376.453,495.52,295.96,550.779l-2.882,1.981L207.515,611.5H205.35v-32.73l55.134-37.845,1.845-1.268,64.29-44.134Z" transform="translate(-127.883 -308.588)"/><path class="d" d="M303.289,671.124l-.859-1.076a69.719,69.719,0,0,1,22.435-10.736,70.983,70.983,0,0,1,24.517-2.537,76.3,76.3,0,0,1,30.267,8.984L379,666.976c-21.9-11.606-41.323-9.853-53.765-6.339A68.177,68.177,0,0,0,303.289,671.124Z" transform="translate(-216.444 -425.837)"/><path class="d" d="M503.02,674.582a41.6,41.6,0,0,0-13.462-.251l5.337-4.471,1.241-6.849A41.572,41.572,0,0,0,503.02,674.582Z" transform="translate(-332.979 -429.833)"/><path class="d" d="M608.863,706.789a71.45,71.45,0,0,1-19.448-2.721,69.723,69.723,0,0,1-22.435-10.736l.859-1.076a68.334,68.334,0,0,0,22.007,10.5c12.43,3.5,31.838,5.238,53.709-6.355l.644,1.217a76.3,76.3,0,0,1-30.266,8.984Q611.4,706.79,608.863,706.789Z" transform="translate(-381.195 -448.046)"/><path class="d" d="M767.571,693.683a41.6,41.6,0,0,0-6.884,11.572l-1.242-6.85-5.336-4.47A41.567,41.567,0,0,0,767.571,693.683Z" transform="translate(-497.731 -448.934)"/><path class="d" d="M842.425,671.124l-.859-1.076A69.719,69.719,0,0,1,864,659.312a71.007,71.007,0,0,1,24.518-2.537,76.3,76.3,0,0,1,30.266,8.984l-.644,1.217c-21.9-11.606-41.324-9.854-53.765-6.339A68.165,68.165,0,0,0,842.425,671.124Z" transform="translate(-552.194 -425.837)"/><path class="d" d="M1042.156,674.582a41.6,41.6,0,0,0-13.462-.251l5.337-4.471,1.241-6.849A41.564,41.564,0,0,0,1042.156,674.582Z" transform="translate(-668.729 -429.833)"/><rect class="e" width="22.369" height="0.688" transform="translate(265.023 218.594)"/><rect class="e" width="22.369" height="0.688" transform="translate(265.023 225.477)"/><rect class="e" width="22.369" height="0.688" transform="translate(265.023 232.36)"/><rect class="e" width="22.369" height="0.688" transform="translate(164.535 259.202)"/><rect class="e" width="22.369" height="0.688" transform="translate(164.535 266.085)"/><rect class="e" width="22.369" height="0.688" transform="translate(164.535 272.968)"/><rect class="e" width="22.369" height="0.688" transform="translate(368.609 259.202)"/><rect class="e" width="22.369" height="0.688" transform="translate(368.609 266.085)"/><rect class="e" width="22.369" height="0.688" transform="translate(368.609 272.968)"/><circle class="e" cx="4.474" cy="4.474" r="4.474" transform="translate(171.761 244.405)"/><circle class="e" cx="4.474" cy="4.474" r="4.474" transform="translate(271.906 238.21)"/><circle class="e" cx="4.474" cy="4.474" r="4.474" transform="translate(375.148 244.405)"/><path class="f" d="M411.581,435.078l-6.664-7.144,7.144-6.664,6.664,7.144Zm-5.6-7.107,5.639,6.045,6.045-5.638-5.638-6.045Z" transform="translate(-280.269 -279.288)"/><path class="f" d="M836.581,213.078l-6.664-7.144,7.144-6.664,6.664,7.144Zm-5.6-7.107,5.639,6.045,6.045-5.638-5.638-6.045Z" transform="translate(-544.94 -141.036)"/><path class="f" d="M1048.372,525.832h-9.77v-9.769h9.77Zm-9.018-.751h8.267v-8.267h-8.266Z" transform="translate(-674.9 -338.32)"/><circle class="e" cx="4.988" cy="4.988" r="4.988" transform="translate(223.792 216.019)"/><path class="d" d="M657.164,621.37a14.409,14.409,0,1,1,14.409-14.409A14.409,14.409,0,0,1,657.164,621.37Zm0-27.709a13.3,13.3,0,1,0,13.3,13.3,13.3,13.3,0,0,0-13.3-13.3Z" transform="translate(-428.384 -385.955)"/><rect class="a" width="41.555" height="48.413" transform="translate(200.721 100.877)"/><path class="e" d="M671.329,512.594l-.577-.564a29.5,29.5,0,0,0,5.915-10.349c1.963-5.908,2.922-15.237-3.659-26.136-6.733-11.151-7.036-20.208-6.1-25.843a23.148,23.148,0,0,1,3.709-9.711l.641.49a22.828,22.828,0,0,0-3.562,9.4c-.9,5.491-.585,14.329,6.007,25.246,6.749,11.177,5.749,20.767,3.722,26.842A29.707,29.707,0,0,1,671.329,512.594Z" transform="translate(-443.183 -290.947)"/><path class="f" d="M663.6,345.807H605.5v-58.1h58.1ZM606.307,345h56.482V288.518H606.307Z" transform="translate(-405.183 -196.113)"/><rect class="f" width="35.503" height="0.807" transform="translate(212.42 108.543)"/><rect class="f" width="35.503" height="0.807" transform="translate(212.42 117.418)"/><rect class="f" width="35.503" height="0.807" transform="translate(212.42 126.294)"/><path class="g" d="M152.666,708.867l-1.459,14.109,8.27-.973.973-11.676Z" transform="translate(-94.165 -441.45)"/><path class="b" d="M131.2,470.055s-42.326,40.866-15.568,53.515h8.271s18-29.677,26.758-29.19L153.1,522.6l-1.46,56.921,10.7.486s6.325-28.7,5.838-44.758l11.19-59.353Z" transform="translate(-94.594 -309.669)"/><path class="b" d="M136.723,582.661l5.838,1.946s22.866-5.352,24.325-4.865l4.527-.031-.148-11.645H151.8Z" transform="translate(-113.25 -370.706)"/><path class="h" d="M231.609,780.577s-8.757-3.892-10.217,0-.973,15.082-.973,15.082a10.821,10.821,0,0,1,.973,7.3c-.973,3.892,3.892,5.838,10.217,3.892s6.325-6.811,6.325-6.811Z" transform="translate(-165.323 -501.971)"/><path class="h" d="M256.7,563.389s6.811-3.892,6.325,1.946a38.466,38.466,0,0,1-2.919,11.189s6.325,16.541,0,18-11.19-1.946-11.19-4.379S256.7,563.389,256.7,563.389Z" transform="translate(-183.121 -367.002)"/><path class="g" d="M138.31,166.423l.973,18.487,8.27,7.3,9.244-13.135V165.937Z" transform="translate(-86.133 -103.338)"/><path class="i" d="M186.219,248.409l-5.569-4.138-3.674,5.6-16.541,9.73,9.73,25.3.487,24.812s-18,18.487-7.3,20.92,48.65,7.784,50.6,3.405-2.433-49.623-2.433-49.623l1.46-38.434-14.6-5.277Z" transform="translate(-127.718 -166.837)"/><path class="g" d="M149.2,342.545s-3.892,27.568,3.406,27.568a33.511,33.511,0,0,0,12.649-2.433L159.413,352.6l2.433-10.216Z" transform="translate(-120.372 -230.16)"/><path class="g" d="M172.539,377.148l5.352.973s15.568-9.73,16.541-10.216-15.568-8.757-15.568-8.757l-11.19,4.379Z" transform="translate(-132.524 -240.6)"/><path class="c" d="M166.711,348.706l-7.025,2.749,2.16-9.074-12.649.163s-3.892,27.568,3.405,27.568a33.512,33.512,0,0,0,12.649-2.433l-.037-.1.523.1s15.568-9.73,16.541-10.217S166.711,348.706,166.711,348.706Z" transform="translate(-120.372 -230.16)"/><circle class="g" cx="13.892" cy="13.892" r="13.892" transform="translate(49.54 44.526)"/><path class="j" d="M201.4,142.3l-2.714-1.087s5.675-6.248,13.571-5.7l-2.221-2.445s5.429-2.173,10.364,3.532c2.594,3,5.6,6.524,7.467,10.495h2.907l-1.213,2.671,4.246,2.671-4.358-.48a14.781,14.781,0,0,1-.412,6.918l.117,2.111s-5.052-7.816-5.052-8.9v2.717s-2.714-2.445-2.714-4.075l-1.481,1.9-.74-2.988-9.13,2.988,1.481-2.445-5.675.815L208.065,148s-6.416,3.532-6.662,6.52-3.454,6.791-3.454,6.791l-1.481-2.717S194.247,146.371,201.4,142.3Z" transform="translate(-150.253 -99.55)"/><path class="g" d="M214.478,318.66a17.486,17.486,0,0,0-3.892,10.7L184.8,328.39s-6.811-.973-6.811,3.892v4.865s3.406-1.46,5.352,0,22.866,14.109,33.082,9.244,12.649-23.839,12.649-23.839S219.83,314.768,214.478,318.66Z" transform="translate(-138.949 -214.708)"/><path class="i" d="M276.535,255.175l3.892-.487s7.784.973,6.811,16.055-1.459,16.055-1.459,16.055-10.217-9.244-17.514-4.865Z" transform="translate(-195.168 -175.548)"/><path class="i" d="M153.936,290.8H151.99a18.023,18.023,0,0,0-3.892,11.19,53.849,53.849,0,0,1-1.7,12.892L161.72,312.2Z" transform="translate(-119.273 -198.035)"/><rect class="f" width="0.754" height="19.59" transform="translate(275.954 154.356)"/><path class="f" d="M801.078,442a22.8,22.8,0,0,0,3.588,6.449l-3.588-1.3-3.588,1.3A22.776,22.776,0,0,0,801.078,442Z" transform="translate(-524.746 -292.197)"/><rect class="f" width="0.754" height="19.59" transform="translate(185.416 137.38)"/><path class="f" d="M561.078,397a22.8,22.8,0,0,0,3.588,6.449l-3.588-1.3-3.588,1.3A22.768,22.768,0,0,0,561.078,397Z" transform="translate(-375.285 -264.174)"/><rect class="f" width="0.754" height="19.59" transform="translate(310.661 122.29)"/><path class="f" d="M893.078,357a22.8,22.8,0,0,0,3.589,6.449l-3.589-1.3-3.588,1.3A22.768,22.768,0,0,0,893.078,357Z" transform="translate(-582.039 -239.263)"/></svg>