<svg xmlns="http://www.w3.org/2000/svg" width="419" height="289.637" viewBox="0 0 419 289.637"><defs><style>.a,.i{fill:#1bbc9b;}.a,.b,.m,.n{opacity:0.1;}.b{fill:#6c63ff;}.c{fill:#929292;}.d{fill:#fff;}.e,.m{fill:#252525;}.f{fill:#6e6e6e;}.g{fill:#fbbebe;}.h{fill:#f2f2f2;}.j{fill:#494949;}.k{fill:#192534;}.l{fill:#3f3d56;}.o{fill:#64e9ce;}</style></defs><rect class="a" width="49.967" height="15.105" rx="7.43" transform="translate(60.217 116.393)"/><rect class="b" width="49.967" height="15.105" rx="7.43" transform="translate(112.508 131.502)"/><rect class="a" width="49.967" height="15.105" rx="7.43" transform="translate(164.803 146.608)"/><rect class="a" width="49.967" height="15.105" rx="7.43" transform="translate(60.217 93.735)"/><rect class="b" width="49.967" height="15.105" rx="7.43" transform="translate(112.508 108.841)"/><rect class="a" width="49.967" height="15.105" rx="7.43" transform="translate(164.803 123.95)"/><rect class="a" width="49.967" height="15.105" rx="7.43" transform="translate(222.905 116.393)"/><rect class="a" width="49.967" height="15.105" rx="7.43" transform="translate(275.196 131.502)"/><rect class="a" width="49.967" height="15.105" rx="7.43" transform="translate(327.491 146.608)"/><rect class="a" width="49.967" height="15.105" rx="7.43" transform="translate(222.905 93.735)"/><rect class="a" width="49.967" height="15.105" rx="7.43" transform="translate(275.196 108.841)"/><rect class="a" width="49.967" height="15.105" rx="7.43" transform="translate(327.491 123.95)"/><rect class="a" width="49.967" height="15.105" rx="7.43" transform="translate(60.217 63.521)"/><rect class="b" width="49.967" height="15.105" rx="7.43" transform="translate(112.508 78.626)"/><rect class="a" width="49.967" height="15.105" rx="7.43" transform="translate(164.803 93.735)"/><rect class="a" width="49.967" height="15.105" rx="7.43" transform="translate(60.217 40.859)"/><rect class="b" width="49.967" height="15.105" rx="7.43" transform="translate(112.508 55.968)"/><rect class="a" width="49.967" height="15.105" rx="7.43" transform="translate(164.803 71.074)"/><rect class="a" width="49.967" height="15.105" rx="7.43" transform="translate(222.905 63.521)"/><rect class="a" width="49.967" height="15.105" rx="7.43" transform="translate(275.196 78.626)"/><rect class="a" width="49.967" height="15.105" rx="7.43" transform="translate(327.491 93.735)"/><rect class="a" width="49.967" height="15.105" rx="7.43" transform="translate(222.905 40.859)"/><rect class="a" width="49.967" height="15.105" rx="7.43" transform="translate(275.196 55.968)"/><rect class="a" width="49.967" height="15.105" rx="7.43" transform="translate(327.491 71.074)"/><ellipse class="a" cx="209.5" cy="37.5" rx="209.5" ry="37.5" transform="translate(0 214.637)"/><path class="c" d="M211.582,320.691,194,428.477l79.5-8.409-3.44-9.173-62.111,5.16L222.475,320.5Z" transform="translate(-118.876 -197.999)"/><path class="c" d="M186,.382,293.021,0l30.96,234.3-107.4,14.524Z" transform="translate(-113.934)"/><path class="d" d="M216.5,24.5h86.381l30.2,217.865L244.02,254.6Z" transform="translate(-132.777 -15.136)"/><path class="e" d="M461.184,634.8a21.293,21.293,0,0,0,1.655,3.1c2.064,2.759,5.982,3.191,8.921,4.992a.822.822,0,0,1,.348.336c.134.317-.164.65-.451.849-2.228,1.563-5.152,1.6-7.878,1.579a10.519,10.519,0,0,1-2.725-.26c-1.441-.382-2.676-1.387-4.1-1.8a10.872,10.872,0,0,0-2.251-.317l-2.985-.2a7.042,7.042,0,0,1-2.328-.432,2.355,2.355,0,0,1-1.468-1.739,5,5,0,0,1,.348-1.869c.382-1.468.264-3.241,1.407-4.243a4.335,4.335,0,0,1,1.586-.764,50.617,50.617,0,0,1,6.349-1.69C459.383,631.99,460.4,633.29,461.184,634.8Z" transform="translate(-295.994 -417.367)"/><path class="e" d="M376.17,643.8a2.793,2.793,0,0,1-.489,2.316,2.608,2.608,0,0,1-1.281.573c-2.825.658-5.974.7-8.432-.833a2.328,2.328,0,0,1-.665-.57,2.074,2.074,0,0,1-.336-1.051,9.02,9.02,0,0,1,.547-3.192,56.017,56.017,0,0,0,1.625-7.549c.031-.21,7.213,1.147,7.69,1.858.6.879.6,2.989.764,4.036Q375.956,641.583,376.17,643.8Z" transform="translate(-244.745 -418.103)"/><path class="f" d="M396.488,380.267l1.911,17.769a61.84,61.84,0,0,1,.52,10.924c-.306,4.2-1.483,8.409-.986,12.575.195,1.621.638,3.211.7,4.843a26.381,26.381,0,0,1-.165,3.249c-.864,10.782,1.869,21.481,3.4,32.187a13.97,13.97,0,0,1,.161,4.006c-.2,1.357-.6,3.138.611,3.78L391.3,473.711c-1.448-1.815-.489-4.64-.764-6.945-.252-2.076-1.391-3.926-2-5.924a27.983,27.983,0,0,1-.845-5.554c-.99-10.156-4.029-20.047-4.74-30.226a13.762,13.762,0,0,0-.382-2.917,27.135,27.135,0,0,0-1.7-3.558,25.091,25.091,0,0,1-1.689-5.676l-2.427-11.371c-2.454,3.654-2.354,8.409-2.84,12.789-.68,6.115-2.2,12.128-3.44,18.167a36.075,36.075,0,0,0-.646,3.937c-.321,3.543.317,7.121-.023,10.66-.382,4.1-2.106,8.1-1.689,12.2a42.685,42.685,0,0,0,1.689,6.62,10.387,10.387,0,0,1-.019,6.716,20.639,20.639,0,0,0-9.827-1.085c-3.643-3.727-4.288-8.925-4.537-14.142s.352-10.442-.3-15.61c-.191-1.529-.489-3.02-.539-4.545-.161-4.889,2.19-9.464,3.36-14.215a30.078,30.078,0,0,0,.294-13.053c-.573-2.855-1.559-5.626-1.911-8.52-.478-4.055.333-8.141,1.147-12.147.547-2.7,1.089-5.4,1.708-8.092.665-2.886,1.456-5.833,3.234-8.195,2.844-3.78,7.893-5.458,12.613-5.091s9.127,2.515,13.026,5.191A49.11,49.11,0,0,1,396.488,380.267Z" transform="translate(-238.331 -254.031)"/><path class="g" d="M407.866,211.161a3.3,3.3,0,0,0-.44,1.124,3.785,3.785,0,0,0,.765,2.186,11.916,11.916,0,0,1,1.12,2.79,4.588,4.588,0,0,1,.164,1.861,4.5,4.5,0,0,1-.5,1.338,6.806,6.806,0,0,1-3.318,3.329,5.844,5.844,0,0,1-3.589.145,10.9,10.9,0,0,1-3.283-1.56,9.979,9.979,0,0,1-2.247-1.949,13.482,13.482,0,0,1-1.552-2.675,10.653,10.653,0,0,1-1.456-5.263,1.76,1.76,0,0,1,.092-.485,2.608,2.608,0,0,1,.512-.764,9.976,9.976,0,0,0,2.339-6.937l5.569,1.265c1.227.279,2.454.558,3.665.906.994.287,2.523.684,3.169,1.571S408.305,210.35,407.866,211.161Z" transform="translate(-262.391 -152.968)"/><circle class="g" cx="10.121" cy="10.121" r="10.121" transform="translate(132.372 37.003)"/><path class="h" d="M394.937,235.876a5.854,5.854,0,0,1,2.2-2.117A3.916,3.916,0,0,0,399,231.4a1.692,1.692,0,0,1,.168-.665c.325-.489,1.1-.245,1.559.115a11.977,11.977,0,0,1,2.634,3.329,21.18,21.18,0,0,1,3.788,13.607A29.091,29.091,0,0,1,406.69,256a23.864,23.864,0,0,0-1.189,5.068c-.126,6.318-2.32,12.357-2.473,18.675a48.409,48.409,0,0,0,.275,5.47l.359,4.1q-8.336-.478-16.627-1.464a31.791,31.791,0,0,0-1.193-5.546,120.377,120.377,0,0,1-3.864-22.834c-.294-4.1-.6-8.179-1.051-12.262-.409-3.711-1.212-7.446-.73-11.149a15.4,15.4,0,0,1,1.567-4.824,3.18,3.18,0,0,1,1.223-1.464,3.306,3.306,0,0,1,.864-.279,16.033,16.033,0,0,1,2.63-.31,1.812,1.812,0,0,1,.642.061,2.015,2.015,0,0,1,.875.849,15.87,15.87,0,0,0,6.937,5.787Z" transform="translate(-254.072 -168.334)"/><path class="i" d="M406.72,243.309c.711,1.017,2.217,1.258,2.874,2.293a6.009,6.009,0,0,1,.5,1.365c.4,1.28,1.212,2.393,1.7,3.643a15.619,15.619,0,0,1,.738,5.714,18.911,18.911,0,0,1-.352,4.587c-.229.944-.6,1.842-.879,2.775a13.568,13.568,0,0,0-.512,4.892,2,2,0,0,0,.275,1.013,2.2,2.2,0,0,0,.979.665,7.245,7.245,0,0,0,3.516.883,1.288,1.288,0,0,0,.7-.233,1.552,1.552,0,0,0,.344-.455l.764-1.292c.692-1.181,1.414-2.5,1.147-3.853a7.646,7.646,0,0,0-.868-1.976,23.241,23.241,0,0,1-1.246-3.084,42.827,42.827,0,0,1-2.729-10.759,9.456,9.456,0,0,1,.459-4.174,11.883,11.883,0,0,1,1.345-2.328,1,1,0,0,0-1.074-.363,6.4,6.4,0,0,0-1.112.463,5.276,5.276,0,0,1-3.5-.023,6.126,6.126,0,0,0-1.605-.543C408.027,242.537,406.747,243.355,406.72,243.309Z" transform="translate(-270.549 -176.577)"/><path class="h" d="M423.962,235c-.229-.183-.585-.352-.787-.138a.89.89,0,0,0-.145.31,2.056,2.056,0,0,1-1.315,1.005c-.531.206-1.1.321-1.426-.073a.864.864,0,0,1,.05-1.021,3.122,3.122,0,0,1,.837-.707,8.171,8.171,0,0,0,3.333-5.244,2.492,2.492,0,0,1,.914,1.579c.126.608.141,1.235.268,1.842a25.779,25.779,0,0,1,.7,2.568,13.4,13.4,0,0,1,0,1.414,8.681,8.681,0,0,0,.161,1.368A26.017,26.017,0,0,0,423.962,235Z" transform="translate(-278.842 -168.308)"/><path class="h" d="M400.382,226.465c-.382-.363-.764-.707-1.147-1.078a14.867,14.867,0,0,1-3.7-5.867,2.2,2.2,0,0,0-1.04,1.529,2.342,2.342,0,0,0,.5,1.242,19.373,19.373,0,0,1,2.8,7.5,2.232,2.232,0,0,1,1.93-1.028c.6,0,3.314,1.605,3.509,1.2C403.532,229.324,400.841,226.9,400.382,226.465Z" transform="translate(-262.999 -162.371)"/><path class="j" d="M372.188,224.707a31.725,31.725,0,0,0,12.835,7.771,2.882,2.882,0,0,1,1.3.657,2.649,2.649,0,0,1,.539,1.185,67.281,67.281,0,0,1,1.556,11.169,6.225,6.225,0,0,1-.038,1.865,5.886,5.886,0,0,1-1.636,2.565c-2.194,2.351-4.7,4.808-5.068,8a12.765,12.765,0,0,1-.218,1.835c-.191.711-.615,1.338-.875,2.03-1.277,3.406,1.609,7.53-.149,10.7a19.324,19.324,0,0,1,1.934,5.833,7.581,7.581,0,0,0,.524,2.247,11.641,11.641,0,0,0,2.45,2.676c2.588,2.653,2.9,6.712,3.058,10.415.1,2.087.065,4.483-1.529,5.852a6.692,6.692,0,0,1-3.383,1.258c-1.6.268-3.344.459-4.762-.333a7.652,7.652,0,0,1-2.37-2.511c-1.254-1.823-2.511-3.643-3.7-5.512-1.88-2.947-3.654-6.314-3.111-9.77a22.7,22.7,0,0,1-2.633,10.178,14.007,14.007,0,0,1-7.92,6.67,10.159,10.159,0,0,1-9.88-2.179,13.355,13.355,0,0,1-2.106-2.84,27.716,27.716,0,0,1-3.111-7.916,3.078,3.078,0,0,1,.077-2.175c.172-.306.436-.547.615-.849.6-1.028.023-2.324-.562-3.371-.891.084-1.529-.963-1.449-1.858a7.841,7.841,0,0,1,.994-2.484c1.108-2.4.864-5.194.329-7.782s-1.334-5.16-1.273-7.8c.065-2.794-1.945-5.309-3.478-7.644-.856-1.315-1.854-2.538-2.6-3.918a12.64,12.64,0,0,1-1-9.464,24.808,24.808,0,0,1,2.095-4.671l1.261-2.366a3.9,3.9,0,0,1,2.675-2.293l8.726-3.44a13.132,13.132,0,0,0,3.149-1.575c1.066-.8,1.861-1.911,2.878-2.767a1.613,1.613,0,0,1,1.147-.5c.818.073,1.108,1.1,1.193,1.911.191,1.8,1.529,3.333,1.984,5.087,2.461,9.689,7.671,18.625,9.1,28.517a103.633,103.633,0,0,1,5.267-11.352,9.434,9.434,0,0,0,.814-1.647,7.032,7.032,0,0,0,.271-2.557,33.44,33.44,0,0,0-1.418-7.323C373.836,230.964,373.071,227.949,372.188,224.707Z" transform="translate(-226.27 -163.656)"/><path class="j" d="M459.479,292.857c.168,1.628.333,3.26.635,4.869.352,1.861.887,3.681,1.418,5.5a14.313,14.313,0,0,0,1.108,2.954,3.8,3.8,0,0,1,.409.875,5.042,5.042,0,0,1-.424,2.293c-.55,2.293,1.1,4.843.061,6.956a13.273,13.273,0,0,0-1.066,1.861,5.581,5.581,0,0,0,.126,2.454c.325,2.293-.459,4.625-1.231,6.83l-1.315,3.723a34.526,34.526,0,0,0-4.071-6.4c-.592-.688-1.238-1.326-1.785-2.053A14.4,14.4,0,0,1,451.433,319a32.278,32.278,0,0,1-1.976-9.831,6.724,6.724,0,0,1,.325-2.829,15.036,15.036,0,0,1,.849-1.529,12.361,12.361,0,0,0,1.216-6.142,50.589,50.589,0,0,1,0-6.326,14.472,14.472,0,0,1,1.529-5.019,7.121,7.121,0,0,1,2.076-2.588,3.737,3.737,0,0,1,2.293-.745c1.25.073.963,1.147,1.07,2.182Z" transform="translate(-296.93 -202.198)"/><path class="j" d="M321.912,277.419q-1.17,3.44-2.11,6.941-.917,3.44-1.64,6.918a14.816,14.816,0,0,0-.413,3.111,13.921,13.921,0,0,0,.623,3.6c2.462,8.871,6.949,17.055,12,24.749a22.276,22.276,0,0,1,5.083-4.64,1.089,1.089,0,0,0,.382-.382,1.035,1.035,0,0,0-.122-.894c-1.4-2.859-3.6-5.378-4.3-8.485-.291-1.292-.3-2.637-.631-3.922-.424-1.663-1.372-3.184-1.59-4.889-.233-1.857.382-3.883-.489-5.531,1.777-.692,2.805-2.523,3.559-4.277a23.428,23.428,0,0,0,1.712-5.622,16.917,16.917,0,0,0-2.068-10.759,17.2,17.2,0,0,0-3.459-4.342c-.455-.409-1.529-1.582-2.19-1.571-.883.019-1.166,1.449-1.418,2.091C323.823,272.133,322.814,274.759,321.912,277.419Z" transform="translate(-215.585 -191.962)"/><path class="g" d="M356.975,399.663c.115.084.245.2.214.336s-.141.172-.241.229a2.968,2.968,0,0,0-1.1,1.491,41.644,41.644,0,0,0-1.659,4.392,19.248,19.248,0,0,0-3-3.5,8.479,8.479,0,0,1-2.312-2.649c0-.031,2-1.51,2.186-1.67.562-.5,1.269-1.888,1.85-2.194.657-.344,1.284,1.005,1.785,1.548A15.175,15.175,0,0,0,356.975,399.663Z" transform="translate(-234.816 -271.425)"/><path class="k" d="M412.353,164.19a1.876,1.876,0,0,0-.474-1.38,1.808,1.808,0,0,0-1.147-.317c-2.228-.073-4.533.3-6.635-.447-1.384-.493-2.565-1.441-3.914-2.03s-3.077-.745-4.166.245a5.969,5.969,0,0,0-1.338,3.02,17.7,17.7,0,0,1-3.3,6.544,4.06,4.06,0,0,1-2.255-2.217c-1.625-3.31-.826-7.262.329-10.771.382-1.177.806-2.343,1.231-3.5l.933-2.568a5.014,5.014,0,0,0,3.2-1.59l.4.975a5.083,5.083,0,0,0,2.867-1.013,1.554,1.554,0,0,0,1.816.569c.669-.195,1.246-.569,1.911-.764,1.777-.573,3.673.31,5.538.409a22.162,22.162,0,0,1,2.366.069c2.2.355,3.757,2.427,4.43,4.552.447,1.414.818,3.153,2.213,3.654.031.535-.917.638-1,1.147a.878.878,0,0,0,.115.485l1.28,2.748a3.181,3.181,0,0,1-1.85-.092C414.325,163.269,412.41,165.226,412.353,164.19Z" transform="translate(-259.111 -118.649)"/><path class="g" d="M616.754,185.4a50.165,50.165,0,0,1,1.529,6.394c.275,1.621.436,3.421-.493,4.774,3.539-5.324,7.235-10.809,12.613-14.245a11.517,11.517,0,0,1-3-8.883c.031-.321-4.414,1.357-4.755,1.548-1.559.868-2.989,1.946-4.51,2.874-.787.478-4.067,1.609-4.1,2.293,0,.44,1.3,1.785,1.548,2.247A17.442,17.442,0,0,1,616.754,185.4Z" transform="translate(-398.627 -133.881)"/><path class="d" d="M628.268,725.458a5.925,5.925,0,0,0-6.054-.459c-1.731.894-2.9,2.587-4.472,3.734-2.706,1.964-6.28,2.121-9.448,3.184a3.22,3.22,0,0,0-2.091,1.529,2.713,2.713,0,0,0,.157,2.129,5.511,5.511,0,0,0,2.622,2.7,10.962,10.962,0,0,0,4.633.73l13.683.161a112.043,112.043,0,0,1,12.613.623,4.72,4.72,0,0,0,2.889-.222c1.4-.764,1.559-2.7,1.453-4.292a39.392,39.392,0,0,0-2.676-11.772c-.164-.417-.382-.891-.845-.967a1.375,1.375,0,0,0-.91.291c-3.86,2.293-8.749,3.589-12.854,1.754" transform="translate(-393.694 -473.125)"/><path class="l" d="M668.984,500.344c-1.529,8.879-.531,18,1.189,26.843a46.747,46.747,0,0,0,1.25,5.214c.615,1.949,1.445,3.822,2.022,5.783,1.468,4.969,1.261,10.282,1.043,15.468l-1,23.6a17.115,17.115,0,0,0,.436,5.894c.24.765.535,1.72-.073,2.236a1.7,1.7,0,0,1-.806.31,12.481,12.481,0,0,1-8.027-1.2l-.271-23.843c-.084-7.35-.172-14.731-1.3-21.989-.9-5.771-2.458-11.466-2.561-17.307-.107-6.115,1.391-12.151,2.92-18.079.329-1.269,1.529-2.2,2.515-3.058a3.09,3.09,0,0,1,1.223-.741C668,499.347,668.7,499.958,668.984,500.344Z" transform="translate(-427.561 -335.31)"/><path class="m" d="M668.984,500.344c-1.529,8.879-.531,18,1.189,26.843a46.747,46.747,0,0,0,1.25,5.214c.615,1.949,1.445,3.822,2.022,5.783,1.468,4.969,1.261,10.282,1.043,15.468l-1,23.6a17.115,17.115,0,0,0,.436,5.894c.24.765.535,1.72-.073,2.236a1.7,1.7,0,0,1-.806.31,12.481,12.481,0,0,1-8.027-1.2l-.271-23.843c-.084-7.35-.172-14.731-1.3-21.989-.9-5.771-2.458-11.466-2.561-17.307-.107-6.115,1.391-12.151,2.92-18.079.329-1.269,1.529-2.2,2.515-3.058a3.09,3.09,0,0,1,1.223-.741C668,499.347,668.7,499.958,668.984,500.344Z" transform="translate(-427.561 -335.31)"/><path class="e" d="M606.754,423.149c-.566,2.328.634,4.74.5,7.132-.076,1.449-.646,2.894-.382,4.315s1.28,2.492,1.823,3.8a10.3,10.3,0,0,1,.619,3.394c.157,2.859.031,5.733-.076,8.581a84.41,84.41,0,0,0,.317,14.318,44.782,44.782,0,0,0,3.314,11.906A20.65,20.65,0,0,1,614.1,479.8a22.905,22.905,0,0,1,.421,3.111,31.613,31.613,0,0,0,2.7,9.827c.975,2.129,2.676,3.822,3.214,6.081.512,2.163.168,4.445.539,6.635.271,1.625.933,3.161,1.3,4.766a56.589,56.589,0,0,1,.707,6.345c.688,6.115,3.467,12.231,1.808,18.163a8.1,8.1,0,0,0-.615,3.62,4.519,4.519,0,0,1,.275,1.777,8.413,8.413,0,0,1-.7,1.372,2.522,2.522,0,0,0,.7,2.649,7.523,7.523,0,0,0,2.484,1.468c2.817,1.2,5.734,2.427,8.791,2.4a2.363,2.363,0,0,0,1.082-.2,2.678,2.678,0,0,0,1.055-1.483l1.567-3.876A1.663,1.663,0,0,0,639.56,541a2.722,2.722,0,0,0-.657-.612c-1.265-1.066-.979-3.058-.642-4.659a67.99,67.99,0,0,0,1.422-12.5c.168-8.378-1.212-16.707-2.588-24.974a52.014,52.014,0,0,0-1.911-8.512c-.952-2.752-2.355-5.4-2.125-8.26.245-3.088-.558-6.326,0-9.372s1.441-6.028,2.01-9.07a93.713,93.713,0,0,0,1.146-11.979,11.59,11.59,0,0,1,.983-4.778c.447-.849,1.1-1.575,1.6-2.4,1.292-2.137,1.5-4.785,2.733-6.956a24.337,24.337,0,0,0,1.819-3.035,8.474,8.474,0,0,0,.466-2.7,32.1,32.1,0,0,0-.382-6.9,44.89,44.89,0,0,0-21.022-4.877,24.937,24.937,0,0,0-8.241,1.3C611.669,421.647,609.391,422.95,606.754,423.149Z" transform="translate(-394.031 -285.864)"/><path class="d" d="M616.5,743.906c-1.124,1.4-1.047,3.4-1.766,5.045-.871,2-2.813,3.28-4.655,4.445l-11.467,7.262a3.2,3.2,0,0,0-1.529,1.563,2.506,2.506,0,0,0,.057,1.372,5.956,5.956,0,0,0,4.006,4.067,11.87,11.87,0,0,0,3.1.317l5.156.069a30.236,30.236,0,0,0,4.705-.183c1.429-.207,2.821-.615,4.242-.875,2.588-.47,5.248-.428,7.839-.883a41.454,41.454,0,0,0,4.693-1.212,18.73,18.73,0,0,0,5.386-2.259,2.8,2.8,0,0,0,1.036-1.116,3.3,3.3,0,0,0-.031-2.022l-2.461-10.817a6.451,6.451,0,0,0-.963-2.526,2.206,2.206,0,0,0-2.381-.9,5.042,5.042,0,0,0-.99.6,6.079,6.079,0,0,1-4.369.707,6.885,6.885,0,0,1-3.012-1.074c-.589-.485-.764-1.239-1.265-1.789a3.59,3.59,0,0,0-5.332.21Z" transform="translate(-388.111 -485.527)"/><circle class="g" cx="13.81" cy="13.81" r="13.81" transform="translate(207.15 22.413)"/><path class="k" d="M599.984,130.558c1.322-.741,1.322-2.878,2.676-3.589s2.89.524,3.757,1.77A16.276,16.276,0,0,1,609,134.8a3.053,3.053,0,0,0,.7,1.728,2.706,2.706,0,0,0,1.674.547q2.618.26,5.244.474a11.336,11.336,0,0,0,5.775-.554,4.205,4.205,0,0,0,1.735-1.437,6.458,6.458,0,0,0,.741-1.942,45.785,45.785,0,0,0,1.911-10.584,8.547,8.547,0,0,0-.814-4.319,8.773,8.773,0,0,1-1.2-2.27c-.172-.841.382-1.911,1.254-1.819a5.145,5.145,0,0,1-2.293-.436,1.762,1.762,0,0,1-.959-1.953c-1.942.248-3.356-1.67-4.869-2.912a1.319,1.319,0,0,0-.925-.382,3.342,3.342,0,0,0-.764.294c-.764.268-1.563-.241-2.347-.462-2.1-.589-4.774.833-6.333-.7.149.975-1.047,1.628-2.034,1.609s-2-.382-2.935-.054a1.911,1.911,0,0,1-1.093,2.737l.463,1.009a2.607,2.607,0,0,0-2.007,1.88,25.426,25.426,0,0,0-.26,6.922C599.725,123.09,600.607,130.218,599.984,130.558Z" transform="translate(-389.678 -93.525)"/><path class="i" d="M608.14,199.507c-6.937,7.8-8.7,18.782-10.182,29.121l-2.179,15.266c-.566,3.96-1.147,7.92-1.64,11.891a31.314,31.314,0,0,0-.291,8.191,44.687,44.687,0,0,0,1.605,6.265,59.071,59.071,0,0,1,2.293,16.623c.463-1.361,2.064-1.911,3.471-2.217a56.117,56.117,0,0,1,35.111,3.75c1.93-5.408,1.567-11.325,2.106-17.043.764-8.153,3.4-16.053,4.178-24.191.287-3.031.321-6.077.351-9.124a30.54,30.54,0,0,0-.42-6.685,28.062,28.062,0,0,0-2.752-6.88,179.291,179.291,0,0,0-10.442-17.742q-2.882-4.311-6.012-8.451-1.586-2.1-3.238-4.151c-1.066-1.326-1.529-2.477-3.222-1.682A29.91,29.91,0,0,0,608.14,199.507Z" transform="translate(-386.049 -145.484)"/><path class="g" d="M624.562,376.695a37.447,37.447,0,0,1-5.072-.161,11.006,11.006,0,0,0-3.746,0,3.9,3.9,0,0,0-1.456.715,1.1,1.1,0,0,0,.623,1.911l1.307.115a3.675,3.675,0,0,1,2.339.765,1.459,1.459,0,0,1,.474.921c.08.891-.692,1.376-1.384,1.747a10.961,10.961,0,0,0-2.7,1.8,3.739,3.739,0,0,0-1.12,2.293.443.443,0,0,0,.65.409c1.529-.764,2.526-3.031,4.2-2.653a6.812,6.812,0,0,0-3.692,2.84,1.713,1.713,0,0,0,2.294,2.42,7.585,7.585,0,0,0,.718-.478,17.658,17.658,0,0,0,3.031-3.15c-1.223,2.58-2.462,5.6-1.055,8.164a.814.814,0,0,0,.765.451c.443-.046.573-.463.646-.829a11.568,11.568,0,0,1,.868-3.478c1.345-2.439,4.663-2.676,7.189-3.864a11.529,11.529,0,0,0,5.944-7.667,5.894,5.894,0,0,0,.149-2.912c-.562-2.175-3.245-2.676-4.969-1.625C628.457,375.766,627.23,376.611,624.562,376.695Z" transform="translate(-398.497 -257.741)"/><path class="n" d="M631.527,239.5c2.676,4.132,7.32,6.459,11.3,9.361a9.472,9.472,0,0,1,2.5,2.377,8.157,8.157,0,0,1,.94,5.351,33.9,33.9,0,0,1-1.8,7.033l-1.67,4.988c-1.059,3.165-2.152,6.395-4.166,9.055a3.821,3.821,0,0,0-1.093,2.247,2.9,2.9,0,0,0,.489,1.368,9.2,9.2,0,0,0,5.844,4.174,4.457,4.457,0,0,0,2.2,0,5.954,5.954,0,0,0,2.526-1.942c3.44-3.8,6.88-7.644,9.364-12.1a63.285,63.285,0,0,0,5.217-13.955,29.374,29.374,0,0,0,1.147-5.4,19.738,19.738,0,0,0-2.094-9.987,49.269,49.269,0,0,0-5.6-8.653,60.213,60.213,0,0,0-6.555-7.522c-4.158-3.887-9.246-6.173-14.811-3.967-3.929,1.559-5.4,4.812-5.752,8.978A13.661,13.661,0,0,0,631.527,239.5Z" transform="translate(-408.145 -163.327)"/><path class="e" d="M635.141,236.824c2.676,4.132,7.323,6.459,11.3,9.361a9.51,9.51,0,0,1,2.488,2.393,8.157,8.157,0,0,1,.94,5.351,33.906,33.906,0,0,1-1.808,7.033l-1.67,4.969c-1.059,3.165-2.152,6.391-4.166,9.055a3.826,3.826,0,0,0-1.089,2.247,2.834,2.834,0,0,0,.489,1.365,9.2,9.2,0,0,0,5.84,4.178,4.474,4.474,0,0,0,2.2,0,5.969,5.969,0,0,0,2.526-1.938c3.44-3.8,6.88-7.644,9.364-12.1a63.256,63.256,0,0,0,5.217-13.959,29.086,29.086,0,0,0,1.147-5.4,19.8,19.8,0,0,0-2.091-9.991,48.94,48.94,0,0,0-5.6-8.653,60.258,60.258,0,0,0-6.571-7.48c-4.154-3.883-9.242-6.173-14.807-3.964-3.933,1.559-5.4,4.808-5.756,8.978A13.671,13.671,0,0,0,635.141,236.824Z" transform="translate(-410.368 -161.699)"/><path class="l" d="M831.831,607a14.147,14.147,0,0,1-.306,2.966c-.038.183-.081.382-.123.539-1.085,4.353-4.147,7.537-7.8,7.74h-.382c-3.864,0-7.132-3.333-8.21-7.923-.031-.122-.057-.245-.084-.382a14.129,14.129,0,0,1-.306-2.966c0-6.219,3.849-11.256,8.6-11.256S831.831,600.8,831.831,607Z" transform="translate(-522.542 -394.78)"/><path class="n" d="M831.856,607.034A14.146,14.146,0,0,1,831.55,610c-.038.183-.08.382-.122.539h-.382a17.487,17.487,0,0,1-2.813-.382,17.19,17.19,0,0,1-2.507.573,17.517,17.517,0,0,1-1.965.183H823.1a17.73,17.73,0,0,1-2.356-.157,17.28,17.28,0,0,1-3.694-.917,17.41,17.41,0,0,1-2,.535c-.031-.122-.057-.245-.084-.382a14.146,14.146,0,0,1-.306-2.966c0-6.219,3.849-11.256,8.6-11.256S831.856,600.827,831.856,607.034Z" transform="translate(-522.566 -394.811)"/><path class="o" d="M816.878,529.426A17.406,17.406,0,0,0,815,521.548l-10.113,3.146,8.879-5.221a17.48,17.48,0,0,0-13.133-7.484,17.457,17.457,0,0,0-1.365-1.8l-14.525,4.522,11.914-7.006a17.479,17.479,0,0,0-27.52,9.322l12.441,14.322-13.5-9.762a17.483,17.483,0,0,0,15.644,30.845,17.551,17.551,0,0,0,11.192.31,17.5,17.5,0,0,0,21.259-17.07c0-.382,0-.764-.038-1.146A17.444,17.444,0,0,0,816.878,529.426Z" transform="translate(-489.241 -338.171)"/><path class="n" d="M816.534,572.37a46.59,46.59,0,0,0-16.183-.207c-6.073,1.005-12.281,3.215-18.22,1.6-3.486-.948-6.5-3.142-9.9-4.361A18.8,18.8,0,0,0,762,568.793a17.49,17.49,0,0,0,21.668,23.338,17.552,17.552,0,0,0,11.191.31,17.5,17.5,0,0,0,21.259-17.07,11.462,11.462,0,0,0-.038-1.147A17.215,17.215,0,0,0,816.534,572.37Z" transform="translate(-489.199 -377.875)"/></svg>