<svg xmlns="http://www.w3.org/2000/svg" width="42" height="48" viewBox="0 0 42 48"><defs><style>.a{fill:#cbdff8;}.b{fill:#006ccb;}</style></defs><g transform="translate(0.289 -0.14)"><rect class="a" width="42" height="48" transform="translate(-0.289 0.14)"/><path class="b" d="M34.031,28.875H22.687v-19a5.152,5.152,0,0,0,2.8-3.06l8.508-2.853a1.031,1.031,0,0,0,.65-1.306L33.985.7a1.031,1.031,0,0,0-1.306-.65L25.079,2.6a5.141,5.141,0,0,0-9.61,2.554,5.1,5.1,0,0,0,.065.646L7.259,8.577a1.031,1.031,0,0,0-.65,1.306l.655,1.955a1.031,1.031,0,0,0,1.306.65l9.155-3.07a5.187,5.187,0,0,0,.837.459V31.968A1.031,1.031,0,0,0,19.594,33H34.032a1.031,1.031,0,0,0,1.031-1.031V29.906A1.032,1.032,0,0,0,34.031,28.875Zm7.217-9.281c0-1.043.086-.563-5.482-11.7a3.1,3.1,0,0,0-5.535,0c-5.615,11.231-5.481,10.689-5.481,11.7h0c0,2.848,3.694,5.156,8.25,5.156s8.25-2.309,8.25-5.156ZM28.359,18.562,33,9.281l4.641,9.281ZM11.017,16.145a3.1,3.1,0,0,0-5.535,0C-.133,27.376,0,26.833,0,27.843H0C0,30.691,3.694,33,8.25,33s8.25-2.309,8.25-5.156h0c0-1.043.086-.563-5.482-11.7ZM3.609,26.812,8.25,17.531l4.641,9.281Z" transform="translate(0.071 7.333)"/></g></svg>