<svg xmlns="http://www.w3.org/2000/svg" width="128.166" height="64.13" viewBox="0 0 128.166 64.13"><path d="M320.673,279.566H289.245v-.648H274.995v.648H243.437a2.126,2.126,0,0,0-2.126,2.126v43.034a2.126,2.126,0,0,0,2.126,2.126h77.236a2.126,2.126,0,0,0,2.126-2.126V281.692a2.126,2.126,0,0,0-2.126-2.126Z" transform="translate(-220.557 -267.52)" fill="#3f3d56"/><rect width="75.787" height="42.752" transform="translate(23.605 15.804)" opacity="0.1"/><circle cx="0.777" cy="0.777" r="0.777" transform="translate(60.656 13.083)" fill="#45bf55"/><path d="M301.354,658.212h-7.4v-.533a.106.106,0,0,0-.106-.106h-2.536a.106.106,0,0,0-.106.106v.533h-1.585v-.533a.106.106,0,0,0-.106-.106h-2.536a.106.106,0,0,0-.106.106v.533h-1.585v-.533a.106.106,0,0,0-.106-.106h-2.536a.106.106,0,0,0-.106.106v.533h-1.585v-.533a.106.106,0,0,0-.106-.106H278.32a.106.106,0,0,0-.106.106v.533h-1.585v-.533a.106.106,0,0,0-.106-.106h-2.536a.106.106,0,0,0-.106.106v.533H272.3v-.533a.106.106,0,0,0-.106-.106h-2.536a.106.106,0,0,0-.106.106v.533h-1.585v-.533a.106.106,0,0,0-.106-.106H247.995a.106.106,0,0,0-.106.106v.533H246.3v-.533a.106.106,0,0,0-.106-.106h-2.536a.106.106,0,0,0-.106.106v.533h-1.585v-.533a.106.106,0,0,0-.106-.106h-2.536a.106.106,0,0,0-.106.106v.533H237.64v-.533a.106.106,0,0,0-.106-.106H235a.106.106,0,0,0-.106.106v.533h-1.585v-.533a.106.106,0,0,0-.106-.106h-2.536a.106.106,0,0,0-.106.106v.533h-1.585v-.533a.106.106,0,0,0-.106-.106h-2.536a.106.106,0,0,0-.106.106v.533h-1.585v-.533a.106.106,0,0,0-.106-.106H222a.106.106,0,0,0-.106.106v.533h-4.86a2.536,2.536,0,0,0-2.536,2.536v1.147a2.536,2.536,0,0,0,2.536,2.536h84.318a2.536,2.536,0,0,0,2.536-2.536v-1.147a2.536,2.536,0,0,0-2.536-2.536Z" transform="translate(-196.984 -600.434)" fill="#3f3d56"/><rect width="30.683" height="32.253" transform="translate(46.17 20.656)" fill="#45bf55"/><path d="M523.483,339.786s-2.616-.934-4.3,2.8a73.7,73.7,0,0,1-4.3,7.849l1.5.374s.374-2.616,1.308-2.99l-.374,3.364s11.213,3.924,16.258-.374l-.187-1.308s.747.187.747,1.308l.561-.561a10.043,10.043,0,0,0-2.242-2.616,6.593,6.593,0,0,1-1.614-4.015,4.985,4.985,0,0,0-7.356-3.834Z" transform="translate(-461.085 -320.469)" fill="#2f2e41"/><path d="M453.291,249.5,452.2,238.142s-2.174-6.161,1.087-5.677,1.329,5.194,1.329,5.194l1.812,11.838Z" transform="translate(-405.35 -226.653)" fill="#ffb9b9"/><circle cx="4.349" cy="4.349" r="4.349" transform="translate(59.417 22.602)" fill="#ffb9b9"/><path d="M535.869,423.661s-.242,4.953-1.45,5.315-4.59,4.349-3.02,5.557,10.63.362,10.63.362l-.846-6.281a2.463,2.463,0,0,1-.362-3.624Z" transform="translate(-475.245 -394.777)" fill="#ffb9b9"/><path d="M522.12,470.79H505.039c.062-1.093.216-2.637.414-4.334.06-.515.124-1.045.191-1.58.586-4.717,1.367-9.9,1.367-9.9l.205-.475,2.09-4.84.022.008,2.757,1.079.1.464.748,3.522,4.838-3.905,4.464-.7.3-.047.544,5.134s-.024,1.148-.05,2.782c-.029,1.878-.06,4.4-.058,6.562,0,1.033.01,1.983.03,2.742.017.639.042,1.143.077,1.444A2.741,2.741,0,0,1,522.12,470.79Z" transform="translate(-452.427 -417.639)" fill="#3f3d56"/><path d="M398.018,184.824l-.121-.725-3.382-4.107-1.933-6.885-4.711,1.812,3.382,8.335,4.832,6.161Z" transform="translate(-341.017 -152.196)" fill="#3f3d56"/><path d="M548.717,367.081s1.495-2.056,2.8-2.429,1.495-2.243,1.495-2.243,3.364,3.738,5.419,3.924.187-4.485.187-4.485l-3.738-.934-3.551.374-2.8,1.869Z" transform="translate(-490.665 -339.61)" fill="#2f2e41"/><path d="M524.872,569.436l-11.557.458s-6.368,1.458-5.517-1.727,5.312-.728,5.312-.728l11.968-.45Z" transform="translate(-454.784 -520.392)" fill="#ffb9b9"/><path d="M596.669,453.077l1.087-.846s1.812-.966,2.174,2.416,3.02,14.616.362,14.737-9.422.242-9.422.242l.725-3.745,5.557-.362Z" transform="translate(-527.891 -419.784)" fill="#3f3d56"/><path d="M531.048,318.607l-.362,6.885-5.315,1.087,4.832-1.933Z" transform="translate(-461.908 -280.12)" opacity="0.15"/><rect width="29.475" height="7.731" transform="translate(34.657)" fill="#45bf55"/><rect width="128.166" height="0.242" transform="translate(0 63.889)" fill="#3f3d56"/><path d="M994.981,627.964a7.9,7.9,0,0,1,1.826,4.6,6.8,6.8,0,0,1-6.289-6.748A7.905,7.905,0,0,1,994.981,627.964Z" transform="translate(-879.262 -572.514)" fill="#45bf55"/><path d="M1039.212,635.182a7.9,7.9,0,0,1-4.6,1.826,6.8,6.8,0,0,1,6.748-6.289A7.9,7.9,0,0,1,1039.212,635.182Z" transform="translate(-918.027 -576.824)" fill="#45bf55"/><path d="M1003.031,680.916h-6.854a.7.7,0,0,1-.63-.394l-1.492-3.068a.7.7,0,0,1,.63-1.008h9.839a.7.7,0,0,1,.63,1.008l-1.492,3.068A.7.7,0,0,1,1003.031,680.916Z" transform="translate(-882.308 -617.027)" fill="#3f3d56"/><path d="M97.978,627.964a7.9,7.9,0,0,1,1.826,4.6,6.8,6.8,0,0,1-6.289-6.748A7.9,7.9,0,0,1,97.978,627.964Z" transform="translate(-90.615 -572.514)" fill="#45bf55"/><path d="M97.031,680.916H90.178a.7.7,0,0,1-.63-.394l-1.492-3.068a.7.7,0,0,1,.63-1.008h9.838a.7.7,0,0,1,.63,1.008l-1.492,3.068A.7.7,0,0,1,97.031,680.916Z" transform="translate(-85.751 -617.027)" fill="#3f3d56"/><rect width="21.985" height="1.516" transform="translate(38.401 3.107)" fill="#fff"/></svg>