<svg xmlns="http://www.w3.org/2000/svg" width="789.25" height="63.998" viewBox="0 0 789.25 63.998"><g transform="translate(-282 -1320)" opacity="0.3"><path d="M38.75,30.836V20.322l-6.182-2.838c-6.853,8.154-9.415,29.393-26.006,29.393A6.562,6.562,0,1,0,6.562,60C31.481,60,50,45.6,55.685,35.352l-4.342-4.516ZM54.112,15.793C57.881,8.78,55.92,3.1,53.745.353a.937.937,0,0,0-1.4-.069l-2.684,2.7a.945.945,0,0,0-.1,1.2c.8,1.214,2,4.113-.164,8.475A16.551,16.551,0,0,0,33.75,13.9l8.75,4.018v9.169h10.44l6.408,6.666A18.308,18.308,0,0,0,60,29.145a18.047,18.047,0,0,0-5.888-13.352Z" transform="translate(282 1319.996)"/><path d="M61.563,31.563a30,30,0,1,1-30-30A30,30,0,0,1,61.563,31.563ZM44.427,27.289c.6-3.992-2.442-6.138-6.6-7.569l1.348-5.408-3.292-.82-1.313,5.265c-.865-.216-1.754-.419-2.637-.621l1.322-5.3-3.29-.82-1.349,5.406c-.716-.163-1.42-.324-2.1-.494l0-.017-4.54-1.133L21.1,19.293s2.442.56,2.391.594A1.751,1.751,0,0,1,25.029,21.8l-1.536,6.16a2.73,2.73,0,0,1,.342.11l-.348-.086-2.153,8.63a1.2,1.2,0,0,1-1.509.782c.033.048-2.393-.6-2.393-.6L15.8,40.567l4.284,1.068c.8.2,1.578.409,2.347.606L21.067,47.71l3.288.82L25.7,43.119q1.308.355,2.623.681l-1.345,5.386,3.292.82,1.362-5.459c5.613,1.062,9.835.634,11.611-4.443,1.432-4.088-.071-6.445-3.025-7.983,2.151-.5,3.771-1.91,4.2-4.833ZM36.906,37.835c-1.017,4.087-7.9,1.878-10.132,1.324l1.808-7.246C30.813,32.469,37.969,33.572,36.906,37.835Zm1.018-10.6C37,30.948,31.267,29.059,29.409,28.6l1.639-6.572C32.906,22.487,38.891,23.351,37.924,27.23Z" transform="translate(426.125 1321.998)"/><path d="M54.208,23.344c0-.823-.573-1.26-1.625-1.26h-.51v2.594h.49C53.635,24.677,54.208,24.219,54.208,23.344ZM55,6.25H5a5,5,0,0,0-5,5V47.917a5,5,0,0,0,5,5H55a5,5,0,0,0,5-5V11.25A5,5,0,0,0,55,6.25ZM50.406,20.719c2.354,0,5.51-.427,5.51,2.542a2.264,2.264,0,0,1-1.948,2.417l2.688,3.583H54.615L52.3,25.844h-.229V29.26H50.406Zm-5.823.01H49.3v1.458H46.25v1.9H49.2v1.438H46.25v2.313H49.3v1.438H44.583Zm-7.156,0,2.281,5.75,2.313-5.75h1.823l-3.7,8.771h-.9L35.6,20.729ZM31.6,20.417a4.646,4.646,0,1,1-4.646,4.646A4.643,4.643,0,0,1,31.6,20.417Zm-5.135.635v1.979a2.78,2.78,0,0,0-4.875,1.979,2.783,2.783,0,0,0,4.875,2V28.99a4.491,4.491,0,1,1,0-7.937ZM16.344,27.958c1.188,0,2.333-1.594-.344-2.542-1.562-.573-2.1-1.187-2.1-2.365,0-2.417,3.188-3.271,5.177-1.49L18.2,22.688c-1.083-1.208-2.594-.646-2.594.26,0,.458.281.719,1.281,1.073,1.9.688,2.458,1.3,2.458,2.667,0,3.073-4.042,3.9-5.9,1.177l1.073-1.031A1.973,1.973,0,0,0,16.344,27.958ZM5.771,29.271H3.333V20.729H5.771a4.282,4.282,0,1,1,0,8.542Zm7.031,0H11.135V20.729H12.8Zm43.865,18.75A1.574,1.574,0,0,1,55.1,49.583H13.333c19.75-3.708,39.865-14.5,43.333-16.667ZM7.719,22.875a3.033,3.033,0,0,0-2.281-.687H5v5.646h.438a3.213,3.213,0,0,0,2.281-.667,2.92,2.92,0,0,0,.927-2.156A2.841,2.841,0,0,0,7.719,22.875Z" transform="translate(573.5 1323.998)"/><path d="M58.861,18.715,31.44.434a2.605,2.605,0,0,0-2.879,0L1.138,18.715A2.621,2.621,0,0,0,0,20.858V39.139a2.621,2.621,0,0,0,1.138,2.143L28.56,59.566a2.605,2.605,0,0,0,2.879,0L58.862,41.282A2.621,2.621,0,0,0,60,39.139V20.858A2.621,2.621,0,0,0,58.861,18.715ZM32.578,7.4l20.19,13.46-9.007,6.027L32.578,19.418Zm-5.156,0v12.02L16.239,26.885,7.232,20.858ZM5.156,25.68,11.618,30,5.156,34.318ZM27.422,52.6,7.232,39.139l9.007-6.027,11.183,7.467ZM30,36.092,20.893,30,30,23.9,39.107,30ZM32.578,52.6V40.579l11.183-7.467,9.007,6.027ZM54.844,34.318,48.382,30l6.462-4.319Z" transform="translate(719.25 1323.998)"/><path d="M33.75,20.3V18.125h1.875A1.874,1.874,0,0,0,37.5,16.25V14.375A1.874,1.874,0,0,0,35.625,12.5H24.375A1.874,1.874,0,0,0,22.5,14.375V16.25a1.874,1.874,0,0,0,1.875,1.875H26.25V20.3A26.234,26.234,0,0,0,3.75,46.25h52.5A26.234,26.234,0,0,0,33.75,20.3ZM58.125,50H1.875A1.874,1.874,0,0,0,0,51.875v3.75A1.874,1.874,0,0,0,1.875,57.5h56.25A1.874,1.874,0,0,0,60,55.625v-3.75A1.874,1.874,0,0,0,58.125,50Z" transform="translate(865.25 1310.998)"/><path d="M59.826,29.979A14.991,14.991,0,0,1,45.005,15,14.991,14.991,0,0,1,30.022.177a15.465,15.465,0,0,0-9.342,1.5l-8.1,4.127a15.5,15.5,0,0,0-6.772,6.775L1.693,20.653a15.544,15.544,0,0,0-1.5,9.486l1.416,8.938a15.53,15.53,0,0,0,4.355,8.55l6.418,6.417A15.473,15.473,0,0,0,20.9,58.388l8.989,1.424a15.459,15.459,0,0,0,9.437-1.5l8.1-4.126A15.5,15.5,0,0,0,54.2,47.415l4.113-8.072A15.537,15.537,0,0,0,59.826,29.979Zm-39.2,13.146a3.75,3.75,0,1,1,3.75-3.75A3.75,3.75,0,0,1,20.625,43.125Zm3.75-18.75a3.75,3.75,0,1,1,3.75-3.75A3.75,3.75,0,0,1,24.375,24.375Zm18.75,15a3.75,3.75,0,1,1,3.75-3.75A3.75,3.75,0,0,1,43.125,39.375Z" transform="translate(1011.251 1323.996)"/></g></svg>