<svg xmlns="http://www.w3.org/2000/svg" width="310" height="282" viewBox="0 0 310 282"><g transform="translate(-167 -879)"><g transform="translate(222 929.483)"><g transform="translate(0 2.517)" fill="none" stroke="#45bf55" stroke-width="5"><circle cx="101.5" cy="101.5" r="101.5" stroke="none"/><circle cx="101.5" cy="101.5" r="99" fill="none"/></g><rect width="17" height="13" transform="translate(93 -0.483)" fill="#fff"/><rect width="16.537" height="8.704" transform="translate(177.226 158.915) rotate(-60)" fill="#fff"/><rect width="16.537" height="8.704" transform="matrix(0.574, 0.819, -0.819, 0.574, 20.483, 151.114)" fill="#fff"/><ellipse cx="82" cy="81.5" rx="82" ry="81.5" transform="translate(20 22.517)" fill="#45bf55"/></g><path d="M10.009,0,20.018,12.185H0Z" transform="matrix(0.052, 0.999, -0.999, 0.052, 321.994, 924.149)" fill="#239d33"/><path d="M10.009,0,20.018,12.185H0Z" transform="translate(399.589 1076.755) rotate(30)" fill="#239d33"/><path d="M10.009,0,20.018,12.185H0Z" transform="translate(233.1 1093.545) rotate(-34)" fill="#239d33"/><path d="M59.837-18H33.385V57.734H12.431V-18H-13.892V-35.01H59.837Z" transform="translate(304.881 1024.617)" fill="#f8efef"/><text transform="translate(198 981)" fill="#333232" font-size="16" font-family="SegoeUI-Bold, Segoe UI" font-weight="700"><tspan x="-30.844" y="0">Connect</tspan></text><text transform="translate(449 981)" fill="#333232" font-size="16" font-family="SegoeUI-Bold, Segoe UI" font-weight="700"><tspan x="-27.637" y="0">Engage</tspan></text><text transform="translate(324 1157)" fill="#333232" font-size="16" font-family="SegoeUI-Bold, Segoe UI" font-weight="700"><tspan x="-20.109" y="0">Grow</tspan></text><g transform="translate(309 879)" fill="#fff" stroke="#45bf55" stroke-width="1"><circle cx="15" cy="15" r="15" stroke="none"/><circle cx="15" cy="15" r="14.5" fill="none"/></g><text transform="translate(324 919)" fill="#45bf55" font-size="10" font-family="SegoeUI-Semibold, Segoe UI" font-weight="600"><tspan x="-21.338" y="0">Shoppers</tspan></text><g transform="translate(431 1055)" fill="none" stroke="#45bf55" stroke-width="1"><circle cx="15" cy="15" r="15" stroke="none"/><circle cx="15" cy="15" r="14.5" fill="none"/></g><text transform="translate(446 1095)" fill="#45bf55" font-size="10" font-family="SegoeUI-Semibold, Segoe UI" font-weight="600"><tspan x="-15.566" y="0">Brands</tspan></text><g transform="translate(187 1054)" fill="none"><path d="M15,0A15,15,0,1,1,0,15,15,15,0,0,1,15,0Z" stroke="none"/><path d="M 15 1 C 11.26046943664551 1 7.744760513305664 2.456249237060547 5.100509643554688 5.100509643554688 C 2.456249237060547 7.744760513305664 1 11.26046943664551 1 15 C 1 18.73952865600586 2.456249237060547 22.25523948669434 5.100509643554688 24.89949035644531 C 7.744760513305664 27.54375076293945 11.26046943664551 29 15 29 C 18.73952865600586 29 22.25523948669434 27.54375076293945 24.89949035644531 24.89949035644531 C 27.54375076293945 22.25523948669434 29 18.73952865600586 29 15 C 29 11.26046943664551 27.54375076293945 7.744760513305664 24.89949035644531 5.100509643554688 C 22.25523948669434 2.456249237060547 18.73952865600586 1 15 1 M 15 0 C 23.28426933288574 0 30 6.715730667114258 30 15 C 30 23.28426933288574 23.28426933288574 30 15 30 C 6.715730667114258 30 0 23.28426933288574 0 15 C 0 6.715730667114258 6.715730667114258 0 15 0 Z" stroke="none" fill="#45bf55"/></g><text transform="translate(201 1094)" fill="#45bf55" font-size="10" font-family="SegoeUI-Semibold, Segoe UI" font-weight="600"><tspan x="-16.919" y="0">C-Store</tspan></text><path d="M7.528,8.127l.527-3.5H5.313l-1.146,3a1.052,1.052,0,0,0-.054.333A1.56,1.56,0,0,0,5.827,9.294a1.626,1.626,0,0,0,1.7-1.167Zm2.585,1.167a1.56,1.56,0,0,0,1.714-1.333c0-.027,0-.055,0-.081l-.339-3.253H8.742L8.4,7.877c0,.027,0,.055,0,.083a1.56,1.56,0,0,0,1.714,1.333Zm3.333.7v2.636H6.78V10a2.805,2.805,0,0,1-.953.165,2.749,2.749,0,0,1-.381-.033v4.233a.935.935,0,0,0,.932.933h7.468a.937.937,0,0,0,.933-.933V10.129a2.864,2.864,0,0,1-.381.033A2.77,2.77,0,0,1,13.446,9.991ZM16.06,7.627l-1.147-3H12.17L12.7,8.122a1.622,1.622,0,0,0,1.7,1.172,1.56,1.56,0,0,0,1.714-1.333A1.071,1.071,0,0,0,16.06,7.627Z" transform="translate(190.887 1060.373)" fill="#45bf55"/><path d="M10.954,3.341a1.361,1.361,0,0,0,1.482-1.2A1.331,1.331,0,0,0,11.173.725,1.358,1.358,0,0,0,9.691,1.93,1.334,1.334,0,0,0,10.954,3.341Zm5.681,10.586-.458-3.962h-.744a3.113,3.113,0,0,0-.017-.567c-.022-.205-.087-.355-.193-.4a.569.569,0,0,0,.156-.342.581.581,0,0,0-.244-.52L13.243,6.889,11.849,4.266a1.485,1.485,0,0,0-1.094-.66,1.56,1.56,0,0,0-.966.273L7.025,6.019a.547.547,0,0,0-.191.286L6.19,8.9l-.049.077H6.136a.291.291,0,0,0-.244.239,1.9,1.9,0,0,0-.081.453v.3H5.094l-.458,3.962H6.487l-.812,1.3a1.05,1.05,0,0,0-.126.38.905.905,0,0,0,.856.959.967.967,0,0,0,.874-.435l1.37-2.2H8.83L8.8,13.684l.38-.611a1.987,1.987,0,0,0,.187-.377l.464-2.017,1.981,2.071.622,3.114a.945.945,0,0,0,.84.7.919.919,0,0,0,1.005-.815l-.006-.181-.325-1.643ZM6.127,9.632c.018-.156.077-.245.18-.245h.039A.624.624,0,0,0,7.3,9.4a.224.224,0,0,1,.065.108A1.113,1.113,0,0,1,7.4,9.8a1.426,1.426,0,0,1-.006.161H6.118a2.573,2.573,0,0,1,.01-.333Zm1.892.333H7.628A3.141,3.141,0,0,0,7.613,9.4a.585.585,0,0,0-.144-.372L7.957,6.9l.963-.745Zm7.184,0H13.923a2.291,2.291,0,0,1,.01-.333c.017-.156.077-.245.18-.245.148,0,.283,0,.4-.007s.283-.01.489-.01c.079,0,.132.047.162.142a1.075,1.075,0,0,1,.044.293l-.005.161Zm-4.142-.754.621-2.62.522.985a.673.673,0,0,0,.155.176l1.864,1.223h-.282c-.108,0-.148.1-.185.239a1.928,1.928,0,0,0-.021.453v.3H12.9l-.135,1.165-1.7-1.919Z" transform="translate(313.522 884.339)" fill="#45bf55"/><path d="M.3,10.8c0,1.937.83,2.769,2.1,3.173V15.6H9.6V13.968c1.27-.4,2.1-1.238,2.1-3.173a9.933,9.933,0,0,0-1-3.846L6.938,10.712a.3.3,0,0,1-.424,0l-.424-.424a.3.3,0,0,1,0-.424l4.046-4.047A12.663,12.663,0,0,0,7.477,2.344,1.183,1.183,0,0,0,8.4,1.2,1.2,1.2,0,0,0,7.2,0H4.8A1.2,1.2,0,0,0,3.6,1.2a1.185,1.185,0,0,0,.923,1.144C2.543,4.005.3,8.044.3,10.8Zm11.1,6H.6a.6.6,0,0,0-.6.6v1.2a.6.6,0,0,0,.6.6H11.4a.6.6,0,0,0,.6-.6V17.4A.6.6,0,0,0,11.4,16.8Z" transform="translate(440.192 1060.339)" fill="#45bf55"/></g></svg>