<svg xmlns="http://www.w3.org/2000/svg" xmlns:xlink="http://www.w3.org/1999/xlink" width="101.628" height="84.331" viewBox="0 0 101.628 84.331"><defs><linearGradient id="a" x1="0.505" y1="1.007" x2="0.505" gradientUnits="objectBoundingBox"><stop offset="0" stop-color="gray" stop-opacity="0.251"/><stop offset="0.54" stop-color="gray" stop-opacity="0.122"/><stop offset="1" stop-color="gray" stop-opacity="0.102"/></linearGradient></defs><g transform="translate(-282 -122.601)"><g transform="translate(312.88 122.601)"><rect width="1.238" height="10.202" rx="0.619" transform="translate(40.744 19.092)" fill="#3f3d56"/><rect width="41.411" height="84.162" rx="20.706" fill="#3f3d56"/><path d="M497.726,199h-4.75v.571a2.708,2.708,0,0,1-2.709,2.708H475.16a2.708,2.708,0,0,1-2.709-2.708V199H468a3.289,3.289,0,0,0-3.289,3.289v73.206A3.289,3.289,0,0,0,468,278.784h29.723a3.289,3.289,0,0,0,3.289-3.289v-73.2A3.289,3.289,0,0,0,497.726,199Z" transform="translate(-462.079 -196.808)" fill="#fff"/><rect width="5.783" height="1.174" rx="0.587" transform="translate(16.711 2.513)" fill="#e6e8ec"/><circle cx="0.666" cy="0.666" r="0.666" transform="translate(23.369 2.434)" fill="#e6e8ec"/><circle cx="7.834" cy="7.834" r="7.834" transform="translate(13.125 35.281)" fill="#fff"/><path d="M541.15,420.081a10.47,10.47,0,1,1-10.47-10.471A10.47,10.47,0,0,1,541.15,420.081Zm-11.68,5.542,7.767-7.767a.675.675,0,0,0,0-.956l-.956-.949a.673.673,0,0,0-.954,0l-6.335,6.335-2.958-2.965a.677.677,0,0,0-.956,0l-.956.961a.678.678,0,0,0,0,.956l4.391,4.39a.675.675,0,0,0,.956,0Z" transform="translate(-509.888 -378.06)" fill="#45bf55"/></g><g transform="translate(285.389 133.651)"><rect width="0.624" height="3.019" rx="0.312" transform="translate(28.421 5.542)" fill="#3f3d56"/><rect width="0.703" height="5.255" rx="0.352" transform="translate(28.399 11.07)" fill="#3f3d56"/><rect width="0.669" height="5.3" rx="0.335" transform="translate(28.41 18.164)" fill="#3f3d56"/><path d="M377.46,474.88a.116.116,0,0,0,.137.018A.486.486,0,0,1,377.46,474.88Z" transform="translate(-357.345 -442.702)" fill="url(#a)"/><path d="M368.756,491l-.135.736-.1.563-.19,1.03-1.839,1.287s-.166-.142-.439-.365a32.041,32.041,0,0,0-3.5-2.562,3.919,3.919,0,0,0-.962-.443Z" transform="translate(-343.465 -456.798)" fill="#feb9b9"/><path d="M357.043,481.257s2.144.368,2.269-.548-1.1-1.41-2.145-1.472-7.293.368-7.293.368-1.1,1.471,2.88,1.717Z" transform="translate(-333.101 -446.507)" fill="#3f3d56"/><rect width="11.215" height="13.298" transform="translate(17.415 4.539)" fill="#2f2e41"/><rect width="11.215" height="13.298" transform="translate(17.415 4.599)" opacity="0.1"/><path d="M221.56,428.374a1.8,1.8,0,0,0-.683.483,27.1,27.1,0,0,0-2.749,3.745c-2.07-2.465.221-4.413,1.2-5.083.237-.162.4-.251.4-.251Z" transform="translate(-217.289 -401.071)" fill="#feb9b9"/><path d="M376.3,288.22s.552,3.861,2.451,4.78-2.451,2.637-2.451,2.637l-5.944-2.208s3.371-1.1,2.7-4.352Z" transform="translate(-351.136 -279.484)" fill="#feb9b9"/><path d="M316.984,473.16l-.134.733-.109.565-.19,1.03-1.839,1.286s-.166-.141-.439-.364a31.9,31.9,0,0,0-3.5-2.562,3.893,3.893,0,0,0-.962-.443Z" transform="translate(-298.19 -441.198)" fill="#feb9b9"/><path d="M304.868,463.776s1.924.014,2.04-.9-1.049-1.41-2.04-1.472-7.014.4-7.014.4-.854,1.734,2.934,1.98Z" transform="translate(-287.664 -430.91)" fill="#2f2e41"/><path d="M358.393,478.276l-.251-.126-.226-.285-2.965-3.76v.065c-.02.628-.234,5.6-1.9,6.063-1.777.49-3.921.613-4.9-2.7s-2.763-10.54-4.6-10.97l2.728-2.237a16.34,16.34,0,0,1,2.542,4.134c-.028-.126-1.275-5.953-.251-6.984h8.949s1.382,3.935,2.328,5.884a66.079,66.079,0,0,1,2.556,7.513A2.875,2.875,0,0,1,358.393,478.276Z" transform="translate(-327.699 -430.987)" fill="#3f3d56"/><path d="M390.172,410.489c-1.382.818-7.446.485-9.419.352l-.538-.039c-.058,0,.009-.033.009-.033l.055-.556,1.471-3.737,7.874-4.566a6.852,6.852,0,0,0-.2,2.06A47.824,47.824,0,0,0,390.172,410.489Z" transform="translate(-359.733 -378.895)" opacity="0.1"/><path d="M389.715,409.046c-1.382.818-7.446.485-9.419.352l-.538-.038-.089-.008.1-.025.485-.126,1.041-4.167,7.874-4.565a6.855,6.855,0,0,0-.2,2.06A47.807,47.807,0,0,0,389.715,409.046Z" transform="translate(-359.276 -377.637)" fill="#efefef"/><path d="M389.548,402.527c-1.6.369-5.125,1.453-6.479,4.069a6.728,6.728,0,0,1-2.193,2.8l-.538-.038a.3.3,0,0,0,.009-.033l.485-.126,1.041-4.167,7.874-4.565A6.884,6.884,0,0,0,389.548,402.527Z" transform="translate(-359.862 -377.637)" opacity="0.1"/><path d="M233.9,427.29l1.839,1.1a1.8,1.8,0,0,0-.683.483c-.153-.447-1.115-1.071-1.552-1.337C233.738,427.379,233.9,427.29,233.9,427.29Z" transform="translate(-231.465 -401.089)" opacity="0.1"/><path d="M376.856,471.707a.109.109,0,0,1-.126-.018A.435.435,0,0,0,376.856,471.707Z" transform="translate(-356.706 -439.913)" opacity="0.1"/><path d="M255.512,259.072a3.644,3.644,0,0,1-2.819-1.042s-4.9,1.41-6.557,4.6-12.935,9.438-12.935,9.438,1.962,1.1,1.777,1.654l7.416-4.29s2.637-1.9,3.37-2.328,4.781-3.064,5.639,4.105,0,6.312,0,6.312,1.226.43,3-3,7.292-4.229,7.292-4.229l.306-3.614s1.094-2.4.251-3.391a2.134,2.134,0,0,1-.491-1.037,3.649,3.649,0,0,1,1.952-3.719,16.858,16.858,0,0,0,4.167-3.554s.061-1.165-1.777-1.717-9.315-3.554-9.315-3.554l-.251,1.042,5.9,4.163s-2.941,2.386-5.275,2.328C257.162,257.234,257.6,259.011,255.512,259.072Z" transform="translate(-231.202 -245.802)" fill="#45bf55"/><path d="M394.411,291.177a11.963,11.963,0,0,1-.339-1.5l-3.248.858a3.56,3.56,0,0,1-.074,1.874A3.493,3.493,0,0,0,394.411,291.177Z" transform="translate(-368.966 -280.761)" opacity="0.1"/><circle cx="3.493" cy="3.493" r="3.493" transform="translate(19.255 4.6)" fill="#feb9b9"/><path d="M428.67,507.07s2.022,3.984,1.409,5.208" transform="translate(-402.124 -470.85)" opacity="0.1"/><path d="M347.031,218.686a24.755,24.755,0,0,1,2.845.753,1.411,1.411,0,0,0,.736.028c.37-.114.672-.5,1.056-.491a1.171,1.171,0,0,1,.64.323,7.881,7.881,0,0,1,.879.784c.658.715,1.066,1.677,1.666,2.454s1.456,1.689,2.309,1.332a4.93,4.93,0,0,1-4.445,3.815,10.935,10.935,0,0,0-2.454.126,2.126,2.126,0,0,1-.619.151c-.457,0-.825-.419-1.11-.828-.668-.959-1.2-2.048-1.949-2.924a1.6,1.6,0,0,0-.893-.618,1.653,1.653,0,0,0-.987.278,4.632,4.632,0,0,0-1.444,1,2,2,0,0,0-.487,1.758,4.1,4.1,0,0,1,.3.985c.008.558-.485.965-.581,1.507a5.647,5.647,0,0,0-.024.686,2.812,2.812,0,0,1-1.036,1.82,1.306,1.306,0,0,0-.475.657c-.039.192,0,.394-.025.589a1.069,1.069,0,0,1-.981.79,2.829,2.829,0,0,1-1.472-.175,1.7,1.7,0,0,0,.824-1.8c-.19-.995-1.189-1.709-1.1-2.721a3.153,3.153,0,0,1,.276-.9,8.2,8.2,0,0,0,.472-1.7,2.859,2.859,0,0,0-.029-1.353,4.2,4.2,0,0,0-.61-1.029,5.849,5.849,0,0,1-.707-1.448,1.018,1.018,0,0,1-.068-.48.99.99,0,0,1,.308-.5,4.046,4.046,0,0,1,1.862-1.335,4.192,4.192,0,0,1,1.057-.04,12.477,12.477,0,0,0,1.837-.078,4.032,4.032,0,0,0,1.777-.377c.4-.3.62-.686,1.109-.879a3.265,3.265,0,0,1,1.55-.177Z" transform="translate(-322.426 -218.66)" fill="#2f2e41"/></g><ellipse cx="5.066" cy="0.857" rx="5.066" ry="0.857" transform="translate(369.823 204.841)" fill="#45bf55"/><path d="M884.578,824.962a1.476,1.476,0,0,0,.483-.73.65.65,0,0,0-.338-.742.949.949,0,0,0-.892.314,1.191,1.191,0,0,1-.868.418,1.321,1.321,0,0,0,.41-1.236.521.521,0,0,0-.115-.252c-.171-.184-.484-.106-.689.04a2.57,2.57,0,0,0-.842,2.151,4.041,4.041,0,0,1-.013-.882.91.91,0,0,0-.333-.785,1,1,0,0,0-.5-.119,1.05,1.05,0,0,0-.824.234.812.812,0,0,0,.033,1.008,3.208,3.208,0,0,0,.853.683,1.891,1.891,0,0,1,.608.581.525.525,0,0,1,.045.1h1.841a5.177,5.177,0,0,0,1.144-.788Z" transform="translate(-507.593 -620.666)" fill="#45bf55"/><ellipse cx="3.344" cy="0.565" rx="3.344" ry="0.565" transform="translate(302.664 205.802)" fill="#efefef"/><path d="M882.982,824.168a.973.973,0,0,0,.318-.481.429.429,0,0,0-.223-.49c-.2-.078-.423.064-.589.207a.786.786,0,0,1-.573.276.871.871,0,0,0,.27-.816.344.344,0,0,0-.076-.166c-.113-.121-.319-.07-.455.027a1.7,1.7,0,0,0-.555,1.419,2.673,2.673,0,0,1-.008-.582.6.6,0,0,0-.22-.518.659.659,0,0,0-.333-.078.693.693,0,0,0-.544.155.536.536,0,0,0,.022.665,2.106,2.106,0,0,0,.563.45,1.248,1.248,0,0,1,.4.383.347.347,0,0,1,.03.069h1.215a3.422,3.422,0,0,0,.755-.521Z" transform="translate(-575.591 -618.726)" fill="#efefef"/><ellipse cx="3.344" cy="0.565" rx="3.344" ry="0.565" transform="translate(283.755 205.802)" fill="#efefef"/><path d="M882.982,824.168a.973.973,0,0,0,.318-.481.429.429,0,0,0-.223-.49c-.2-.078-.423.064-.589.207a.786.786,0,0,1-.573.276.871.871,0,0,0,.27-.816.344.344,0,0,0-.076-.166c-.113-.121-.319-.07-.455.027a1.7,1.7,0,0,0-.555,1.419,2.673,2.673,0,0,1-.008-.582.6.6,0,0,0-.22-.518.659.659,0,0,0-.333-.078.693.693,0,0,0-.544.155.536.536,0,0,0,.022.665,2.106,2.106,0,0,0,.563.45,1.248,1.248,0,0,1,.4.383.347.347,0,0,1,.03.069h1.215a3.422,3.422,0,0,0,.755-.521Z" transform="translate(-594.5 -618.726)" fill="#efefef"/><rect width="101.628" height="0.205" transform="translate(282 206.61)" fill="#2f2e41"/><path d="M779.8,156.834s-10.609-.64-9.359,6.794a1.806,1.806,0,0,0,.942,1.91s.019-.551,1.089-.363a4.978,4.978,0,0,0,1.153.055,2.4,2.4,0,0,0,1.409-.576h0s2.982-1.232,4.142-6.106c0,0,.858-1.063.824-1.337l-1.79.765a3.192,3.192,0,0,1,.126,2.365s-.058-2.318-.4-2.268c-.069.01-.93.447-.93.447s1.052,2.249.258,3.885c0,0,.3-2.772-.587-3.722l-1.26.736s1.23,2.323.4,4.22c0,0,.214-2.908-.661-4.041l-1.142.891s1.155,2.289.451,3.862c0,0-.092-3.384-.7-3.64a7.019,7.019,0,0,0-1.152,1.242s.791,1.663.3,2.54c0,0-.3-2.255-.548-2.268a7.487,7.487,0,0,0-1.1,2.52,5.429,5.429,0,0,1,.858-2.661,3,3,0,0,0-1.525.788s.155-1.056,1.77-1.149a6.932,6.932,0,0,1,1.042-1.2,6.525,6.525,0,0,0-2.579.3,2.9,2.9,0,0,1,2.874-.543l1.128-.921a9.331,9.331,0,0,0-3.011.03s1.032-.882,3.315-.239l1.227-.733a11.257,11.257,0,0,0-2.877-.252,4.412,4.412,0,0,1,3.237.052l.882-.394s-1.32-.26-1.707-.3-.407-.147-.407-.147a4.58,4.58,0,0,1,2.481.276A11.171,11.171,0,0,0,779.8,156.834Z" transform="translate(-401.132 -28.544)" fill="#45bf55"/><path d="M729.416,130.651s-4.788-.289-4.229,3.071a.819.819,0,0,0,.426.863s.009-.252.493-.165a2.207,2.207,0,0,0,.52.025,1.078,1.078,0,0,0,.636-.262h0a3.8,3.8,0,0,0,1.872-2.759s.387-.48.372-.6l-.809.345a1.454,1.454,0,0,1,.059,1.068s-.026-1.047-.182-1.023c-.031,0-.421.2-.421.2a2.389,2.389,0,0,1,.117,1.755s.136-1.252-.266-1.682l-.569.338a2.513,2.513,0,0,1,.179,1.906,3.572,3.572,0,0,0-.3-1.826l-.515.4a2.463,2.463,0,0,1,.2,1.745s-.043-1.53-.316-1.646a3.16,3.16,0,0,0-.52.562s.358.756.136,1.148c0,0-.136-1.019-.252-1.025a3.394,3.394,0,0,0-.5,1.134,2.458,2.458,0,0,1,.388-1.2,1.356,1.356,0,0,0-.689.357s.071-.478.8-.519a3.446,3.446,0,0,1,.471-.544,2.951,2.951,0,0,0-1.165.135,1.309,1.309,0,0,1,1.3-.246l.5-.416a4.33,4.33,0,0,0-1.361.013,1.656,1.656,0,0,1,1.5-.108l.554-.331a5.065,5.065,0,0,0-1.3-.113,2,2,0,0,1,1.463.023l.4-.178s-.6-.117-.772-.136-.184-.067-.184-.067a2.065,2.065,0,0,1,1.121.126A5.184,5.184,0,0,0,729.416,130.651Z" transform="translate(-365.285 -6.297)" fill="#3f3d56"/><path d="M729.416,130.651s-4.788-.289-4.229,3.071a.819.819,0,0,0,.426.863s.009-.252.493-.165a2.207,2.207,0,0,0,.52.025,1.078,1.078,0,0,0,.636-.262h0a3.8,3.8,0,0,0,1.872-2.759s.387-.48.372-.6l-.809.345a1.454,1.454,0,0,1,.059,1.068s-.026-1.047-.182-1.023c-.031,0-.421.2-.421.2a2.389,2.389,0,0,1,.117,1.755s.136-1.252-.266-1.682l-.569.338a2.513,2.513,0,0,1,.179,1.906,3.572,3.572,0,0,0-.3-1.826l-.515.4a2.463,2.463,0,0,1,.2,1.745s-.043-1.53-.316-1.646a3.16,3.16,0,0,0-.52.562s.358.756.136,1.148c0,0-.136-1.019-.252-1.025a3.394,3.394,0,0,0-.5,1.134,2.458,2.458,0,0,1,.388-1.2,1.356,1.356,0,0,0-.689.357s.071-.478.8-.519a3.446,3.446,0,0,1,.471-.544,2.951,2.951,0,0,0-1.165.135,1.309,1.309,0,0,1,1.3-.246l.5-.416a4.33,4.33,0,0,0-1.361.013,1.656,1.656,0,0,1,1.5-.108l.554-.331a5.065,5.065,0,0,0-1.3-.113,2,2,0,0,1,1.463.023l.4-.178s-.6-.117-.772-.136-.184-.067-.184-.067a2.065,2.065,0,0,1,1.121.126A5.184,5.184,0,0,0,729.416,130.651Z" transform="translate(-439.121 44.985)" fill="#3f3d56"/></g></svg>