<svg xmlns="http://www.w3.org/2000/svg" width="94.887" height="70.337" viewBox="0 0 94.887 70.337"><g transform="translate(0 0.098)"><path d="M731.765,139.812l.747-.461c.071-.045.141-.093.213-.138a7.131,7.131,0,0,1-5.915-6.7,7.057,7.057,0,0,1,.616-3.248,7.143,7.143,0,0,1,4.578-3.95l-.037,2.938,1.614-3.2a.064.064,0,0,1,.02,0,7.13,7.13,0,0,1,7.455,6.79c.006.136,0,.27,0,.4a8.524,8.524,0,0,0,1.409-2.08,12.131,12.131,0,0,0,.643-5.348c-.108-4.158-.287-8.346-.521-12.523a7.126,7.126,0,0,1-6.332-6.745c-.01-.219-.007-.434,0-.648a1.072,1.072,0,0,1,.008-.16c.014-.207.033-.412.065-.614a.585.585,0,0,1,.018-.1q.044-.257.1-.508c.016-.062.031-.125.048-.187a5.4,5.4,0,0,1,.169-.538c.021-.059.046-.116.068-.174.051-.13.106-.258.164-.385.031-.067.061-.133.094-.2.008-.017.015-.034.024-.051h0a7.125,7.125,0,0,1,8.371-3.616l-.048,3.824,1.6-3.158a7.086,7.086,0,0,1,3.4,7.683h.008c-.011.051-.027.1-.039.15-.022.094-.046.187-.072.28-.034.119-.072.236-.111.353-.03.087-.059.176-.092.262-.048.126-.1.249-.158.372-.032.072-.061.145-.1.216q-.137.276-.3.54c-.037.061-.079.119-.118.18-.076.118-.153.235-.236.349-.051.07-.106.137-.16.206-.078.1-.158.2-.241.291-.059.067-.119.133-.181.2-.087.092-.177.181-.27.269-.061.059-.123.118-.187.174-.1.093-.215.182-.326.269-.056.044-.11.09-.168.132q-.253.188-.523.353c-.034.02-.07.037-.1.057-.15.089-.3.172-.461.25-.067.033-.137.062-.206.093-.129.058-.259.114-.392.165-.077.029-.156.056-.235.083-.131.045-.264.086-.4.123-.08.022-.159.044-.24.063-.146.035-.295.064-.445.089a.051.051,0,0,0-.029.006q.148,2.643.263,5.288a7.126,7.126,0,0,1,9.895-3.093l-1.26,3.453,2.593-2.49a7.11,7.11,0,0,1,2.3,4.923,6.975,6.975,0,0,1-.181,1.964,7.127,7.127,0,0,1-13.11,1.942c0,.179.013.359.018.538a14.152,14.152,0,0,1-.817,6.211,12.475,12.475,0,0,1-2.626,3.541c-.647.661-1.317,1.3-2,1.918a7.13,7.13,0,0,1-2.575,2.141q-1.694,1.305-3.508,2.445l-.735.474c-.679.421-1.374.853-2.057,1.3.12-.012.239-.025.361-.03a7.133,7.133,0,0,1,7.02,4.64l-4.456,3.627,4.9-1.136a7.133,7.133,0,0,1-10.222,6.422c.11.138.221.275.331.412.219.273.437.544.65.813,2.9,3.671,3.706,7.157,2.27,9.815l-1.745-.943c1.4-2.587-.7-5.9-2.082-7.642-.209-.264-.423-.53-.639-.8-1.852-2.3-3.951-4.909-3.9-8.109C723.316,145.048,728,142.143,731.765,139.812Z" transform="translate(-663.47 -98.18)" fill="#f2f2f2"/><ellipse cx="45.525" cy="2.099" rx="45.525" ry="2.099" transform="translate(0 66.041)" fill="#3f3d56"/><path d="M937.187,663.805a1.657,1.657,0,0,0-.428-1.717,2.78,2.78,0,0,1-.851-1.628c.014-.9.968-1.43,1.732-1.907a8.475,8.475,0,0,0,1.554-1.25,2.278,2.278,0,0,0,.479-.64,2.61,2.61,0,0,0,.143-1.137q-.05-1.925-.19-3.846" transform="translate(-854.883 -596.448)" fill="none" stroke="#3f3d56" stroke-miterlimit="10" stroke-width="4"/><path d="M962.357,638.949a1.405,1.405,0,0,0-.7-1.149l-.314.622.009-.752a1.4,1.4,0,1,0,1,1.279Z" transform="translate(-876.163 -583.785)" fill="#57b793"/><path d="M938.786,727.631a1.4,1.4,0,1,1,.067-1.129l-.876.713.964-.224A1.4,1.4,0,0,1,938.786,727.631Z" transform="translate(-855.093 -662.972)" fill="#57b793"/><path d="M942.449,693.449a1.4,1.4,0,0,1-1.465-1.336,1.379,1.379,0,0,1,.121-.639,1.405,1.405,0,0,1,.9-.778l-.007.579.318-.63h0a1.4,1.4,0,0,1,.131,2.8Z" transform="translate(-859.449 -631.519)" fill="#57b793"/><path d="M976.521,670.783a1.4,1.4,0,1,1,.62-2.621l-.248.68.51-.49a1.4,1.4,0,0,1,.454.969,1.369,1.369,0,0,1-.036.386A1.4,1.4,0,0,1,976.521,670.783Z" transform="translate(-890.116 -611.122)" fill="#57b793"/><path d="M962.31,646.212c-.324.036-.639.137-.964.157a1.048,1.048,0,0,1-.888-.311,4.437,4.437,0,0,1-.26-.456,1,1,0,0,0-.353-.333,1.4,1.4,0,1,0,2.623.932C962.415,646.2,962.362,646.207,962.31,646.212Z" transform="translate(-876.304 -590.679)" opacity="0.1"/><path d="M976.491,678a1.4,1.4,0,0,1-1.334-2,1.041,1.041,0,0,1,.282.283,4.509,4.509,0,0,0,.278.464,1.144,1.144,0,0,0,.93.325c.339-.016.665-.111,1-.142.046,0,.094-.008.141-.009A1.4,1.4,0,0,1,976.491,678Z" transform="translate(-890.086 -618.338)" opacity="0.1"/><path d="M942.449,700.925a1.4,1.4,0,0,1-1.465-1.336,1.379,1.379,0,0,1,.121-.639,1.152,1.152,0,0,1,.3.285c.109.154.177.331.3.473a1.3,1.3,0,0,0,.993.348c.359-.009.682-.093,1.027-.119A1.405,1.405,0,0,1,942.449,700.925Z" transform="translate(-859.449 -638.994)" opacity="0.1"/><path d="M938.445,735.649a1.4,1.4,0,0,1-2.558-1.149,1.453,1.453,0,0,1,.308.275,5.531,5.531,0,0,0,.376.5,1.745,1.745,0,0,0,1.161.408A6.015,6.015,0,0,0,938.445,735.649Z" transform="translate(-854.752 -670.991)" opacity="0.1"/><path d="M927.54,761.26a4.051,4.051,0,0,0,1.44-.272c.334-.238,1.7-.522,1.786-.14s1.664,1.9.414,1.9a10.8,10.8,0,0,1-3.237-.4C927.61,762.153,927.54,761.26,927.54,761.26Z" transform="translate(-847.35 -694.537)" fill="#656380"/><path d="M931.2,767.974a10.669,10.669,0,0,1-3.237-.4c-.253-.154-.355-.709-.388-.964h-.037s.07.893.4,1.1a10.491,10.491,0,0,0,3.237.4c.361,0,.486-.132.479-.322C931.609,767.9,931.471,767.972,931.2,767.974Z" transform="translate(-847.35 -699.892)" opacity="0.2"/><path d="M261.807,475.95c-.726-1.343.1-2.988,1.043-4.186s2.1-2.443,2.074-3.969c-.036-2.193-2.363-3.487-4.222-4.649a20.618,20.618,0,0,1-3.791-3.047,5.536,5.536,0,0,1-1.165-1.56,6.332,6.332,0,0,1-.349-2.771q.12-4.7.464-9.377" transform="translate(-242.376 -411.676)" fill="none" stroke="#3f3d56" stroke-miterlimit="10" stroke-width="4"/><path d="M224.726,415.349a3.419,3.419,0,0,1,1.707-2.8l.766,1.514-.023-1.833a3.42,3.42,0,1,1-2.45,3.12Z" transform="translate(-214.776 -380.806)" fill="#57b793"/><path d="M282.378,631.425a3.418,3.418,0,0,0,6.456-1.4,3.374,3.374,0,0,0-.223-1.387,3.42,3.42,0,0,0-6.4.037l2.136,1.737-2.35-.547A3.381,3.381,0,0,0,282.378,631.425Z" transform="translate(-266.329 -573.738)" fill="#57b793"/><path d="M273.348,548.258a3.42,3.42,0,0,0,1.084-6.708l.018,1.408-.77-1.532h-.009a3.42,3.42,0,0,0-.319,6.833Z" transform="translate(-255.612 -497.21)" fill="#57b793"/><path d="M190.222,492.986a3.42,3.42,0,1,0-1.511-6.4l.6,1.656-1.238-1.2a3.4,3.4,0,0,0-1.109,2.361,3.336,3.336,0,0,0,.087.941A3.419,3.419,0,0,0,190.222,492.986Z" transform="translate(-180.787 -447.463)" fill="#57b793"/><path d="M225.841,433.1c.79.087,1.557.332,2.349.381a2.554,2.554,0,0,0,2.163-.756,10.668,10.668,0,0,0,.633-1.113,2.427,2.427,0,0,1,.862-.811,3.42,3.42,0,1,1-6.4,2.27C225.583,433.076,225.713,433.085,225.841,433.1Z" transform="translate(-215.431 -397.644)" opacity="0.1"/><path d="M191.078,510.627a3.422,3.422,0,0,0,3.253-4.877,2.53,2.53,0,0,0-.688.688,11.082,11.082,0,0,1-.678,1.13,2.8,2.8,0,0,1-2.268.794c-.826-.037-1.622-.273-2.444-.348-.114-.01-.23-.018-.345-.021A3.419,3.419,0,0,0,191.078,510.627Z" transform="translate(-181.643 -465.103)" opacity="0.1"/><path d="M274.669,566.464a3.419,3.419,0,0,0,3.28-4.814,2.765,2.765,0,0,0-.723.7,11.729,11.729,0,0,1-.743,1.152,3.161,3.161,0,0,1-2.421.849c-.847-.018-1.662-.226-2.5-.291A3.422,3.422,0,0,0,274.669,566.464Z" transform="translate(-256.933 -515.417)" opacity="0.1"/><path d="M285.78,651.146a3.418,3.418,0,0,0,6.456-1.4,3.374,3.374,0,0,0-.223-1.387,3.425,3.425,0,0,0-.75.669,13.141,13.141,0,0,1-.915,1.215,4.312,4.312,0,0,1-2.832,1A14.663,14.663,0,0,1,285.78,651.146Z" transform="translate(-269.732 -593.46)" opacity="0.1"/><path d="M205.306,523.542l-13.193,2.7-.3-.03-11.594-1.169V510.349l14.192-2.4,10.294,1.2,0,.065v.032Z" transform="translate(-162.208 -457.271)" fill="#45bf55"/><path d="M309.713,534.927l-13.193,2.7-.3-.03V522.534l12.9-1.934Z" transform="translate(-266.614 -468.657)" opacity="0.1"/><path d="M204.711,509.246l0,0-12.893,1.9-11.594-.8,14.192-2.4,10.294,1.2,0,.065Z" transform="translate(-162.208 -457.271)" opacity="0.05"/><path d="M350.306,529.542l-13.193,2.7-.3-.03-11.594-1.169V516.349l14.192-2.4,10.294,1.2,0,.065v.032Z" transform="translate(-292.716 -462.671)" fill="#3f3d56"/><path d="M454.713,540.927l-13.193,2.7-.3-.03V528.534l12.9-1.934Z" transform="translate(-397.122 -474.057)" opacity="0.1"/><path d="M349.711,515.246l0,0-12.893,1.9-11.594-.8,14.192-2.4,10.294,1.2,0,.065Z" transform="translate(-292.716 -462.671)" opacity="0.05"/><path d="M259.306,385.542l-13.193,2.7-.3-.03-11.594-1.169V372.349l14.192-2.4,10.294,1.2,0,.065v.032Z" transform="translate(-210.811 -333.063)" fill="#3f3d56"/><path d="M363.713,396.927l-13.193,2.7-.3-.03V384.534l12.9-1.934Z" transform="translate(-315.217 -344.449)" opacity="0.1"/><path d="M258.711,371.246l0,0-12.893,1.9-11.594-.8,14.192-2.4,10.294,1.2,0,.065Z" transform="translate(-210.811 -333.063)" opacity="0.05"/><path d="M442.313,458.828l-6.885,1.409-.157-.016-6.051-.611v-7.668l7.407-1.252,5.373.627,0,.034v.016Z" transform="translate(-386.321 -405.734)" fill="#3f3d56"/><path d="M496.8,464.777l-6.885,1.409-.157-.016v-7.861l6.731-1.009Z" transform="translate(-440.811 -411.683)" opacity="0.1"/><path d="M442,451.367l0,0-6.729.991-6.051-.418,7.407-1.252,5.373.627,0,.034Z" transform="translate(-386.321 -405.734)" opacity="0.05"/><path d="M257.313,309.828l-6.885,1.408-.157-.015-6.051-.611v-7.668l7.407-1.252,5.373.627,0,.034v.016Z" transform="translate(-219.811 -271.626)" fill="#3f3d56"/><path d="M311.8,315.777l-6.885,1.408-.157-.015v-7.861l6.731-1.009Z" transform="translate(-274.301 -277.575)" opacity="0.1"/><path d="M257,302.367l0,0-6.729.991-6.051-.418,7.407-1.252,5.373.627,0,.034Z" transform="translate(-219.811 -271.626)" opacity="0.05"/><path d="M378.313,306.828l-6.885,1.408-.157-.015-6.051-.611v-7.668l7.407-1.252,5.373.627,0,.034v.016Z" transform="translate(-328.718 -268.926)" fill="#45bf55"/><path d="M432.8,312.777l-6.885,1.408-.157-.015v-7.861l6.731-1.009Z" transform="translate(-383.207 -274.875)" opacity="0.1"/><path d="M378,299.367l0,0-6.729.991-6.051-.418,7.407-1.252,5.373.627,0,.034Z" transform="translate(-328.718 -268.926)" opacity="0.05"/><path d="M414.313,229.828l-6.885,1.408-.157-.015-6.051-.611v-7.668l7.407-1.252,5.373.627,0,.034v.016Z" transform="translate(-361.12 -199.621)" fill="#3f3d56"/><path d="M468.8,235.777l-6.885,1.408-.157-.015v-7.861l6.731-1.009Z" transform="translate(-415.609 -205.571)" opacity="0.1"/><path d="M414,222.367l0,0-6.729.991-6.051-.418,7.407-1.252,5.373.627,0,.034Z" transform="translate(-361.12 -199.621)" opacity="0.05"/><path d="M696.853,226.135c-.073.65-.569,1.173-.753,1.8a2.989,2.989,0,0,0,.856,2.7,5.974,5.974,0,0,0,4.16,1.973,1.789,1.789,0,0,0,.688-.075,1.493,1.493,0,0,0,.523-.358,3.343,3.343,0,0,0,.862-1.87,10,10,0,0,0,.024-2.09,1.183,1.183,0,0,0-.078-.422,1.072,1.072,0,0,0-.271-.333,6.3,6.3,0,0,0-1.164-.847,1.308,1.308,0,0,1-.488-.373,1.221,1.221,0,0,1-.151-.447l-.129-.656a1.286,1.286,0,0,0-.189-.532,1.308,1.308,0,0,0-1.042-.363l-1.4-.055a6.692,6.692,0,0,0-1.431-.056c-.4.079-.265.445-.193.777A5.611,5.611,0,0,1,696.853,226.135Z" transform="translate(-638.97 -211.604)" fill="#ffc0c6"/><path d="M696.853,226.135c-.073.65-.569,1.173-.753,1.8a2.989,2.989,0,0,0,.856,2.7,5.974,5.974,0,0,0,4.16,1.973,1.789,1.789,0,0,0,.688-.075,1.493,1.493,0,0,0,.523-.358,3.343,3.343,0,0,0,.862-1.87,10,10,0,0,0,.024-2.09,1.183,1.183,0,0,0-.078-.422,1.072,1.072,0,0,0-.271-.333,6.3,6.3,0,0,0-1.164-.847,1.308,1.308,0,0,1-.488-.373,1.221,1.221,0,0,1-.151-.447l-.129-.656a1.286,1.286,0,0,0-.189-.532,1.308,1.308,0,0,0-1.042-.363l-1.4-.055a6.692,6.692,0,0,0-1.431-.056c-.4.079-.265.445-.193.777A5.611,5.611,0,0,1,696.853,226.135Z" transform="translate(-638.97 -211.604)" opacity="0.1"/><path d="M727.878,508.226l-.594,6.508c-.155,1.707-.313,3.421-.617,5.106-.1.581-.228,1.158-.374,1.731a36.845,36.845,0,0,0-1.184,4.774c-.006.047-.011.1-.016.143a4.281,4.281,0,0,1-.2,1.059c-.1.249-.241.476-.344.722a4.731,4.731,0,0,0-.257,1.568,6.759,6.759,0,0,0-2.328-.8,1.724,1.724,0,0,1-1.1-.4,1.57,1.57,0,0,1-.215-1.262q.236-2.039.47-4.076a10.617,10.617,0,0,1,.3-1.731c.054-.189.119-.375.185-.561.091-.256.183-.512.252-.775a9.33,9.33,0,0,0,.2-1.282c.161-1.367.355-2.732.525-4.1l.009-.072a41.909,41.909,0,0,0,.393-6.238c-.008-.309-.021-.618-.041-.927-.028-.449-.069-.687.3-.967a6.99,6.99,0,0,1,1.421-.73c.253-.11,3.037-1.1,3.1-.882a5.426,5.426,0,0,1,.2,1.421,15.815,15.815,0,0,1-.082,1.766Z" transform="translate(-661.109 -464.435)" fill="#605d82"/><path d="M735.472,607.868c-.1.581-.228,1.158-.374,1.731a36.843,36.843,0,0,0-1.184,4.774c-.006.047-.011.1-.016.143-1.241-1.773-2.287-3.68-3.5-5.472.091-.256.183-.512.252-.775a9.325,9.325,0,0,0,.208-1.29c.161-1.367.355-2.732.525-4.1l.009-.072a4.244,4.244,0,0,0,.3.841c.814,1.653,2.747,2.489,3.692,4.071Q735.432,607.8,735.472,607.868Z" transform="translate(-669.914 -552.463)" opacity="0.1"/><path d="M680.32,435.516a30.743,30.743,0,0,0,.465,3.949l.437,2.7a13.83,13.83,0,0,0,1.188,4.312,19.9,19.9,0,0,0,1.96,2.726c1.677,2.185,2.937,4.66,4.528,6.909.463.654,1.123,1.361,1.912,1.224a3.092,3.092,0,0,0,1.3-.853,8.079,8.079,0,0,0,1.435-1.17,1.191,1.191,0,0,0-.06-1.657,2.764,2.764,0,0,0-.586-.24,3.17,3.17,0,0,1-1.632-1.859,17.714,17.714,0,0,0-.959-2.353c-.945-1.582-2.879-2.418-3.693-4.072a7.348,7.348,0,0,1-.534-3.025l-.089-2.63a1.916,1.916,0,0,1,.1-.85c.311-.7,1.25-.766,2.012-.855a6.871,6.871,0,0,0,2.466-.778,2.557,2.557,0,0,0,1.1-.978,3.144,3.144,0,0,0,.268-1.324l.264-4.766a3.006,3.006,0,0,0-.1-1.218c-.363-.965-1.582-1.281-2.613-1.235a22.428,22.428,0,0,0-5.5,1.468,14.051,14.051,0,0,1-1.362.355,11.049,11.049,0,0,0-1.283.178c-.688.232-.671,1.737-.768,2.361A19.819,19.819,0,0,0,680.32,435.516Z" transform="translate(-624.834 -394.644)" fill="#605d82"/><path d="M779.283,700.572a1.222,1.222,0,0,1,.268.657,22.4,22.4,0,0,1,.38,3.969.658.658,0,0,0,.071.36.459.459,0,0,0,.187.15,1.437,1.437,0,0,0,1.463-.449,3.772,3.772,0,0,0,1.436-2.551,5.867,5.867,0,0,1,.027-.774,3.218,3.218,0,0,1,.481-1.036,8.8,8.8,0,0,0,.8-1.781c.074-.234.124-.528-.06-.691a.644.644,0,0,0-.217-.113l-2.209-.82c-.192-.071-.668,1.151-.743,1.285a1.012,1.012,0,0,1-.74.588c-.371.076-.829-.034-1.182.155C778.645,699.84,778.944,700.231,779.283,700.572Z" transform="translate(-713.567 -637.68)" fill="#535070"/><path d="M726.031,732.441a.673.673,0,0,0-.168-.213.752.752,0,0,0-.339-.115,1.32,1.32,0,0,0-1.208.194c-.272.293-.225.77-.452,1.1a3.423,3.423,0,0,0-.232.3,1.125,1.125,0,0,0-.1.538c-.012.509-.024,1.019.012,1.527a2.131,2.131,0,0,0,.367,1.206,2.472,2.472,0,0,0,1.883.647l.555.029a1.1,1.1,0,0,0,.454-.042.744.744,0,0,0,.392-.431c.289-.718-.168-1.49-.45-2.21A17.758,17.758,0,0,0,726.031,732.441Z" transform="translate(-663.721 -668.795)" fill="#535070"/><path d="M685.655,172.363a.453.453,0,0,1,.031-.214c.081-.143.293-.1.453-.064a10.564,10.564,0,0,0,1.983.053,1.566,1.566,0,0,1,1.541,1.018,4.819,4.819,0,0,0,1.222-1.255,1.506,1.506,0,0,0,.319-.92,1.806,1.806,0,0,0-.8-1.133l-1.1-.9a1.669,1.669,0,0,0-.494-.314,2.457,2.457,0,0,0-.8-.045c-.8,0-1.657-.365-2.37,0a2.53,2.53,0,0,0-.739.672l-.982,1.163a.621.621,0,0,0-.158.267,1.175,1.175,0,0,0,.071.425c.046.26-.066.538.02.788.143.414.647.473.955.711.114.088.294.389.431.385C685.48,172.995,685.648,172.555,685.655,172.363Z" transform="translate(-627.933 -161.495)" fill="#3f3d56"/><circle cx="3.148" cy="3.148" r="3.148" transform="translate(56.241 8.002)" fill="#ffc0c6"/><path d="M658.577,249.045a1.525,1.525,0,0,0-1.48-1.021.445.445,0,0,1-.274-.035.379.379,0,0,1-.113-.14,5.572,5.572,0,0,1-.459-1.085c-.05-.167-.119-.364-.288-.407a.386.386,0,0,0-.366.16,3.506,3.506,0,0,1-.262.329c-.4.354-1.1.031-1.518.356-.069.053-.126.121-.2.17a.909.909,0,0,1-.231.1A22.128,22.128,0,0,0,651,248.4a22.426,22.426,0,0,0,1.221,4.972c.312.75.665,1.484.914,2.257a17.522,17.522,0,0,1,.585,5.344,11.208,11.208,0,0,1-.4,3.654,3.535,3.535,0,0,0-.225.8.831.831,0,0,0,.282.748.95.95,0,0,0,.435.153,5.649,5.649,0,0,0,2.066-.24,55.6,55.6,0,0,1,5.535-.9l3.108-.4a1.818,1.818,0,0,0,.644-.167,1.231,1.231,0,0,0,.269-1.71c-.169-.261-.408-.475-.551-.751a.7.7,0,0,1,.091-.855c.5-.39.35-1.112.374-1.744q.1-2.651-.027-5.3a10.371,10.371,0,0,1-.018-1.1,9.7,9.7,0,0,1,.343-1.835l.945-3.718a1.939,1.939,0,0,0-1.166-.75c-.447-.112-.914-.145-1.354-.282-.9-.28-1.707-.989-2.65-.923a.485.485,0,0,0-.206.05c-.212.121-.179.427-.192.671a1.856,1.856,0,0,1-.866,1.308,15.628,15.628,0,0,0-1.342.908A.6.6,0,0,0,658.577,249.045Z" transform="translate(-598.45 -231.006)" fill="#3f3d56"/><path d="M586.931,304.3a3.7,3.7,0,0,1-.662.341,2.2,2.2,0,0,0-.635.308,1,1,0,0,0-.221.273,1.212,1.212,0,0,0,1.117,1.806,2.436,2.436,0,0,0,.827-.247l2.221-.966a1.744,1.744,0,0,0,.959-.723.174.174,0,0,0,.022-.115.189.189,0,0,0-.092-.1,4.973,4.973,0,0,1-1.292-1.219c-.091-.124-.2-.416-.332-.491C588.374,302.9,587.308,304.055,586.931,304.3Z" transform="translate(-539.278 -282.732)" fill="#ffc0c6"/><path d="M791.792,307l.819.935c.176.2.352.4.512.616a7.162,7.162,0,0,1,.938,1.766,3.087,3.087,0,0,1,.264,1.46,3.6,3.6,0,0,1-.2.743,9.184,9.184,0,0,1-.557,1.339,7.624,7.624,0,0,1-.623.936,21.9,21.9,0,0,1-2.076,2.374,2.67,2.67,0,0,0-.519,1.1,4.6,4.6,0,0,1-1.276,1.739,3.519,3.519,0,0,1-.549.472,1.779,1.779,0,0,1-1,.284,1.1,1.1,0,0,1-.449-.093,1.161,1.161,0,0,1-.571-.966,2.069,2.069,0,0,1,.172-1.035c.47-1.04,1.676-1.491,2.529-2.251a8.255,8.255,0,0,0,1.26-1.557,5.4,5.4,0,0,0,.637-1.116c.19-.509.116-1.11.283-1.626.07-.219.2-.416.271-.633a.749.749,0,0,0-.038-.661.954.954,0,0,0-.371-.272c-.545-.276-1.154-.632-1.258-1.234a1.321,1.321,0,0,1,.244-.942,3.9,3.9,0,0,1,.687-.72C791.153,307.443,791.553,307.206,791.792,307Z" transform="translate(-720.4 -286.218)" fill="#ffc0c6"/><path d="M562.67,320.458a1.514,1.514,0,0,0-.617-.735,1.135,1.135,0,0,0-.9,0,3.408,3.408,0,0,0-.788.476l-.706.521a1.737,1.737,0,0,0-.419.387,1.611,1.611,0,0,0-.218.6,4.356,4.356,0,0,0-.111,1.48,4.211,4.211,0,0,0,1.119,2.1,1.87,1.87,0,0,0,1.239.777.569.569,0,0,0,.548-.276.683.683,0,0,0,.049-.246,5.478,5.478,0,0,0-.634-2.563,1.586,1.586,0,0,1-.2-.689.186.186,0,0,1,.03-.116.194.194,0,0,1,.12-.059c.507-.1,1.38.294,1.735-.269C563.15,321.474,562.834,320.789,562.67,320.458Z" transform="translate(-515.543 -297.586)" fill="#ffc0c6"/><path d="M684.013,162.453a.466.466,0,0,1,.032-.214c.081-.144.293-.1.453-.064a10.565,10.565,0,0,0,1.983.053,1.567,1.567,0,0,1,1.541,1.018,4.85,4.85,0,0,0,1.222-1.255,1.511,1.511,0,0,0,.319-.921,1.805,1.805,0,0,0-.8-1.132l-1.1-.9a1.665,1.665,0,0,0-.493-.314,2.458,2.458,0,0,0-.8-.045c-.8,0-1.657-.365-2.37,0a2.53,2.53,0,0,0-.739.672l-.983,1.163a.622.622,0,0,0-.157.267,1.174,1.174,0,0,0,.071.425c.046.26-.066.538.02.787.143.415.647.474.954.712.114.088.294.389.431.385C683.836,163.085,684,162.645,684.013,162.453Z" transform="translate(-626.457 -152.576)" fill="#3f3d56"/><path d="M619.014,274.787a1.305,1.305,0,0,0-.33.307c-.115.175-.139.4-.238.58-.212.394-.709.535-1.017.858a.319.319,0,0,0-.1.168.371.371,0,0,0,.083.242l1.493,2.347c.5.044.973-.268,1.471-.226a1.484,1.484,0,0,0,.554.024,1.61,1.61,0,0,0,.355-.217c.3-.188.692-.21.94-.457a1.258,1.258,0,0,0,.267-.947,3.739,3.739,0,0,0-.089-.87,10.715,10.715,0,0,0-1.34-2.391c-.211-.389-.325-.616-.77-.349S619.435,274.48,619.014,274.787Z" transform="translate(-568.144 -256.283)" fill="#3f3d56"/><path d="M792.517,265.2a3.5,3.5,0,0,1,.752.658c.227.293.356.653.575.952a10.416,10.416,0,0,0,.74.784,5.971,5.971,0,0,1,.854,1.39,20.845,20.845,0,0,1-1.931,2.179.619.619,0,0,1-.294.192.471.471,0,0,1-.414-.169c-.108-.112-.184-.252-.287-.369a1.474,1.474,0,0,0-.912-.441,6.268,6.268,0,0,0-1.034-.015.4.4,0,0,1-.221-.037.365.365,0,0,1-.12-.138,3.437,3.437,0,0,1-.132-2.337l.327-1.8a4.039,4.039,0,0,1,.273-1c.124-.265.4-.715.742-.635S792.228,264.991,792.517,265.2Z" transform="translate(-723.515 -247.881)" fill="#3f3d56"/><path d="M287.313,232.828l-6.885,1.408-.157-.015-6.051-.611v-7.668l7.407-1.252,5.373.627,0,.034v.016Z" transform="translate(-246.813 -202.322)" fill="#45bf55"/><path d="M341.8,238.777l-6.885,1.408-.157-.015v-7.861l6.731-1.009Z" transform="translate(-301.302 -208.271)" opacity="0.1"/><path d="M287,225.367l0,0-6.729.991-6.051-.418,7.407-1.252,5.373.627,0,.034Z" transform="translate(-246.813 -202.322)" opacity="0.05"/><path d="M323.313,156.828l-6.885,1.409-.157-.016-6.051-.611v-7.668l7.407-1.252,5.373.627,0,.034v.016Z" transform="translate(-279.215 -133.917)" fill="#3f3d56"/><path d="M377.8,162.777l-6.885,1.409-.157-.016v-7.861l6.731-1.009Z" transform="translate(-333.704 -139.867)" opacity="0.1"/><path d="M323,149.367l0,0-6.729.991-6.051-.418,7.407-1.252,5.373.627,0,.034Z" transform="translate(-279.215 -133.917)" opacity="0.05"/></g></svg>