<svg xmlns="http://www.w3.org/2000/svg" width="130" height="130" viewBox="0 0 130 130"><g transform="translate(-890 -3530)"><circle cx="2" cy="2" r="2" transform="translate(890 3530)" fill="#d1d804"/><circle cx="2" cy="2" r="2" transform="translate(899 3530)" fill="#d1d804"/><circle cx="2" cy="2" r="2" transform="translate(908 3530)" fill="#d1d804"/><circle cx="2" cy="2" r="2" transform="translate(917 3530)" fill="#d1d804"/><circle cx="2" cy="2" r="2" transform="translate(926 3530)" fill="#d1d804"/><circle cx="2" cy="2" r="2" transform="translate(935 3530)" fill="#d1d804"/><circle cx="2" cy="2" r="2" transform="translate(944 3530)" fill="#d1d804"/><circle cx="2" cy="2" r="2" transform="translate(953 3530)" fill="#d1d804"/><circle cx="2" cy="2" r="2" transform="translate(962 3530)" fill="#d1d804"/><circle cx="2" cy="2" r="2" transform="translate(971 3530)" fill="#d1d804"/><circle cx="2" cy="2" r="2" transform="translate(980 3530)" fill="#d1d804"/><circle cx="2" cy="2" r="2" transform="translate(989 3530)" fill="#d1d804"/><circle cx="2" cy="2" r="2" transform="translate(998 3530)" fill="#d1d804"/><circle cx="2" cy="2" r="2" transform="translate(1007 3530)" fill="#d1d804"/><circle cx="2" cy="2" r="2" transform="translate(1016 3530)" fill="#d1d804"/><circle cx="2" cy="2" r="2" transform="translate(890 3539)" fill="#d1d804"/><circle cx="2" cy="2" r="2" transform="translate(899 3539)" fill="#d1d804"/><circle cx="2" cy="2" r="2" transform="translate(908 3539)" fill="#d1d804"/><circle cx="2" cy="2" r="2" transform="translate(917 3539)" fill="#d1d804"/><circle cx="2" cy="2" r="2" transform="translate(926 3539)" fill="#d1d804"/><circle cx="2" cy="2" r="2" transform="translate(935 3539)" fill="#d1d804"/><circle cx="2" cy="2" r="2" transform="translate(944 3539)" fill="#d1d804"/><circle cx="2" cy="2" r="2" transform="translate(953 3539)" fill="#d1d804"/><circle cx="2" cy="2" r="2" transform="translate(962 3539)" fill="#d1d804"/><circle cx="2" cy="2" r="2" transform="translate(971 3539)" fill="#d1d804"/><circle cx="2" cy="2" r="2" transform="translate(980 3539)" fill="#d1d804"/><circle cx="2" cy="2" r="2" transform="translate(989 3539)" fill="#d1d804"/><circle cx="2" cy="2" r="2" transform="translate(998 3539)" fill="#d1d804"/><circle cx="2" cy="2" r="2" transform="translate(1007 3539)" fill="#d1d804"/><circle cx="2" cy="2" r="2" transform="translate(1016 3539)" fill="#d1d804"/><circle cx="2" cy="2" r="2" transform="translate(890 3548)" fill="#d1d804"/><circle cx="2" cy="2" r="2" transform="translate(899 3548)" fill="#d1d804"/><circle cx="2" cy="2" r="2" transform="translate(908 3548)" fill="#d1d804"/><circle cx="2" cy="2" r="2" transform="translate(917 3548)" fill="#d1d804"/><circle cx="2" cy="2" r="2" transform="translate(926 3548)" fill="#d1d804"/><circle cx="2" cy="2" r="2" transform="translate(935 3548)" fill="#d1d804"/><circle cx="2" cy="2" r="2" transform="translate(944 3548)" fill="#d1d804"/><circle cx="2" cy="2" r="2" transform="translate(953 3548)" fill="#d1d804"/><circle cx="2" cy="2" r="2" transform="translate(962 3548)" fill="#d1d804"/><circle cx="2" cy="2" r="2" transform="translate(971 3548)" fill="#d1d804"/><circle cx="2" cy="2" r="2" transform="translate(980 3548)" fill="#d1d804"/><circle cx="2" cy="2" r="2" transform="translate(989 3548)" fill="#d1d804"/><circle cx="2" cy="2" r="2" transform="translate(998 3548)" fill="#d1d804"/><circle cx="2" cy="2" r="2" transform="translate(1007 3548)" fill="#d1d804"/><circle cx="2" cy="2" r="2" transform="translate(1016 3548)" fill="#d1d804"/><circle cx="2" cy="2" r="2" transform="translate(890 3557)" fill="#d1d804"/><circle cx="2" cy="2" r="2" transform="translate(899 3557)" fill="#d1d804"/><circle cx="2" cy="2" r="2" transform="translate(908 3557)" fill="#d1d804"/><circle cx="2" cy="2" r="2" transform="translate(917 3557)" fill="#d1d804"/><circle cx="2" cy="2" r="2" transform="translate(926 3557)" fill="#d1d804"/><circle cx="2" cy="2" r="2" transform="translate(935 3557)" fill="#d1d804"/><circle cx="2" cy="2" r="2" transform="translate(944 3557)" fill="#d1d804"/><circle cx="2" cy="2" r="2" transform="translate(953 3557)" fill="#d1d804"/><circle cx="2" cy="2" r="2" transform="translate(962 3557)" fill="#d1d804"/><circle cx="2" cy="2" r="2" transform="translate(971 3557)" fill="#d1d804"/><circle cx="2" cy="2" r="2" transform="translate(980 3557)" fill="#d1d804"/><circle cx="2" cy="2" r="2" transform="translate(989 3557)" fill="#d1d804"/><circle cx="2" cy="2" r="2" transform="translate(998 3557)" fill="#d1d804"/><circle cx="2" cy="2" r="2" transform="translate(1007 3557)" fill="#d1d804"/><circle cx="2" cy="2" r="2" transform="translate(1016 3557)" fill="#d1d804"/><circle cx="2" cy="2" r="2" transform="translate(890 3566)" fill="#d1d804"/><circle cx="2" cy="2" r="2" transform="translate(899 3566)" fill="#d1d804"/><circle cx="2" cy="2" r="2" transform="translate(908 3566)" fill="#d1d804"/><circle cx="2" cy="2" r="2" transform="translate(917 3566)" fill="#d1d804"/><circle cx="2" cy="2" r="2" transform="translate(926 3566)" fill="#d1d804"/><circle cx="2" cy="2" r="2" transform="translate(935 3566)" fill="#d1d804"/><circle cx="2" cy="2" r="2" transform="translate(944 3566)" fill="#d1d804"/><circle cx="2" cy="2" r="2" transform="translate(953 3566)" fill="#d1d804"/><circle cx="2" cy="2" r="2" transform="translate(962 3566)" fill="#d1d804"/><circle cx="2" cy="2" r="2" transform="translate(971 3566)" fill="#d1d804"/><circle cx="2" cy="2" r="2" transform="translate(980 3566)" fill="#d1d804"/><circle cx="2" cy="2" r="2" transform="translate(989 3566)" fill="#d1d804"/><circle cx="2" cy="2" r="2" transform="translate(998 3566)" fill="#d1d804"/><circle cx="2" cy="2" r="2" transform="translate(1007 3566)" fill="#d1d804"/><circle cx="2" cy="2" r="2" transform="translate(1016 3566)" fill="#d1d804"/><circle cx="2" cy="2" r="2" transform="translate(890 3575)" fill="#d1d804"/><circle cx="2" cy="2" r="2" transform="translate(899 3575)" fill="#d1d804"/><circle cx="2" cy="2" r="2" transform="translate(908 3575)" fill="#d1d804"/><circle cx="2" cy="2" r="2" transform="translate(917 3575)" fill="#d1d804"/><circle cx="2" cy="2" r="2" transform="translate(926 3575)" fill="#d1d804"/><circle cx="2" cy="2" r="2" transform="translate(935 3575)" fill="#d1d804"/><circle cx="2" cy="2" r="2" transform="translate(944 3575)" fill="#d1d804"/><circle cx="2" cy="2" r="2" transform="translate(953 3575)" fill="#d1d804"/><circle cx="2" cy="2" r="2" transform="translate(962 3575)" fill="#d1d804"/><circle cx="2" cy="2" r="2" transform="translate(971 3575)" fill="#d1d804"/><circle cx="2" cy="2" r="2" transform="translate(980 3575)" fill="#d1d804"/><circle cx="2" cy="2" r="2" transform="translate(989 3575)" fill="#d1d804"/><circle cx="2" cy="2" r="2" transform="translate(998 3575)" fill="#d1d804"/><circle cx="2" cy="2" r="2" transform="translate(1007 3575)" fill="#d1d804"/><circle cx="2" cy="2" r="2" transform="translate(1016 3575)" fill="#d1d804"/><circle cx="2" cy="2" r="2" transform="translate(890 3584)" fill="#d1d804"/><circle cx="2" cy="2" r="2" transform="translate(899 3584)" fill="#d1d804"/><circle cx="2" cy="2" r="2" transform="translate(908 3584)" fill="#d1d804"/><circle cx="2" cy="2" r="2" transform="translate(917 3584)" fill="#d1d804"/><circle cx="2" cy="2" r="2" transform="translate(926 3584)" fill="#d1d804"/><circle cx="2" cy="2" r="2" transform="translate(935 3584)" fill="#d1d804"/><circle cx="2" cy="2" r="2" transform="translate(944 3584)" fill="#d1d804"/><circle cx="2" cy="2" r="2" transform="translate(953 3584)" fill="#d1d804"/><circle cx="2" cy="2" r="2" transform="translate(962 3584)" fill="#d1d804"/><circle cx="2" cy="2" r="2" transform="translate(971 3584)" fill="#d1d804"/><circle cx="2" cy="2" r="2" transform="translate(980 3584)" fill="#d1d804"/><circle cx="2" cy="2" r="2" transform="translate(989 3584)" fill="#d1d804"/><circle cx="2" cy="2" r="2" transform="translate(998 3584)" fill="#d1d804"/><circle cx="2" cy="2" r="2" transform="translate(1007 3584)" fill="#d1d804"/><circle cx="2" cy="2" r="2" transform="translate(1016 3584)" fill="#d1d804"/><circle cx="2" cy="2" r="2" transform="translate(890 3593)" fill="#d1d804"/><circle cx="2" cy="2" r="2" transform="translate(899 3593)" fill="#d1d804"/><circle cx="2" cy="2" r="2" transform="translate(908 3593)" fill="#d1d804"/><circle cx="2" cy="2" r="2" transform="translate(917 3593)" fill="#d1d804"/><circle cx="2" cy="2" r="2" transform="translate(926 3593)" fill="#d1d804"/><circle cx="2" cy="2" r="2" transform="translate(935 3593)" fill="#d1d804"/><circle cx="2" cy="2" r="2" transform="translate(944 3593)" fill="#d1d804"/><circle cx="2" cy="2" r="2" transform="translate(953 3593)" fill="#d1d804"/><circle cx="2" cy="2" r="2" transform="translate(962 3593)" fill="#d1d804"/><circle cx="2" cy="2" r="2" transform="translate(971 3593)" fill="#d1d804"/><circle cx="2" cy="2" r="2" transform="translate(980 3593)" fill="#d1d804"/><circle cx="2" cy="2" r="2" transform="translate(989 3593)" fill="#d1d804"/><circle cx="2" cy="2" r="2" transform="translate(998 3593)" fill="#d1d804"/><circle cx="2" cy="2" r="2" transform="translate(1007 3593)" fill="#d1d804"/><circle cx="2" cy="2" r="2" transform="translate(1016 3593)" fill="#d1d804"/><circle cx="2" cy="2" r="2" transform="translate(890 3602)" fill="#d1d804"/><circle cx="2" cy="2" r="2" transform="translate(899 3602)" fill="#d1d804"/><circle cx="2" cy="2" r="2" transform="translate(908 3602)" fill="#d1d804"/><circle cx="2" cy="2" r="2" transform="translate(917 3602)" fill="#d1d804"/><circle cx="2" cy="2" r="2" transform="translate(926 3602)" fill="#d1d804"/><circle cx="2" cy="2" r="2" transform="translate(935 3602)" fill="#d1d804"/><circle cx="2" cy="2" r="2" transform="translate(944 3602)" fill="#d1d804"/><circle cx="2" cy="2" r="2" transform="translate(953 3602)" fill="#d1d804"/><circle cx="2" cy="2" r="2" transform="translate(962 3602)" fill="#d1d804"/><circle cx="2" cy="2" r="2" transform="translate(971 3602)" fill="#d1d804"/><circle cx="2" cy="2" r="2" transform="translate(980 3602)" fill="#d1d804"/><circle cx="2" cy="2" r="2" transform="translate(989 3602)" fill="#d1d804"/><circle cx="2" cy="2" r="2" transform="translate(998 3602)" fill="#d1d804"/><circle cx="2" cy="2" r="2" transform="translate(1007 3602)" fill="#d1d804"/><circle cx="2" cy="2" r="2" transform="translate(1016 3602)" fill="#d1d804"/><circle cx="2" cy="2" r="2" transform="translate(890 3611)" fill="#d1d804"/><circle cx="2" cy="2" r="2" transform="translate(899 3611)" fill="#d1d804"/><circle cx="2" cy="2" r="2" transform="translate(908 3611)" fill="#d1d804"/><circle cx="2" cy="2" r="2" transform="translate(917 3611)" fill="#d1d804"/><circle cx="2" cy="2" r="2" transform="translate(926 3611)" fill="#d1d804"/><circle cx="2" cy="2" r="2" transform="translate(935 3611)" fill="#d1d804"/><circle cx="2" cy="2" r="2" transform="translate(944 3611)" fill="#d1d804"/><circle cx="2" cy="2" r="2" transform="translate(953 3611)" fill="#d1d804"/><circle cx="2" cy="2" r="2" transform="translate(962 3611)" fill="#d1d804"/><circle cx="2" cy="2" r="2" transform="translate(971 3611)" fill="#d1d804"/><circle cx="2" cy="2" r="2" transform="translate(980 3611)" fill="#d1d804"/><circle cx="2" cy="2" r="2" transform="translate(989 3611)" fill="#d1d804"/><circle cx="2" cy="2" r="2" transform="translate(998 3611)" fill="#d1d804"/><circle cx="2" cy="2" r="2" transform="translate(1007 3611)" fill="#d1d804"/><circle cx="2" cy="2" r="2" transform="translate(1016 3611)" fill="#d1d804"/><circle cx="2" cy="2" r="2" transform="translate(890 3620)" fill="#d1d804"/><circle cx="2" cy="2" r="2" transform="translate(899 3620)" fill="#d1d804"/><circle cx="2" cy="2" r="2" transform="translate(908 3620)" fill="#d1d804"/><circle cx="2" cy="2" r="2" transform="translate(917 3620)" fill="#d1d804"/><circle cx="2" cy="2" r="2" transform="translate(926 3620)" fill="#d1d804"/><circle cx="2" cy="2" r="2" transform="translate(935 3620)" fill="#d1d804"/><circle cx="2" cy="2" r="2" transform="translate(944 3620)" fill="#d1d804"/><circle cx="2" cy="2" r="2" transform="translate(953 3620)" fill="#d1d804"/><circle cx="2" cy="2" r="2" transform="translate(962 3620)" fill="#d1d804"/><circle cx="2" cy="2" r="2" transform="translate(971 3620)" fill="#d1d804"/><circle cx="2" cy="2" r="2" transform="translate(980 3620)" fill="#d1d804"/><circle cx="2" cy="2" r="2" transform="translate(989 3620)" fill="#d1d804"/><circle cx="2" cy="2" r="2" transform="translate(998 3620)" fill="#d1d804"/><circle cx="2" cy="2" r="2" transform="translate(1007 3620)" fill="#d1d804"/><circle cx="2" cy="2" r="2" transform="translate(1016 3620)" fill="#d1d804"/><circle cx="2" cy="2" r="2" transform="translate(890 3629)" fill="#d1d804"/><circle cx="2" cy="2" r="2" transform="translate(899 3629)" fill="#d1d804"/><circle cx="2" cy="2" r="2" transform="translate(908 3629)" fill="#d1d804"/><circle cx="2" cy="2" r="2" transform="translate(917 3629)" fill="#d1d804"/><circle cx="2" cy="2" r="2" transform="translate(926 3629)" fill="#d1d804"/><circle cx="2" cy="2" r="2" transform="translate(935 3629)" fill="#d1d804"/><circle cx="2" cy="2" r="2" transform="translate(944 3629)" fill="#d1d804"/><circle cx="2" cy="2" r="2" transform="translate(953 3629)" fill="#d1d804"/><circle cx="2" cy="2" r="2" transform="translate(962 3629)" fill="#d1d804"/><circle cx="2" cy="2" r="2" transform="translate(971 3629)" fill="#d1d804"/><circle cx="2" cy="2" r="2" transform="translate(980 3629)" fill="#d1d804"/><circle cx="2" cy="2" r="2" transform="translate(989 3629)" fill="#d1d804"/><circle cx="2" cy="2" r="2" transform="translate(998 3629)" fill="#d1d804"/><circle cx="2" cy="2" r="2" transform="translate(1007 3629)" fill="#d1d804"/><circle cx="2" cy="2" r="2" transform="translate(1016 3629)" fill="#d1d804"/><circle cx="2" cy="2" r="2" transform="translate(890 3638)" fill="#d1d804"/><circle cx="2" cy="2" r="2" transform="translate(899 3638)" fill="#d1d804"/><circle cx="2" cy="2" r="2" transform="translate(908 3638)" fill="#d1d804"/><circle cx="2" cy="2" r="2" transform="translate(917 3638)" fill="#d1d804"/><circle cx="2" cy="2" r="2" transform="translate(926 3638)" fill="#d1d804"/><circle cx="2" cy="2" r="2" transform="translate(935 3638)" fill="#d1d804"/><circle cx="2" cy="2" r="2" transform="translate(944 3638)" fill="#d1d804"/><circle cx="2" cy="2" r="2" transform="translate(953 3638)" fill="#d1d804"/><circle cx="2" cy="2" r="2" transform="translate(962 3638)" fill="#d1d804"/><circle cx="2" cy="2" r="2" transform="translate(971 3638)" fill="#d1d804"/><circle cx="2" cy="2" r="2" transform="translate(980 3638)" fill="#d1d804"/><circle cx="2" cy="2" r="2" transform="translate(989 3638)" fill="#d1d804"/><circle cx="2" cy="2" r="2" transform="translate(998 3638)" fill="#d1d804"/><circle cx="2" cy="2" r="2" transform="translate(1007 3638)" fill="#d1d804"/><circle cx="2" cy="2" r="2" transform="translate(1016 3638)" fill="#d1d804"/><circle cx="2" cy="2" r="2" transform="translate(890 3647)" fill="#d1d804"/><circle cx="2" cy="2" r="2" transform="translate(899 3647)" fill="#d1d804"/><circle cx="2" cy="2" r="2" transform="translate(908 3647)" fill="#d1d804"/><circle cx="2" cy="2" r="2" transform="translate(917 3647)" fill="#d1d804"/><circle cx="2" cy="2" r="2" transform="translate(926 3647)" fill="#d1d804"/><circle cx="2" cy="2" r="2" transform="translate(935 3647)" fill="#d1d804"/><circle cx="2" cy="2" r="2" transform="translate(944 3647)" fill="#d1d804"/><circle cx="2" cy="2" r="2" transform="translate(953 3647)" fill="#d1d804"/><circle cx="2" cy="2" r="2" transform="translate(962 3647)" fill="#d1d804"/><circle cx="2" cy="2" r="2" transform="translate(971 3647)" fill="#d1d804"/><circle cx="2" cy="2" r="2" transform="translate(980 3647)" fill="#d1d804"/><circle cx="2" cy="2" r="2" transform="translate(989 3647)" fill="#d1d804"/><circle cx="2" cy="2" r="2" transform="translate(998 3647)" fill="#d1d804"/><circle cx="2" cy="2" r="2" transform="translate(1007 3647)" fill="#d1d804"/><circle cx="2" cy="2" r="2" transform="translate(1016 3647)" fill="#d1d804"/><circle cx="2" cy="2" r="2" transform="translate(890 3656)" fill="#d1d804"/><circle cx="2" cy="2" r="2" transform="translate(899 3656)" fill="#d1d804"/><circle cx="2" cy="2" r="2" transform="translate(908 3656)" fill="#d1d804"/><circle cx="2" cy="2" r="2" transform="translate(917 3656)" fill="#d1d804"/><circle cx="2" cy="2" r="2" transform="translate(926 3656)" fill="#d1d804"/><circle cx="2" cy="2" r="2" transform="translate(935 3656)" fill="#d1d804"/><circle cx="2" cy="2" r="2" transform="translate(944 3656)" fill="#d1d804"/><circle cx="2" cy="2" r="2" transform="translate(953 3656)" fill="#d1d804"/><circle cx="2" cy="2" r="2" transform="translate(962 3656)" fill="#d1d804"/><circle cx="2" cy="2" r="2" transform="translate(971 3656)" fill="#d1d804"/><circle cx="2" cy="2" r="2" transform="translate(980 3656)" fill="#d1d804"/><circle cx="2" cy="2" r="2" transform="translate(989 3656)" fill="#d1d804"/><circle cx="2" cy="2" r="2" transform="translate(998 3656)" fill="#d1d804"/><circle cx="2" cy="2" r="2" transform="translate(1007 3656)" fill="#d1d804"/><circle cx="2" cy="2" r="2" transform="translate(1016 3656)" fill="#d1d804"/></g></svg>