<svg xmlns="http://www.w3.org/2000/svg" width="477" height="244.494" viewBox="0 0 477 244.494"><g transform="translate(0 0)"><path d="M448.379,117.28l-.012.083-.034.241-3.508,25.173-21.479,7.881-.337-.161-12.026-5.711-6.218-23.859-.426-1.638.13-.05,26.6-9.995,17.292,8.026Z" transform="translate(-210.755 -56.942)" fill="#45bf55"/><path d="M423.009,161.378l-12.026-5.711-6.644-25.5.13-.05,17.332,7.312Z" transform="translate(-210.755 -67.823)" fill="#45bf55"/><path d="M428.749,163.212l-9.147-17.53,1.175-4.97-5.533-6.516-.471.4,5.331,6.277-3.982,16.846.6.143,2.661-11.261,8.816,16.9Z" transform="translate(-216.193 -69.948)" opacity="0.2"/><path d="M448.379,117.588l-.046.015L421.8,126.86l-17.035-5.934-.426-1.638.13-.05,26.6-9.995,17.292,8.026,0,.093Z" transform="translate(-210.755 -56.942)" fill="#3f3d56"/><path d="M435.891,131.361l-5.409-4.172,1.236-4.636,15.453-5.563,10.508.618,4.172,3.554.309.927Z" transform="translate(-224.382 -60.979)" fill="#45bf55"/><path d="M404.984,119.36l12.208-.464,6.613-2.244,10.311-3.628,1.928-2.781-4.812-.861Z" transform="translate(-211.092 -57.014)" fill="#45bf55"/><rect width="6.746" height="0.618" transform="translate(211.847 59.607) rotate(-19.337)" fill="#ccc"/><path d="M277.419,44.344l-2.984,14.92L288.36,69.708l6.466-19.4Z" transform="translate(-143.045 -23.114)" fill="#9f616a"/><circle cx="13.428" cy="13.428" r="13.428" transform="translate(132.136 8.051)" fill="#9f616a"/><path d="M341.326,449.977c.061,4.332,18.93,52.548,16.31,58.826-4.13,4.221-13.013,26.69-16.808,32.684-.5,0-2.984,7.46-2.984,7.46s5.968,9.449,12.433,5.471c8.13-19.12,28.489-29.785,28.849-54.705.983,7.872,3.884,58.4,3.884,58.4s-.556.236,11.969,1.436c1.945-29.328,9.891-79.224-7.9-110.57C381.61,446.5,341.326,449.977,341.326,449.977Z" transform="translate(-224.856 -326.756)" fill="#2f2e41"/><path d="M429.422,675.852c-.581,1.118-4.751,11.439-.957,12.474a15.247,15.247,0,0,0,8.618-.479s7.66,2.394,12.348-.648c2.188-2.188,1.691-4.177.646-5.619a6.091,6.091,0,0,0-4.519-2.436c-2.379-.17-3.134-.611-3.407-1.7C441.754,675.852,429.422,675.852,429.422,675.852Z" transform="translate(-271.268 -445.475)" fill="#2f2e41"/><path d="M337.182,657.027s-10.689,3.375-8.439,7.314a14.8,14.8,0,0,0,6.146,5.668s2.229,9.19,8.418,9.19c3.094,0,4.149-1.758,4.43-3.516a6.091,6.091,0,0,0-1.473-4.918c-1.562-1.8-1.785-2.648-1.207-3.612C345.9,665.747,337.182,657.027,337.182,657.027Z" transform="translate(-219.949 -435.663)" fill="#2f2e41"/><path d="M389.135,353.808s-1.992,3.979-9.949,2.485-39.288,0-39.288,0,1.738-35.558-2.241-56.944a35.575,35.575,0,0,1,11.687-33.571l4.974-4.974c4.974-.493,15.478,14.942,15.478,14.942,3.457.579,6.684,15.273,9.436,29.176.163.795.316,1.58.469,2.365,1.269,6.482,3.035,13.7,4.093,20.175.077.46.148.914.215,1.369a236.788,236.788,0,0,0,5.123,24.977Z" transform="translate(-224.421 -229.131)" fill="#e6e6e6"/><path d="M372.237,207.78s-2.511-5.523,4.017-8.034c0,0,5.523-9.038,16.57-3.013,0,0,7.532,3.013,7.532,11.047s2.511,9.54,2.511,9.54-3.739-3.836-4.743-6.848-8.814-3.7-11.827-.683-10.544,2.511-10.544,2.511l.5,11.047s-2.511-6.528-3.515-6.528S370.731,207.78,372.237,207.78Z" transform="translate(-242.382 -194.662)" fill="#2f2e41"/><path d="M390.389,348.718c-11.864-6.449-31.081-20.592-37.281-28.242-8.173-10.078.742-17.738.742-17.738,10.107-6.377,22.191,15.5,22.191,15.5l9.786,7.938c.163.795.316,1.58.469,2.365C387.564,335.025,389.331,342.24,390.389,348.718Z" transform="translate(-231.013 -250.388)" opacity="0.2"/><path d="M508.706,374.944s17.638,7.16,20.541-.889-13.925-7.911-13.925-7.911l-6.606.936Z" transform="translate(-313.914 -284.044)" fill="#9f616a"/><path d="M349.129,295.77s-8.91,7.665-.744,17.739,45.7,31.6,45.7,31.6l24.448-6.609,6.919,1.266,1.3-12.989-10.192.995-25.873-5.509-16.5-13.387S359.233,289.4,349.129,295.77Z" transform="translate(-228.554 -246.696)" fill="#e6e6e6"/><path d="M317.04,295.362l1.559,36.425-3.953-36.425Z" transform="translate(-164.004 -153.953)" opacity="0.2"/><path d="M751.858,429.547l-14.151,3.279a4.317,4.317,0,0,1-5.151-3.112h0a4.317,4.317,0,0,1,4.076-5.41l13.669-.318Z" transform="translate(-430.519 -314.194)" fill="#ffb9b9"/><path d="M766.465,374.721l-3.143-9.429,18.842-6.436-5-44.04h0c9,1.637,13.289,8.717,12.888,17.86l2.438,30.051Z" transform="translate(-446.629 -257.291)" fill="#3f3d56"/><path d="M797.079,260.849h30.784V245.54a15.7,15.7,0,0,0-4.509-11.054,15.172,15.172,0,0,0-10.884-4.58,15.416,15.416,0,0,0-15.386,15.225c0,.14,0,.273,0,.409Z" transform="translate(-464.224 -213.033)" fill="#2f2e41"/><path d="M826.617,528.034l-9.84-1.129L805,447.376l-24.359,79.852-10.647.323,12.1-98.242-1.775-22.423,30.166-9.518C831.851,412.283,831.409,464.963,826.617,528.034Z" transform="translate(-450.107 -300.319)" fill="#2f2e41"/><circle cx="11.615" cy="11.615" r="11.615" transform="translate(333.922 21.552)" fill="#ffb9b9"/><path d="M826.4,291.582l-19.681,5.162c3.316-6.377,4.377-12.329,2.581-17.745l13.873-2.258a20.241,20.241,0,0,0,3.226,14.841Z" transform="translate(-469.251 -237.445)" fill="#ffb9b9"/><path d="M818.243,351.143c-11.038,7.02-23.9,15.085-33.393,7.259l-4.517-21.939c-3.59-3.2-2-13.065,2.855-27.129a6.221,6.221,0,0,1,3.857-3.852l7.484-2.573c3.317,2.789,8.754,1.126,15.164-2.581l7.421,1.936,3.226,24.2C815.683,333.439,816.5,342.73,818.243,351.143Z" transform="translate(-454.478 -249.739)" fill="#3f3d56"/><path d="M821.268,420.112l-14.151,3.279a4.317,4.317,0,0,1-5.151-3.112h0a4.317,4.317,0,0,1,4.076-5.41l13.669-.318Z" transform="translate(-466.698 -309.276)" fill="#ffb9b9"/><path d="M863.595,682.837c-1.653.754-3.037-3.921-4.431-2.551-3.9,3.832-13.254,2.973-13.254,2.973a2.437,2.437,0,0,1-1.536-3.177h0a2.438,2.438,0,0,1,1.691-1.509l4.147-1.037,6.511-11.451,7.1-.9.179.293a18.3,18.3,0,0,1,1.961,14.962C865.369,682.333,864.566,682.393,863.595,682.837Z" transform="translate(-488.795 -439.916)" fill="#2f2e41"/><path d="M765.881,682.837c-1.653.754-3.037-3.921-4.431-2.551-3.9,3.832-13.254,2.973-13.254,2.973a2.438,2.438,0,0,1-1.536-3.177h0a2.438,2.438,0,0,1,1.691-1.509l4.147-1.037,6.511-11.451,7.1-.9.179.293a18.3,18.3,0,0,1,1.961,14.961C767.655,682.333,766.852,682.393,765.881,682.837Z" transform="translate(-437.863 -439.916)" fill="#2f2e41"/><path d="M821.289,236.776l-2.925,9.307-25.291-.449a15.634,15.634,0,0,1,28.217-8.858Z" transform="translate(-462.136 -213.297)" fill="#2f2e41"/><path d="M835.876,364.247l-3.143-9.429,18.842-6.436-7.127-44.994h0A18.306,18.306,0,0,1,859.462,322.2l2.438,30.051Z" transform="translate(-482.809 -251.334)" fill="#3f3d56"/><path d="M617.76,154.185l-19.6,4.215-4-19.281,7.375-9.9,6.638-1.264,7.375,7.481Z" transform="translate(-309.696 -66.692)" fill="#ccc"/><path d="M608.011,162.253h-11.8L594.6,154.31l-1.762-8.7,2.633-3.792,5.061,1.58,5.477,7.588,1.374,7.732.1.551Z" transform="translate(-309.008 -73.919)" fill="#e6e6e6"/><path d="M651.1,152.342l-13.592,1.58,2.424-17.279,5.478-4.952,4.741,1.159,3.161,7.27Z" transform="translate(-332.294 -68.642)" fill="#ccc"/><path d="M631.5,149.69l-1.264,6.956-4.108,23.7-15.8,5.061-.546-.3-8.517-4.658-4.792-23.862.024.01,12.673,5.1.11-.694.077-.5.972-6.176,4.318-4.639,14.435-3.476Z" transform="translate(-310.9 -76.212)" fill="#e6e6e6"/><circle cx="3.372" cy="3.372" r="3.372" transform="translate(307.221 65.999)" fill="#e6e6e6"/><rect width="7.812" height="0.211" transform="translate(294.612 72.479) rotate(-10.097)" fill="#fff"/><path d="M607.887,182.82l-8.517-4.658L594.577,154.3l.024.01-1.762-8.7,2.633-3.792,5.061,1.58,5.477,7.588,1.374,7.732.077-.5.019,1.053.053,2.987Z" transform="translate(-309.008 -73.919)" fill="#f2f2f2"/><path d="M605.81,193.541l-.2-.055,4.2-15.754L605,171.39l.168-.127,4.873,6.424Z" transform="translate(-315.345 -89.268)" fill="#ccc"/><rect width="0.211" height="15.398" transform="matrix(0.901, -0.434, 0.434, 0.901, 292.648, 95.373)" fill="#ccc"/><path d="M732.153,353.4l-.791,4.372-.04,0-3.542,20.436-15.8,5.057-.095.045-.063-.132-8.9-4.866-.1-.027.055-.206-4.747-23.631.024.009-.526-2.594.393-.566,1.215-1.749,5.057,1.58,5.479,7.586.08.451.575,3.237.231,1.3.488,2.747.464-2.951.167-1.062.419-2.668,4.32-4.636,1.921-.463,1.337-.322,1.84-.443a3.372,3.372,0,1,1,4.622-1.114l4.715-1.136,1.162,1.668Z" transform="translate(-412.382 -274.408)" opacity="0.2"/><path d="M608.8,179.594H597l-3.371-16.647,2.634-3.793,5.057,1.58,5.479,7.586Z" transform="translate(-309.421 -82.957)" fill="#e6e6e6"/><path d="M626.922,197.693l-15.8,5.057-9.061-4.952-4.794-23.865,12.7,5.11,1.159-7.375,4.32-4.636,14.435-3.477,2.423,3.477-1.264,6.954Z" transform="translate(-311.313 -85.251)" fill="#e6e6e6"/><circle cx="3.372" cy="3.372" r="3.372" transform="translate(307.601 74.301)" fill="#e6e6e6"/><path d="M608.7,199.82l-8.517-4.658L595.387,171.3l.024.01-1.762-8.7,2.633-3.792,5.061,1.58,5.477,7.588,1.374,7.732.077-.5.019,1.053.053,2.987Z" transform="translate(-309.43 -82.78)" fill="#f2f2f2"/><path d="M606.6,210.88l-.2-.054,4.2-15.755-4.811-6.342.168-.127,4.873,6.425Z" transform="translate(-315.758 -98.306)" fill="#ccc"/><rect width="0.211" height="15.398" transform="matrix(0.901, -0.434, 0.434, 0.901, 293.028, 103.674)" fill="#ccc"/><path d="M875.76,436.531l-19.6,4.215-4-19.281,7.375-9.9,6.638-1.264,7.375,7.481Z" transform="translate(-444.174 -213.861)" fill="#ccc"/><path d="M866.011,444.6h-11.8l-1.609-7.943-1.762-8.7,2.633-3.792,5.061,1.58,5.477,7.588,1.374,7.732.1.551Z" transform="translate(-443.486 -221.087)" fill="#e6e6e6"/><path d="M909.1,434.689l-13.592,1.581,2.424-17.28,5.479-4.952,4.741,1.159,3.161,7.27Z" transform="translate(-466.772 -215.811)" fill="#ccc"/><path d="M889.5,432.036l-1.264,6.956-4.108,23.7-15.8,5.061-.546-.3-8.517-4.658-4.792-23.862.024.01,12.673,5.1.11-.694.077-.5.972-6.176,4.318-4.639,14.435-3.476Z" transform="translate(-445.379 -223.38)" fill="#e6e6e6"/><circle cx="3.372" cy="3.372" r="3.372" transform="translate(430.743 201.177)" fill="#e6e6e6"/><rect width="7.812" height="0.211" transform="translate(418.134 207.657) rotate(-10.097)" fill="#fff"/><path d="M865.887,465.166l-8.517-4.658-4.792-23.862.024.01-1.762-8.7,2.633-3.792,5.061,1.58,5.477,7.588,1.374,7.732.077-.5.019,1.053.053,2.988Z" transform="translate(-443.486 -221.087)" fill="#f2f2f2"/><path d="M863.81,475.887l-.2-.054,4.2-15.755L863,453.736l.168-.127,4.873,6.424Z" transform="translate(-449.824 -236.437)" fill="#ccc"/><rect width="0.211" height="15.398" transform="matrix(0.901, -0.434, 0.434, 0.901, 416.17, 230.551)" fill="#ccc"/><path d="M966.181,479.486H953.254l-1.915-24.9H968.1Z" transform="translate(-495.871 -236.948)" fill="#e6e6e6"/><rect width="17.236" height="3.83" transform="translate(455.229 227.696)" fill="#f2f2f2"/><path d="M974.206,452.414l-2.756-.812-.035-1.009-12.247-3.607-.577.828L955.835,447l-1.73,2.485,20.207,5.952Z" transform="translate(-497.312 -232.985)" fill="#ccc"/><path d="M101.379,432.211l-.012.083-.034.241-3.508,25.172-21.479,7.881-.337-.161-12.026-5.711-6.218-23.859-.426-1.638.13-.049,26.6-9.995,17.292,8.026Z" transform="translate(-29.887 -221.095)" fill="#45bf55"/><path d="M76.009,476.31,63.983,470.6l-6.644-25.5.13-.049L74.8,452.364Z" transform="translate(-29.887 -231.977)" fill="#45bf55"/><path d="M81.749,478.143,72.6,460.613l1.175-4.969-5.533-6.516-.471.4,5.331,6.278-3.982,16.846.6.142,2.661-11.261,8.816,16.9Z" transform="translate(-35.325 -234.101)" opacity="0.2"/><path d="M101.379,432.52l-.046.015L74.8,441.792l-17.035-5.934-.426-1.638.13-.049,26.6-9.995,17.292,8.026,0,.092Z" transform="translate(-29.887 -221.095)" fill="#3f3d56"/><path d="M88.891,446.293l-5.409-4.172,1.236-4.636,15.453-5.563,10.508.618,4.172,3.554.309.927Z" transform="translate(-43.514 -225.133)" fill="#45bf55"/><path d="M57.984,434.292l12.208-.463,6.613-2.245,10.311-3.627,1.928-2.782-4.812-.861Z" transform="translate(-30.223 -221.167)" fill="#45bf55"/><rect width="6.746" height="0.618" transform="translate(45.716 210.384) rotate(-19.337)" fill="#ccc"/><path d="M19.842,480.682H6.915L5,455.786H21.757Z" transform="translate(-2.606 -237.572)" fill="#45bf55"/><rect width="17.236" height="3.83" transform="translate(2.154 228.269)" fill="#e6e6e6"/><path d="M20.108,451.744H17.236l-.319-.958H4.149l-.319.958H.958L0,454.616H21.066Z" transform="translate(0 -234.965)" fill="#3f3d56"/><rect width="290.178" height="0.958" transform="translate(96.827 242.817)" fill="#3f3d56"/></g></svg>