<svg xmlns="http://www.w3.org/2000/svg" width="441.195" height="368.184" viewBox="0 0 441.195 368.184"><g transform="translate(0 0)"><path d="M337.792,166.115h-2V111.237a31.762,31.762,0,0,0-31.762-31.762H187.762A31.762,31.762,0,0,0,156,111.237V412.3a31.762,31.762,0,0,0,31.761,31.762H304.027A31.762,31.762,0,0,0,335.789,412.3V205.178h2Z" transform="translate(-156 -79.476)" fill="#646464"/><path d="M314.185,96.107H299.008a11.269,11.269,0,0,1-10.434,15.525H221.968a11.269,11.269,0,0,1-10.434-15.525H197.359a23.719,23.719,0,0,0-23.719,23.719V420.448a23.719,23.719,0,0,0,23.719,23.719H314.185A23.719,23.719,0,0,0,337.9,420.448V119.827a23.719,23.719,0,0,0-23.719-23.719Z" transform="translate(-164.876 -87.844)" fill="#fff"/><path d="M261.672,219.111H254.7a.925.925,0,0,0-.925.925V223.1a.925.925,0,0,0,.925.925h1.156v4.587h4.663v-4.587h1.156a.925.925,0,0,0,.925-.925v-3.062A.925.925,0,0,0,261.672,219.111Z" transform="translate(-205.195 -149.735)" fill="#e6e6e6"/><path d="M262.156,251.871a35.861,35.861,0,0,1-6.239-21.262.756.756,0,0,0-.59-.755v-1.323H247.96v1.3h-.1a.756.756,0,0,0-.755.757q0,.028,0,.055a32.727,32.727,0,0,1-5.879,21.765,2.083,2.083,0,0,0-.377,1.262l.806,24.917a2.157,2.157,0,0,0,2.139,2.082h16.663a2.158,2.158,0,0,0,2.14-2.119l.31-24.193A4.366,4.366,0,0,0,262.156,251.871Z" transform="translate(-198.692 -154.475)" fill="#c1c0c0"/><path d="M262.229,292.166h-14.5a1.489,1.489,0,0,0-1.472,1.715l2.192,14.246h12.585l2.662-14.2a1.489,1.489,0,0,0-1.464-1.763Z" transform="translate(-201.404 -186.493)" fill="#fff"/><path d="M417.956,369.345H410.98a.925.925,0,0,0-.925.925v3.062a.925.925,0,0,0,.925.925h1.156v4.587H416.8v-4.587h1.156a.925.925,0,0,0,.925-.925V370.27A.925.925,0,0,0,417.956,369.345Z" transform="translate(-283.83 -225.326)" fill="#c1c0c0"/><path d="M418.44,402.106a35.861,35.861,0,0,1-6.239-21.262.756.756,0,0,0-.59-.755v-1.323h-7.367v1.3h-.1a.756.756,0,0,0-.755.757c0,.018,0,.037,0,.055a32.727,32.727,0,0,1-5.879,21.765,2.083,2.083,0,0,0-.377,1.262l.806,24.917a2.157,2.157,0,0,0,2.139,2.082H416.74a2.158,2.158,0,0,0,2.14-2.119l.31-24.193A4.366,4.366,0,0,0,418.44,402.106Z" transform="translate(-277.328 -230.067)" fill="#c1c0c0"/><path d="M418.514,442.4h-14.5a1.489,1.489,0,0,0-1.472,1.715l2.192,14.246h12.585l2.662-14.2a1.489,1.489,0,0,0-1.464-1.763Z" transform="translate(-280.039 -262.085)" fill="#fff"/><path d="M246.14,581.733h-3.309a.439.439,0,0,0-.439.439v1.452a.439.439,0,0,0,.439.439h.548v2.176h2.212v-2.176h.548a.439.439,0,0,0,.439-.439v-1.452a.439.439,0,0,0-.439-.439Z" transform="translate(-199.469 -332.191)" fill="#c1c0c0"/><path d="M246.369,597.272a17.01,17.01,0,0,1-2.959-10.085.359.359,0,0,0-.28-.358V586.2h-3.494v.619h-.048a.359.359,0,0,0-.358.359c0,.009,0,.017,0,.026a15.524,15.524,0,0,1-2.789,10.324.988.988,0,0,0-.179.6l.382,11.819a1.023,1.023,0,0,0,1.014.988h7.9a1.023,1.023,0,0,0,1.015-1l.147-11.476A2.071,2.071,0,0,0,246.369,597.272Z" transform="translate(-196.385 -334.439)" fill="#c1c0c0"/><rect width="7.542" height="3.771" transform="translate(41.306 267.178)" fill="#fff"/><path d="M277.14,581.733h-3.309a.439.439,0,0,0-.439.439v1.452a.439.439,0,0,0,.439.439h.548v2.176h2.212v-2.176h.548a.439.439,0,0,0,.439-.439v-1.452a.439.439,0,0,0-.439-.439Z" transform="translate(-215.067 -332.191)" fill="#c1c0c0"/><path d="M277.369,597.272a17.011,17.011,0,0,1-2.959-10.085.359.359,0,0,0-.28-.358V586.2h-3.494v.619h-.048a.359.359,0,0,0-.358.359c0,.009,0,.017,0,.026a15.524,15.524,0,0,1-2.789,10.324.989.989,0,0,0-.179.6l.382,11.819a1.023,1.023,0,0,0,1.014.988h7.9a1.023,1.023,0,0,0,1.015-1l.147-11.476A2.071,2.071,0,0,0,277.369,597.272Z" transform="translate(-211.983 -334.439)" fill="#c1c0c0"/><rect width="7.542" height="3.771" transform="translate(56.708 267.178)" fill="#fff"/><path d="M308.14,581.733h-3.309a.439.439,0,0,0-.439.439v1.452a.439.439,0,0,0,.439.439h.548v2.176h2.212v-2.176h.548a.439.439,0,0,0,.439-.439v-1.452a.439.439,0,0,0-.439-.439Z" transform="translate(-230.665 -332.191)" fill="#c1c0c0"/><path d="M308.369,597.272a17.011,17.011,0,0,1-2.959-10.085.359.359,0,0,0-.28-.358V586.2h-3.494v.619h-.048a.359.359,0,0,0-.358.359c0,.009,0,.017,0,.026a15.525,15.525,0,0,1-2.789,10.324.988.988,0,0,0-.179.6l.382,11.819a1.023,1.023,0,0,0,1.014.988h7.9a1.023,1.023,0,0,0,1.015-1l.147-11.476A2.071,2.071,0,0,0,308.369,597.272Z" transform="translate(-227.581 -334.439)" fill="#c1c0c0"/><rect width="7.542" height="3.771" transform="translate(72.11 267.178)" fill="#fff"/><path d="M393.567,523.613h-6.975a.925.925,0,0,0-.925.925V527.6a.925.925,0,0,0,.925.925h1.156v4.587h4.663v-4.587h1.156a.925.925,0,0,0,.925-.925v-3.062A.925.925,0,0,0,393.567,523.613Z" transform="translate(-271.559 -302.947)" fill="#c1c0c0"/><path d="M394.051,556.374a35.861,35.861,0,0,1-6.239-21.262.756.756,0,0,0-.59-.755v-1.323h-7.367v1.3h-.1a.756.756,0,0,0-.755.757c0,.018,0,.037,0,.055a32.728,32.728,0,0,1-5.879,21.765,2.083,2.083,0,0,0-.377,1.262l.806,24.917a2.157,2.157,0,0,0,2.139,2.082h16.663a2.158,2.158,0,0,0,2.14-2.118l.31-24.193A4.366,4.366,0,0,0,394.051,556.374Z" transform="translate(-265.056 -307.688)" fill="#c1c0c0"/><path d="M394.124,596.668h-14.5a1.489,1.489,0,0,0-1.472,1.716l2.192,14.246h12.585l2.662-14.2a1.489,1.489,0,0,0-1.464-1.763Z" transform="translate(-267.768 -339.705)" fill="#fff"/><path d="M367.124,284.132h-41.58c2.907-15.717,2.238-34.7,0-55.105h41.58C364.945,249.437,364.294,268.416,367.124,284.132Z" transform="translate(-241.307 -154.724)" fill="#c1c0c0"/><circle cx="10.019" cy="10.019" r="10.019" transform="translate(95.258 90.334)" fill="#fff"/><path d="M290.494,431.342h-41.58c2.907-15.717,2.238-34.7,0-55.105h41.58C288.315,396.647,287.664,415.626,290.494,431.342Z" transform="translate(-202.75 -228.794)" fill="#c1c0c0"/><circle cx="10.019" cy="10.019" r="10.019" transform="translate(57.185 163.474)" fill="#fff"/><path d="M414.513,291.19h-41.58c2.907-15.717,2.238-34.7,0-55.105h41.58C412.334,256.5,411.683,275.474,414.513,291.19Z" transform="translate(-265.152 -158.275)" fill="#e6e6e6"/><circle cx="10.019" cy="10.019" r="10.019" transform="translate(118.802 93.841)" fill="#fff"/><path d="M414.513,286.149h-41.58c2.907-15.717,2.238-34.7,0-55.105h41.58C412.334,251.454,411.683,270.433,414.513,286.149Z" transform="translate(-265.152 -155.739)" fill="#e6e6e6"/><circle cx="10.019" cy="10.019" r="10.019" transform="translate(118.802 91.335)" fill="#fff"/><path d="M414.513,291.19h-41.58c2.907-15.717,2.238-34.7,0-55.105h41.58C412.334,256.5,411.683,275.474,414.513,291.19Z" transform="translate(-265.152 -158.275)" fill="#c1c0c0"/><circle cx="10.019" cy="10.019" r="10.019" transform="translate(118.802 93.841)" fill="#fff"/><rect width="136.261" height="15.029" transform="translate(22.619 126.403)" fill="#e6e6e6"/><rect width="136.261" height="15.029" transform="translate(22.619 201.045)" fill="#c1c0c0"/><rect width="136.261" height="15.029" transform="translate(22.619 275.688)" fill="#c1c0c0"/><path d="M918.477,687.2l-33.947-24.01c11.449-11.153,21.862-27.034,31.821-44.99l33.947,24.01C936.733,657.614,925.242,672.733,918.477,687.2Z" transform="translate(-522.566 -350.539)" fill="#45bf55"/><circle cx="10.019" cy="10.019" r="10.019" transform="translate(385.9 291.058)" fill="#fff"/><path d="M618.988,536.554h-3.726a.494.494,0,0,0-.494.494v1.635a.494.494,0,0,0,.494.494h.617v2.451h2.491v-2.451h.617a.494.494,0,0,0,.494-.494v-1.635a.494.494,0,0,0-.494-.494Z" transform="translate(-386.833 -309.459)" fill="#e6e6e6"/><path d="M619.246,554.055a19.157,19.157,0,0,1-3.333-11.358.4.4,0,0,0-.315-.4v-.707h-3.936v.7h-.054a.4.4,0,0,0-.4.4c0,.01,0,.02,0,.029a17.484,17.484,0,0,1-3.141,11.627,1.113,1.113,0,0,0-.2.674l.43,13.311a1.152,1.152,0,0,0,1.143,1.112h8.9a1.153,1.153,0,0,0,1.143-1.132l.166-12.924A2.332,2.332,0,0,0,619.246,554.055Z" transform="translate(-383.359 -311.991)" fill="#45bf55"/><path d="M619.54,537.627a1.066,1.066,0,0,1-2.132,0" transform="translate(-388.162 -309.999)" opacity="0.2"/><rect width="7.514" height="5.01" transform="translate(226.64 244.629)" fill="#fff"/><path d="M852.6,641.218h-6.975a.925.925,0,0,0-.925.925V645.2a.925.925,0,0,0,.925.925h1.156v4.587h4.664v-4.587H852.6a.925.925,0,0,0,.925-.925v-3.062a.925.925,0,0,0-.925-.925Z" transform="translate(-502.526 -362.121)" fill="#e6e6e6"/><path d="M853.086,673.979a35.86,35.86,0,0,1-6.239-21.262.757.757,0,0,0-.59-.755V650.64H838.89v1.3h-.1a.756.756,0,0,0-.755.757c0,.018,0,.037,0,.055a32.727,32.727,0,0,1-5.879,21.766,2.082,2.082,0,0,0-.377,1.262l.806,24.917a2.157,2.157,0,0,0,2.138,2.082h16.663a2.158,2.158,0,0,0,2.14-2.119l.31-24.192A4.367,4.367,0,0,0,853.086,673.979Z" transform="translate(-496.023 -366.862)" fill="#45bf55"/><path d="M853.635,643.226a2,2,0,1,1-3.99,0" transform="translate(-505.013 -363.132)" opacity="0.2"/><path d="M853.159,714.273h-14.5a1.489,1.489,0,0,0-1.472,1.715l2.192,14.246h12.585l2.662-14.2a1.489,1.489,0,0,0-1.464-1.763Z" transform="translate(-498.735 -398.88)" fill="#fff"/><path d="M778.438,701.19h-41.58c2.907-15.717,2.238-34.7,0-55.105h41.58C776.259,666.495,775.608,685.473,778.438,701.19Z" transform="translate(-448.264 -364.57)" fill="#45bf55"/><circle cx="10.019" cy="10.019" r="10.019" transform="translate(299.616 297.545)" fill="#fff"/><path d="M322.243,306.982l9.334-.849,5.94-14.425-10.607-5.94Z" transform="translate(-162.139 -143.787)" fill="#ffb8b8"/><path d="M629.192,479.471h0a5.263,5.263,0,0,0-4.572-7.212l-14.493-.864-2.134,7.1,14.92,4.1A5.263,5.263,0,0,0,629.192,479.471Z" transform="translate(-383.424 -276.673)" fill="#ffb8b8"/><path d="M547.044,443.853l-.16-13.315L514.693,425.4l-24.8-28.443a8.118,8.118,0,0,0-10.58-1.447h0a8.117,8.117,0,0,0-1.414,12.382l20.46,25.179Z" transform="translate(-316.838 -237.82)" fill="#575a89"/><path d="M463.726,650.411h8.486l21.048-95.162,21.805,29.4,12.729,63.643h8.061l-1.7-68.31L505.73,507h-28c-7.653,13.849-13.656,28.125-6.789,42.853Z" transform="translate(-310.835 -294.59)" fill="#2f2e41"/><path d="M582.1,797.343a2.215,2.215,0,0,0,1.727,2.841l20.765,3.685a3.417,3.417,0,0,0,3.876-2.342h0a3.4,3.4,0,0,0-1.661-4.037,31.751,31.751,0,0,1-11.451-9.956c-2.282,2.125-4.833,1.925-7.542.359l-2.873.359Z" transform="translate(-370.346 -435.741)" fill="#2f2e41"/><path d="M455.716,797.343a2.214,2.214,0,0,0,1.727,2.841l20.765,3.685a3.417,3.417,0,0,0,3.876-2.342h0a3.4,3.4,0,0,0-1.661-4.037,31.75,31.75,0,0,1-11.451-9.956c-2.282,2.125-4.833,1.925-7.542.359l-2.873.359Z" transform="translate(-306.754 -435.741)" fill="#2f2e41"/><circle cx="11.88" cy="11.88" r="11.88" transform="translate(163.71 129.465)" fill="#ffb8b8"/><path d="M478.451,450.889l30.973-.849-9.1-28.628c5.653-9.062-.036-18.115-8.088-27.166L485.876,390l-10.183-.849h0a25,25,0,0,0-6.732,17.414A112.182,112.182,0,0,0,478.451,450.889Z" transform="translate(-313.468 -235.294)" fill="#575a89"/><path d="M611.945,537.077h0a5.263,5.263,0,0,0-1.366-8.43l-12.984-6.5-4.753,5.684,12.1,9.636A5.263,5.263,0,0,0,611.945,537.077Z" transform="translate(-375.801 -302.212)" fill="#ffb8b8"/><path d="M549.361,473.735l5.091-12.3-27.576-17.386-11.611-35.906a8.117,8.117,0,0,0-9.158-5.492h0a8.118,8.118,0,0,0-6.171,10.828l8.905,31.2Z" transform="translate(-328.797 -242.017)" fill="#575a89"/><path d="M470.13,340.235c0,4.623,3,11.781,6.789,14.85,2.548,2.065,5.915,1.978,7.213-.849a33.626,33.626,0,0,1,14-14c10.77-5.715-3.82-15.492-14-14C476.48,327.354,470.13,332.5,470.13,340.235Z" transform="translate(-314.057 -203.557)" fill="#2f2e41"/><circle cx="8.486" cy="8.486" r="8.486" transform="translate(154.8 113.342)" fill="#2f2e41"/><path d="M496.34,310.109a8.48,8.48,0,0,0-7.849-8.454c.211-.016.422-.032.636-.032a8.486,8.486,0,1,1,0,16.971c-.215,0-.426-.016-.636-.032A8.48,8.48,0,0,0,496.34,310.109Z" transform="translate(-323.296 -191.252)" fill="#2f2e41"/><ellipse cx="1.909" cy="2.546" rx="1.909" ry="2.546" transform="translate(173.893 140.496)" fill="#ffb8b8"/><path d="M651.471,544.92h-132.1L491.4,412.685H467.529v-5.933h28.682l27.973,132.234H651.471Z" transform="translate(-235.241 -204.661)" fill="#3f3d56"/><circle cx="12.715" cy="12.715" r="12.715" transform="translate(290.776 338.988)" fill="#3f3d56"/><circle cx="12.715" cy="12.715" r="12.715" transform="translate(385.714 338.988)" fill="#3f3d56"/><path d="M835.783,645.209H707.26L684.584,533.145H857.063a6.094,6.094,0,0,1,6.02,7.039L841.8,640.061a6.063,6.063,0,0,1-6.018,5.147Zm-127.126-1.7H835.783a4.375,4.375,0,0,0,4.344-3.715l21.281-99.878a4.4,4.4,0,0,0-4.344-5.08H686.642Z" transform="translate(-421.962 -307.743)" fill="#3f3d56"/><path d="M609.474,566.092,594.623,455.373l1.672-.276,14.85,110.719Z" transform="translate(-299.19 -228.986)" fill="#3f3d56"/><path d="M789.017,565.245l-1.674-.271L801.76,455.1l1.674.271Z" transform="translate(-396.158 -228.988)" fill="#3f3d56"/><rect width="1.695" height="110.719" transform="translate(351.821 226.249)" fill="#3f3d56"/><rect width="1.695" height="164.105" transform="translate(271.278 257.611) rotate(-89.861)" fill="#3f3d56"/><rect width="144.173" height="1.695" transform="translate(279.64 309.273) rotate(-0.392)" fill="#3f3d56"/><ellipse cx="9.324" cy="5.086" rx="9.324" ry="5.086" transform="translate(225.507 199.124)" fill="#3f3d56"/></g></svg>