<svg xmlns="http://www.w3.org/2000/svg" width="417.243" height="319.523" viewBox="0 0 417.243 319.523"><g transform="translate(0 -0.006)"><path d="M531.649,131.884A101.616,101.616,0,0,0,515.1,105.512l-229.621-2.263L474.534,76.7a107.4,107.4,0,0,0-38.36-7.608,107.51,107.51,0,0,0-128.426-4.345A107.048,107.048,0,0,0,258.6,52.893c-51.02,0-93.531,35.338-103.067,82.194Z" transform="translate(-122.479 -45.55)" fill="#45bf55" opacity="0.1"/><path d="M489.1,306.782a99.27,99.27,0,0,0-7.154-37.092L83.991,311.463a99.938,99.938,0,0,0-9.31,23.547l123.244,18.368L71.86,366.772c3.792,53.046,49.266,94.933,104.816,94.933a106.353,106.353,0,0,0,72.2-27.923,106.351,106.351,0,0,0,72.8,28.484c41.938,0,78.133-23.878,94.989-58.4,33.817-10.732,60.085-37.68,69.076-71.394L329.9,308.3h159.19C489.1,307.793,489.1,307.287,489.1,306.782Z" transform="translate(-71.86 -181.148)" fill="#45bf55" opacity="0.1"/><ellipse cx="10.199" cy="1.402" rx="10.199" ry="1.402" transform="translate(0.905 290.436)" fill="#45bf55" opacity="0.1"/><ellipse cx="10.199" cy="1.402" rx="10.199" ry="1.402" transform="translate(39.975 294.398)" fill="#45bf55" opacity="0.1"/><ellipse cx="10.199" cy="1.402" rx="10.199" ry="1.402" transform="translate(85.998 289.034)" fill="#45bf55" opacity="0.1"/><ellipse cx="7.252" cy="0.995" rx="7.252" ry="0.995" transform="translate(27.283 306.087)" fill="#45bf55" opacity="0.1"/><ellipse cx="7.252" cy="0.995" rx="7.252" ry="0.995" transform="translate(67.839 305.091)" fill="#45bf55" opacity="0.1"/><path d="M190.642,674.958s-14.307-46.9,2.236-65.679c12.38-14.055,26.426-12.372,32.719-10.634a11.629,11.629,0,0,1,7.505,6.237c2.2,4.74,1.8,12.447-13.727,21.437-26,15.054-27.615,35.7-27.615,35.7Z" transform="translate(-140.246 -379.473)" fill="#45bf55"/><path d="M230.038,617.23s-42.172,13.186-32.715,69.66" transform="translate(-146.928 -391.406)" fill="none" stroke="#565987" stroke-miterlimit="10" stroke-width="1"/><path d="M219.91,629.2s5.807,3.911,3.95,9.792" transform="translate(-161.428 -398.648)" fill="none" stroke="#565987" stroke-miterlimit="10" stroke-width="1"/><path d="M259.5,634.6s-3.555-3.61-7.869-1.62" transform="translate(-180.619 -400.574)" fill="none" stroke="#565987" stroke-miterlimit="10" stroke-width="1"/><path d="M217.335,682.167s-6.233-3.16-7.845.79" transform="translate(-155.124 -429.968)" fill="none" stroke="#565987" stroke-miterlimit="10" stroke-width="1"/><path d="M190.3,700.645s4.681-.371,4.768,1.868" transform="translate(-143.515 -441.857)" fill="none" stroke="#565987" stroke-miterlimit="10" stroke-width="1"/><path d="M198,743.451s16.756-34.086,21.358-33.339c2.184.356,3.192,2.5,3.65,4.665a13.746,13.746,0,0,1-.912,8.319C219.726,728.527,213.319,738.9,198,743.451Z" transform="translate(-148.173 -447.591)" fill="#45bf55"/><path d="M219.583,726.51S202,752.012,198.6,753.13" transform="translate(-148.536 -457.519)" fill="none" stroke="#565987" stroke-miterlimit="10" stroke-width="1"/><line x1="4.104" transform="translate(68.562 272.969)" fill="none" stroke="#565987" stroke-miterlimit="10" stroke-width="1"/><line x1="6.431" y2="0.277" transform="translate(61.318 282.299)" fill="none" stroke="#565987" stroke-miterlimit="10" stroke-width="1"/><line x2="0.699" y2="3.35" transform="translate(63.834 274.837)" fill="none" stroke="#565987" stroke-miterlimit="10" stroke-width="1"/><line x2="0.126" y2="3.046" transform="translate(56.992 285.036)" fill="none" stroke="#565987" stroke-miterlimit="10" stroke-width="1"/><path d="M160.513,743.451s-16.756-34.086-21.358-33.339c-2.184.356-3.192,2.5-3.65,4.665a13.719,13.719,0,0,0,.916,8.3C138.8,728.527,145.183,738.9,160.513,743.451Z" transform="translate(-110.201 -447.591)" fill="#45bf55"/><path d="M145.48,726.51s17.586,25.5,20.983,26.62" transform="translate(-116.399 -457.519)" fill="none" stroke="#565987" stroke-miterlimit="10" stroke-width="1"/><line x2="4.104" transform="translate(27.465 272.969)" fill="none" stroke="#565987" stroke-miterlimit="10" stroke-width="1"/><line x2="6.435" y2="0.277" transform="translate(32.379 282.299)" fill="none" stroke="#565987" stroke-miterlimit="10" stroke-width="1"/><line x1="0.699" y2="3.35" transform="translate(35.598 274.837)" fill="none" stroke="#565987" stroke-miterlimit="10" stroke-width="1"/><line x1="0.126" y2="3.046" transform="translate(43.013 285.036)" fill="none" stroke="#565987" stroke-miterlimit="10" stroke-width="1"/><path d="M257.857,807.623a2.907,2.907,0,0,0,.956-1.438,1.28,1.28,0,0,0-.668-1.465c-.612-.237-1.268.19-1.762.616a2.366,2.366,0,0,1-1.714.829,2.611,2.611,0,0,0,.79-2.441,1.019,1.019,0,0,0-.221-.5c-.34-.363-.956-.205-1.363.079-1.3.909-1.655,2.666-1.663,4.25a8.09,8.09,0,0,1-.024-1.75,1.787,1.787,0,0,0-.66-1.548,1.927,1.927,0,0,0-1-.237,2.154,2.154,0,0,0-1.627.462,1.617,1.617,0,0,0,.063,2,6.368,6.368,0,0,0,1.683,1.347,3.756,3.756,0,0,1,1.185,1.146,1.187,1.187,0,0,1,.087.205h3.646A10.11,10.11,0,0,0,257.857,807.623Z" transform="translate(-178.776 -503.803)" fill="#45bf55"/><path d="M96.223,772.871a2.9,2.9,0,0,0,.956-1.438,1.288,1.288,0,0,0-.668-1.469c-.612-.233-1.264.193-1.762.62a2.362,2.362,0,0,1-1.714.826,2.6,2.6,0,0,0,.79-2.441,1.031,1.031,0,0,0-.225-.494c-.34-.363-.956-.209-1.363.079-1.3.909-1.655,2.666-1.663,4.25a8.125,8.125,0,0,1-.024-1.754,1.777,1.777,0,0,0-.656-1.544,1.944,1.944,0,0,0-1-.237,2.066,2.066,0,0,0-1.627.462,1.588,1.588,0,0,0,.063,1.975,6.26,6.26,0,0,0,1.687,1.351A3.7,3.7,0,0,1,90.2,774.2a1.4,1.4,0,0,1,.091.205h3.646A10.175,10.175,0,0,0,96.223,772.871Z" transform="translate(-80.987 -482.778)" fill="#45bf55"/><path d="M150.1,807.623a2.907,2.907,0,0,0,.956-1.438,1.28,1.28,0,0,0-.668-1.466c-.612-.237-1.268.19-1.762.616a2.366,2.366,0,0,1-1.714.83,2.611,2.611,0,0,0,.79-2.441,1.019,1.019,0,0,0-.221-.5c-.34-.363-.956-.205-1.363.079-1.3.909-1.655,2.666-1.663,4.25a8.09,8.09,0,0,1-.024-1.75,1.785,1.785,0,0,0-.656-1.548,1.951,1.951,0,0,0-1-.237,2.159,2.159,0,0,0-1.627.462,1.617,1.617,0,0,0,.063,2,6.369,6.369,0,0,0,1.683,1.347,3.757,3.757,0,0,1,1.185,1.146,1.188,1.188,0,0,1,.087.206h3.646A10.107,10.107,0,0,0,150.1,807.623Z" transform="translate(-113.582 -503.804)" fill="#45bf55"/><path d="M311.311,744.43s1.367,1.789-.632,4.487-3.642,4.977-2.978,6.66c0,0,3.014-5.013,5.467-5.084S314.009,747.444,311.311,744.43Z" transform="translate(-214.45 -468.36)" fill="#45bf55"/><path d="M311.432,744.43a2.266,2.266,0,0,1,.28.561c2.394,2.813,3.666,5.435,1.367,5.5-2.145.063-4.712,3.895-5.329,4.863.02.075.043.146.071.221,0,0,3.014-5.013,5.467-5.084S314.129,747.444,311.432,744.43Z" transform="translate(-214.571 -468.36)" opacity="0.1"/><path d="M323.016,749.585c0,.628-.071,1.138-.158,1.138s-.158-.51-.158-1.138.091-.332.178-.332S323.016,748.957,323.016,749.585Z" transform="translate(-223.615 -471.236)" fill="#ffd037"/><path d="M324.06,751.431c-.553.3-1.035.482-1.074.4s.371-.4.924-.683.332-.083.375,0S324.613,751.13,324.06,751.431Z" transform="translate(-223.787 -472.331)" fill="#ffd037"/><path d="M294.1,744.43s-1.367,1.789.632,4.487,3.646,4.977,2.978,6.66c0,0-3.014-5.013-5.467-5.084S291.417,747.444,294.1,744.43Z" transform="translate(-204.459 -468.36)" fill="#45bf55"/><path d="M294.1,744.43a2.192,2.192,0,0,0-.277.561c-2.394,2.813-3.67,5.435-1.371,5.5,2.145.063,4.716,3.895,5.333,4.863-.024.075-.047.146-.075.221,0,0-3.014-5.013-5.467-5.084S291.417,747.444,294.1,744.43Z" transform="translate(-204.459 -468.36)" opacity="0.1"/><path d="M292.36,749.585c0,.628.071,1.138.158,1.138s.158-.51.158-1.138-.087-.332-.174-.332S292.36,748.957,292.36,749.585Z" transform="translate(-205.26 -471.236)" fill="#ffd037"/><path d="M289.616,751.431c.553.3,1.035.482,1.078.4s-.375-.4-.924-.683-.336-.083-.4,0S289.067,751.13,289.616,751.431Z" transform="translate(-203.389 -472.331)" fill="#ffd037"/><path d="M293.46,768.887s3.824-.115,4.973-.936,5.878-1.8,6.166-.486,5.74,6.541,1.426,6.577-10.021-.672-11.171-1.371S293.46,768.887,293.46,768.887Z" transform="translate(-205.925 -481.907)" fill="#a8a8a8"/><path d="M306.1,776.741c-4.314.036-10.025-.672-11.175-1.371-.877-.533-1.225-2.445-1.339-3.33h-.13s.245,3.085,1.394,3.784,6.857,1.406,11.171,1.371c1.248,0,1.675-.454,1.651-1.11C307.5,776.488,307.029,776.733,306.1,776.741Z" transform="translate(-205.925 -485.064)" opacity="0.2"/><ellipse cx="130.125" cy="5.901" rx="130.125" ry="5.901" transform="translate(111.777 307.726)" fill="#45bf55" opacity="0.1"/><path d="M628.882,390.42s8.3,15.694,8.939,17.934a3.026,3.026,0,0,0,2.8,2.236s8.264,1.975,10.239,2.24,19.095,1.71,19.095,1.71,4.345.134,4.87-1.446c.482-1.446,8.876-9.042,13.735-2.414a4.831,4.831,0,0,1,.7,4.314c-.893,2.844-2.726,7.359-4.693,4.551-2.765-3.95-5.98-2.84-5.98-.735s-4.424,1.323-5.87,1.62c-.79.162-3.508.885-5.858,1.517a42.662,42.662,0,0,1-8.343,1.387c-4.665.3-11.542.557-13.979-.363-2.943-1.118-8.074-1.375-10.27-1.434a3.377,3.377,0,0,1-2-.719,31.242,31.242,0,0,1-7.6-8.647c-3.425-5.925-10.468-18.194-9.994-21.749S628.882,390.42,628.882,390.42Z" transform="translate(-400.237 -253.233)" fill="#efb7b9"/><path d="M628.882,390.42s8.3,15.694,8.939,17.934a3.026,3.026,0,0,0,2.8,2.236s8.264,1.975,10.239,2.24,19.095,1.71,19.095,1.71,4.345.134,4.87-1.446c.482-1.446,8.876-9.042,13.735-2.414a4.831,4.831,0,0,1,.7,4.314c-.893,2.844-2.726,7.359-4.693,4.551-2.765-3.95-5.98-2.84-5.98-.735s-4.424,1.323-5.87,1.62c-.79.162-3.508.885-5.858,1.517a42.662,42.662,0,0,1-8.343,1.387c-4.665.3-11.542.557-13.979-.363-2.943-1.118-8.074-1.375-10.27-1.434a3.377,3.377,0,0,1-2-.719,31.242,31.242,0,0,1-7.6-8.647c-3.425-5.925-10.468-18.194-9.994-21.749S628.882,390.42,628.882,390.42Z" transform="translate(-400.237 -253.233)" opacity="0.05"/><path d="M847.327,584.1c-3.757,4.084-6.522,5.692-6.391,1.383.4-13.035-22.516-71.971-22.516-71.971l6.774-.513C839.98,538.474,845.478,564.672,847.327,584.1Z" transform="translate(-523.52 -328.348)" fill="none"/><path d="M873.587,715.046a32.589,32.589,0,0,1-65.055,2.765c-.047-.529-.083-1.059-.1-1.58V716.2q-.024-.589-.024-1.185a32.588,32.588,0,1,1,65.177,0Z" transform="translate(-517.464 -430.851)" fill="#65617d"/><circle cx="17.776" cy="17.776" r="17.776" transform="translate(305.759 266.4)" fill="#dce0ed"/><circle cx="10.665" cy="10.665" r="10.665" transform="translate(312.869 273.51)" fill="#65617d"/><path d="M554.063,571.624,475.59,573.2V561.638c.7-9.31,10.27-12.577,18.961-13.6a54.425,54.425,0,0,1,20.276,1.521c16.65,4.408,27.256,5.262,32.482,5.344a4.981,4.981,0,0,1,4.819,4.053c.249,1.323.494,2.765.723,4.187.174,1.114.34,2.212.49,3.235C553.775,569.325,554.063,571.624,554.063,571.624Z" transform="translate(-316.112 -349.335)" fill="#65617d"/><path d="M573.327,614.617H410.31a6.419,6.419,0,0,1-5.945-3.843c-1.229-2.935.49-4.807,2.323-5.905a18.466,18.466,0,0,0,8.027-9.82c1.738-5.135,3.437-13.17,4.1-25.723.687-12.984,5.388-19.4,10.468-22.516h0a20.726,20.726,0,0,1,13.754-2.508l66.1.529a12.7,12.7,0,0,1,3.227,2.105c5.89,5.483-2.7,12.64-2.7,12.64-18.435,19.486-4.479,39.237-4.479,39.237h33.821a31.123,31.123,0,0,0,17.716-5.424c4.57-3.16,6.32-6.214,7.023-8.062.521-1.414,1.051-2.824,1.683-4.191,8.872-19.241-1.829-50.542-6.447-62.246-1.146-2.911-1.916-4.61-1.916-4.61l10.606-.79,6.715-.51h.067c14.781,25.494,20.276,51.691,22.121,71.1.174,1.829.316,3.6.431,5.3a23.7,23.7,0,0,1-23.681,25.229Z" transform="translate(-272.771 -328.336)" fill="#45bf55"/><path d="M553.344,590.045H475.59V586.81h77.264C553.028,587.9,553.194,589,553.344,590.045Z" transform="translate(-316.112 -373.002)" opacity="0.1"/><path d="M551.179,594.541H468.724a1.58,1.58,0,0,1-.624-.126,20.725,20.725,0,0,1,13.754-2.508l66.1.529A12.7,12.7,0,0,1,551.179,594.541Z" transform="translate(-311.58 -375.918)" opacity="0.1"/><rect width="115.225" height="3.235" rx="1.618" transform="translate(126.676 214.578)" fill="#dce0ed"/><path d="M847.327,584.1c-3.757,4.084-6.522,5.692-6.391,1.383.4-13.035-22.516-71.971-22.516-71.971l6.774-.513C839.98,538.474,845.478,564.672,847.327,584.1Z" transform="translate(-523.52 -328.348)" opacity="0.1"/><path d="M873.432,711.515c-3.891.932-8.69,1.88-14.615,2.765q-3.306.486-7.11.932c-6.056.719-13.059,1.347-21.149,1.829q-3.437.205-7.138.375-6.932.316-14.841.482l-.1-1.58v-.028c7.367-2.974,18.961-10.91,20.825-31.581a32.6,32.6,0,0,1,44.131,26.837Z" transform="translate(-517.506 -430.911)" opacity="0.1"/><path d="M792.92,676.767s37.408-4.061,24.522-61.057c0,0,18.483,16.946,29.981,26.363s32,22.4,32,22.4S867.182,675.91,792.92,676.767Z" transform="translate(-508.093 -390.486)" fill="#45bf55"/><path d="M792.92,676.767s37.408-4.061,24.522-61.057c0,0,18.483,16.946,29.981,26.363s32,22.4,32,22.4S867.182,675.91,792.92,676.767Z" transform="translate(-508.093 -390.486)" fill="#fff" opacity="0.1"/><circle cx="32.589" cy="32.589" r="32.589" transform="translate(152.301 251.587)" fill="#65617d"/><circle cx="17.776" cy="17.776" r="17.776" transform="translate(167.114 266.4)" fill="#dce0ed"/><circle cx="10.665" cy="10.665" r="10.665" transform="translate(174.224 273.51)" fill="#65617d"/><path d="M518.077,681.813c0-21.042-16.713-38.1-37.329-38.1s-37.329,17.061-37.329,38.1q0,1.335.091,2.643h74.476Q518.077,683.148,518.077,681.813Z" transform="translate(-296.649 -407.426)" opacity="0.1"/><path d="M518.812,682.313c0-20.264-16.093-36.693-35.946-36.693s-35.946,16.429-35.946,36.693c0,.857.032,1.7.087,2.544h71.718C518.781,684.015,518.812,683.17,518.812,682.313Z" transform="translate(-298.767 -408.581)" fill="#45bf55"/><path d="M518.812,682.313c0,.589,0,1.185-.043,1.754,0,.265-.028.525-.043.79H447.007c0-.265-.032-.525-.043-.79-.028-.581-.043-1.185-.043-1.754,0-20.264,16.093-36.693,35.946-36.693S518.812,662.049,518.812,682.313Z" transform="translate(-298.767 -408.581)" fill="#fff" opacity="0.1"/><path d="M518.835,743c0,.265-.028.525-.043.79H447.073c0-.265-.032-.525-.043-.79Z" transform="translate(-298.833 -467.495)" opacity="0.1"/><rect width="96.573" height="8.426" rx="4.213" transform="translate(132.428 277.065)" opacity="0.1"/><rect width="96.573" height="8.426" rx="4.213" transform="translate(132.428 276.275)" fill="#dce0ed"/><ellipse cx="4.732" cy="11.914" rx="4.732" ry="11.914" transform="translate(303.25 201.562) rotate(-24.33)" opacity="0.1"/><ellipse cx="4.732" cy="11.914" rx="4.732" ry="11.914" transform="translate(303.645 201.166) rotate(-24.33)" fill="#dce0ed"/><path d="M808.9,513v6.19H796.855a20.753,20.753,0,0,1-3.35-.269c-1.146-2.911-1.916-4.61-1.916-4.61l10.606-.79Z" transform="translate(-507.288 -328.348)" opacity="0.1"/><path d="M787.626,469.955H775.578c-10.582,0-19.158-7.9-19.158-17.685v-1.639c0-9.765,8.576-17.681,19.158-17.681l12.048,1.094Z" transform="translate(-486.01 -279.919)" fill="#45bf55"/><path d="M765.357,458.845s7.209,3.851,3.061,10.369c0,0-5.088,8.343-13.087,7.553l-2.911-17.922S762,457.956,765.357,458.845Z" transform="translate(-483.591 -295.346)" fill="#45bf55"/><path d="M762.6,458.49a7.663,7.663,0,0,1,5.862,3.089c1.284,1.778,2.05,4.369-.024,7.628,0,0-5.088,8.343-13.087,7.553l-2.911-17.922A84.994,84.994,0,0,1,762.6,458.49Z" transform="translate(-483.603 -295.338)" opacity="0.1"/><path d="M762.56,390.17h2.323a7.355,7.355,0,0,1,7.355,7.355v21.2a7.355,7.355,0,0,1-7.355,7.355H762.56Z" transform="translate(-461.34 -236.044)" opacity="0.1"/><path d="M763.56,390.17h2.323a7.355,7.355,0,0,1,7.355,7.355v21.2a7.355,7.355,0,0,1-7.355,7.355H763.56Z" transform="translate(-461.945 -236.044)" fill="#dce0ed"/><path d="M618.88,524.88s1.861.679,4.345,1.627c3.95,1.521,9.52,3.741,11.455,4.957s9.152,3.215,14.556,4.622a47.4,47.4,0,0,0,12.269,1.513c4.2-.039,9.295-.079,10.7-.079a4.427,4.427,0,0,1,.735.055c1.477.245,1.418,1.236,1.383,1.473v.051c-8.69,5.266-19.225,28.836-19.881,32.786-.494,2.963-4.835,11.175-6.976,15.1-.719,1.315-1.185,2.149-1.185,2.149l2.635,3.026,7.636,3.425,7.241,3.16s7.64.4,7.77,0,.13-4.476.13-4.476a21.567,21.567,0,0,1-2.639-2.007,43.65,43.65,0,0,1-4.867-4.973c-4.211-5,4.215-14.615,4.215-14.615l16.2-21.066s1.315-2.37,7.636-11.85,0-14.615,0-14.615l-11.124-4.618c-19.292-7.221-42.563-13.008-42.563-13.008l-.332-.043-4.934-.616Z" transform="translate(-402.8 -324.633)" fill="#efb7b9"/><path d="M706.865,719.089s1.383,1.631.348,1.778a17.2,17.2,0,0,1-3.753-.442l-17.234-9.085s-1.876-1.335-2.319,1.284-.743,2.37-.743,2.37-2.271,4.886,0,5.9,15.915,5.013,15.915,5.013,19.8,4.5,21.678-.691-3.358-4.294-3.358-4.294-6.518-1.58-8.742-4.74C708.642,716.178,705.435,717.066,706.865,719.089Z" transform="translate(-441.081 -448.135)" fill="#444053"/><path d="M692.218,525.145l-11.124-4.618c-19.292-7.221-42.563-13.008-42.563-13.008l-.332-.043-4.934-.616L618.88,524.88s1.861.679,4.345,1.627c3.95,1.521,9.52,3.741,11.455,4.957s9.152,3.215,14.556,4.622a47.4,47.4,0,0,0,12.269,1.513c4.2-.039,9.295-.079,10.7-.079a4.427,4.427,0,0,1,.735.055c1.477.245,1.418,1.236,1.383,1.473v.051c-8.69,5.266-19.225,28.836-19.881,32.786-.494,2.963-4.835,11.175-6.976,15.1l-.288.529c-.573-.095-1.288.111-1.541,1.6-.446,2.615-.743,2.37-.743,2.37s-2.271,4.886,0,5.9,15.9,5.013,15.9,5.013,19.8,4.5,21.678-.691-3.358-4.294-3.358-4.294-6.518-1.58-8.742-4.74a4.357,4.357,0,0,0-.577.213c-.233-.19-.482-.395-.747-.624a43.65,43.65,0,0,1-4.867-4.973c-4.211-5,4.215-14.615,4.215-14.615l16.2-21.066s1.315-2.37,7.636-11.85S692.218,525.145,692.218,525.145Z" transform="translate(-402.8 -324.633)" opacity="0.05"/><path d="M585.3,297.05l.6.758.336.423,2.094,2.635s5,1.6,9.378,2.643c4.562,1.078,8.453,1.548,5.36-1.031-1.92-1.6-2.046-4.278-1.347-7.15a29.587,29.587,0,0,1,2.512-6.36q.233-.45.462-.877a52.716,52.716,0,0,1,3.255-5.258,93.469,93.469,0,0,0-8.726-5.36c-3.618-1.872-6.589-2.69-4.7,1.015,1.209,2.37.814,5.032-.316,7.58-.087.2-.182.4-.28.6a27.169,27.169,0,0,1-3.729,5.487A43.3,43.3,0,0,1,585.3,297.05Z" transform="translate(-382.485 -184.898)" fill="#efb7b9"/><path d="M570.93,436.24l2.678,2.445,2.587,9.954h-4.317l-4.768-6.2Z" transform="translate(-343.095 -263.916)" fill="#444053"/><path d="M567.11,442.438l2.884,3.749,1.884,2.453H576.2l-.442-1.7-1.884-7.252-.261-1-2.678-2.445-3.658,5.933Z" transform="translate(-343.095 -263.916)" opacity="0.1"/><path d="M567.11,442.438l2.884,3.749,1.884,2.453H576.2l-.442-1.7-1.884-7.252-.261-1-2.678-2.445-3.658,5.933Z" transform="translate(-343.095 -263.916)" opacity="0.1"/><path d="M602.64,531.121s1.861.679,4.345,1.627c3.95,1.521,9.52,3.741,11.455,4.957s9.152,3.215,14.556,4.622a47.4,47.4,0,0,0,12.269,1.517c4.2-.039,9.295-.079,10.7-.079a4.428,4.428,0,0,1,.735.055c1.477.245,1.418,1.236,1.383,1.473v.051c-8.69,5.266-19.225,28.836-19.881,32.786-.494,2.963-4.835,11.175-6.976,15.1-.719,1.315-1.185,2.149-1.185,2.149l2.635,3.026,7.632,3.421,7.241,3.16s7.64.4,7.77,0,.13-4.475.13-4.475a21.569,21.569,0,0,1-2.639-2.007,43.644,43.644,0,0,1-4.867-4.973c-4.211-5,4.215-14.615,4.215-14.615l16.2-21.066s1.315-2.37,7.636-11.85,0-14.615,0-14.615l-10.136-5.795c-15.8-9.611-38.055-15.141-38.055-15.141l-.332-.043-4.934-.616Z" transform="translate(-392.975 -326.406)" fill="#efb7b9"/><path d="M672,723.157l2.635,3.026,7.636,3.425,7.241,3.16s7.64.395,7.77,0,.13-4.476.13-4.476a21.573,21.573,0,0,1-2.639-2.007c-.818.438-1.746,1.26-.849,2.532,0,0,1.383,1.627.348,1.778a16.958,16.958,0,0,1-3.753-.442l-17.234-9.085-.1-.067Z" transform="translate(-434.937 -454.185)" opacity="0.1"/><path d="M690.625,730.4s1.383,1.627.344,1.778a16.863,16.863,0,0,1-3.753-.446l-17.23-9.085s-1.876-1.331-2.323,1.284-.739,2.37-.739,2.37-2.271,4.89,0,5.9,15.9,5,15.9,5,19.8,4.491,21.674-.691-3.358-4.3-3.358-4.3-6.518-1.58-8.738-4.74C692.414,727.48,689.191,728.369,690.625,730.4Z" transform="translate(-431.256 -454.973)" fill="#444053"/><path d="M605.3,285.057c2.283,1.58,5.767,4.08,8.742,4.08a14.578,14.578,0,0,0,2.291-.182,53.4,53.4,0,0,1,3.717-6.135s-17.381-12.115-13.43-4.345C607.923,281.06,606.639,282.328,605.3,285.057Z" transform="translate(-394.585 -184.891)" opacity="0.1"/><path d="M591.43,249.66a14.2,14.2,0,0,0,6.482,11.929,13.056,13.056,0,0,0,1.39.79,14.22,14.22,0,1,0-7.873-12.727Z" transform="translate(-386.194 -160.423)" fill="#efb7b9"/><path d="M602.64,531.121s1.861.679,4.345,1.627a20.946,20.946,0,0,1,3.828-2.943c1.45-.529,6.19-3.294,6.059-4.084s1.975-3.816,3.816-4.345.79-3.291.79-3.291,3.555-1.315,4.44-3.16,3.595-4.215,2.67-4.081a2.868,2.868,0,0,1-1.122-.438l-4.934-.616Z" transform="translate(-392.975 -326.406)" opacity="0.1"/><path d="M567.551,517.055s6.06,5,6.34,7.241,4.325,2.109,4.325,2.109,6.059-5.795,7.505-6.32,6.19-3.294,6.06-4.084,1.975-3.816,3.816-4.345.79-3.29.79-3.29,3.555-1.315,4.44-3.16,3.595-4.215,2.67-4.08a6.693,6.693,0,0,1-2.153-1.023c-1.3-.79-2.947-1.861-4.29-2.765-1.422-.964-2.508-1.73-2.508-1.73s-.62-.111-1.683-.265c-5.732-.83-24.4-2.947-28.733,3.95a10.458,10.458,0,0,0-1.284,2.951C560.907,509.589,567.551,517.055,567.551,517.055Z" transform="translate(-368.686 -317.08)" fill="#444053"/><path d="M577.838,511.37s-6.186,3.492-8.493,3.492S577.838,511.37,577.838,511.37Z" transform="translate(-372.637 -327.362)" opacity="0.1"/><path d="M587.664,518s-9.212,3.1-9.212,5.53S577.591,517.015,587.664,518Z" transform="translate(-378.331 -331.328)" opacity="0.1"/><path d="M657.43,482.81l-.13.178A.4.4,0,0,0,657.43,482.81Z" transform="translate(-426.044 -310.083)" opacity="0.1"/><path d="M585.3,321.964l.6.758.336.423,2.094,2.635s5,1.6,9.378,2.643c4.562,1.078,8.453,1.548,5.36-1.031-1.92-1.6-2.046-4.278-1.347-7.15l-.138-.178s.138,2.662-1.438,2.714c-2.125.067-2.153-.648-4.112-1.473-2.524-1.067-5.111-2.848-5.838-4.235a43.3,43.3,0,0,1-4.894,4.894Z" transform="translate(-382.485 -209.813)" opacity="0.1"/><path d="M563.39,494.616a4.563,4.563,0,0,0,3.389.079c4.081-1.319,10.535-4.5,13.561-3.1,2.425,1.114,12.194,1.082,15.8.146.9-.233,1.41-.521,1.331-.861a2.371,2.371,0,0,1,.138-1.157,21.342,21.342,0,0,1,2.406-4.483l-.261-1-2.678-2.445-3.658,5.925c-5.732-.83-24.4-2.947-28.733,3.95A10.455,10.455,0,0,0,563.39,494.616Z" transform="translate(-369.23 -309.466)" opacity="0.1"/><path d="M555.846,392.225a4.48,4.48,0,0,0,5.661,2.37c4.08-1.315,10.535-4.5,13.561-3.1s17.515,1,17.12-.715,3.555-7.11,3.555-7.11-2.157-.4-3.492-7.438c-.2-1.027-.375-2.2-.525-3.524a44.846,44.846,0,0,1-.229-8.193c.533-7.624,3.2-10.736,3.2-10.736a8.863,8.863,0,0,0,.525-10.006c-1.655-3.038-8.335-11.455-8.426-15.208-.083-3.405-3.338-7.363-3.338-7.363s.138,2.662-1.438,2.714c-2.125.067-2.153-.648-4.112-1.473-2.88-1.217-5.838-3.362-6.032-4.8,0,0-12.072-.6-14.706,11.641s-1.71,18.961-1.315,20.41,3.816,20.146,1.051,28.046A27.219,27.219,0,0,0,555.846,392.225Z" transform="translate(-364.352 -210.156)" fill="#a36468"/><path d="M594.8,423.971a30.977,30.977,0,0,0,8.556,9.35,59.287,59.287,0,0,1,6.913.462c-.2-1.027-.4-2.2-.525-3.523a44.84,44.84,0,0,1-.229-8.193,2.982,2.982,0,0,1-1.548-1.912c-.66-2.24-6.533-12.905-6.533-12.905s-13.742-3.555-14.22,0S591.371,418.046,594.8,423.971Z" transform="translate(-383.618 -263.415)" opacity="0.1"/><path d="M596.186,390.42s8.3,15.694,8.939,17.934a3.026,3.026,0,0,0,2.8,2.236s8.264,1.975,10.239,2.24,19.107,1.71,19.107,1.71,4.345.134,4.87-1.446c.482-1.446,8.876-9.042,13.735-2.414a4.831,4.831,0,0,1,.7,4.314c-.893,2.844-2.726,7.359-4.693,4.551-2.765-3.95-5.981-2.84-5.981-.735s-4.424,1.323-5.87,1.62c-.79.162-3.508.885-5.858,1.517a42.661,42.661,0,0,1-8.362,1.386c-4.665.3-11.542.557-13.979-.363-2.939-1.118-8.07-1.375-10.27-1.434a3.378,3.378,0,0,1-2-.719,31.241,31.241,0,0,1-7.6-8.647c-3.425-5.925-10.468-18.194-9.994-21.749S596.186,390.42,596.186,390.42Z" transform="translate(-380.454 -253.233)" fill="#efb7b9"/><path d="M591.654,334.829a106.316,106.316,0,0,1,6.5,12.64c2.058,5.266,4.558,14.485,4.558,14.485l-12.38-1.45-1.051-1.71s-8.84,5.53-7.786,7.9-2.37-3.555-2.105-10.27-.952-18.7,0-21.6S588.743,332.589,591.654,334.829Z" transform="translate(-378.687 -219.387)" opacity="0.1"/><path d="M579.413,354.429c-.265,6.715,3.16,12.64,2.105,10.27s7.786-7.9,7.786-7.9l1.039,1.71,12.376,1.45s-2.5-9.22-4.558-14.485a80.553,80.553,0,0,0-4.235-8.69c-1.268-2.3-2.267-3.95-2.267-3.95-1.7-1.315-5.317-2.086-8.2-1.9a10.624,10.624,0,0,0-1.339.162,3.724,3.724,0,0,0-2.564,1.394,1.845,1.845,0,0,0-.158.348C578.449,335.729,579.666,347.714,579.413,354.429Z" transform="translate(-378.692 -218.182)" fill="#a36468"/><path d="M566,437s5.234,7.209,6.814,7.406C572.8,444.422,566.087,442.925,566,437Z" transform="translate(-370.809 -282.369)" opacity="0.1"/><path d="M566,463s9.875,9.974,13.035,10.073S566,463,566,463Z" transform="translate(-370.809 -298.099)" opacity="0.1"/><path d="M566,473.54s6.32,7.406,6.715,7.406S565.887,478.379,566,473.54Z" transform="translate(-370.807 -304.475)" opacity="0.1"/><path d="M580.33,274.674a8.762,8.762,0,0,0,2.9-.972c.34-.178.675-.375,1-.585a23.73,23.73,0,0,0,3.6-2.963c1.817-1.766,3.63-3.693,4.381-6.115a11.014,11.014,0,0,0,.371-1.706c.45-3.038.071-6.391,2.244-8.457a5.165,5.165,0,0,1,1.386-.936c3.081-1.465,7.549-.517,9.848-3.16,1.462-1.675,1.426-4,2.548-5.822a12.232,12.232,0,0,1,2.188-2.2,14.22,14.22,0,1,0-19.6,19.751c-.087.2-.182.4-.28.6-2.714,5.53-8.623,10.381-8.623,10.381l.6.758A3.867,3.867,0,0,0,580.33,274.674Z" transform="translate(-379.478 -160.369)" opacity="0.1"/><path d="M494.363,230.992c-2.674,3.065-8.3,1.28-11.238,4.088-2.583,2.461-1.556,6.755-2.611,10.164-.751,2.421-2.564,4.345-4.381,6.115-2.647,2.575-6.032,5.19-9.65,4.452-2.145-.438-4.246-2.042-6.32-1.3a7.39,7.39,0,0,0-2.54,2.05,17.5,17.5,0,0,1-9.705,5.021,4.152,4.152,0,0,1-2.2-.1c-1.106-.45-1.7-1.659-2.71-2.3-1.975-1.264-4.511.032-6.561,1.161a45.912,45.912,0,0,1-37.716,2.714l3.2-1.58c-.679-1.386-2.516-1.691-3.685-2.706-2.41-2.09-.991-6.269,1.556-8.185s5.846-2.583,8.485-4.373a2.2,2.2,0,0,0,1.134-1.489,2.37,2.37,0,0,0-.431-1.319c-1.406-2.477-2.963-5.135-2.647-7.967.482-4.345,5.226-7.015,9.583-7.32s8.671,1.007,13.035,1.082a8.544,8.544,0,0,0,4.59-.944c1.892-1.138,2.844-3.306,3.994-5.19a21.2,21.2,0,0,1,8.493-7.829c3.95-1.995,8.422-2.694,12.53-4.345,4.2-1.683,8.011-4.345,12.4-5.416,6.372-1.58,13.2.486,18.7,4.057,2.651,1.718,11.116,7.233,11.06,10.76-.043,2.094-2.765,3.227-3.8,4.871C495.789,226.991,495.825,229.317,494.363,230.992Z" transform="translate(-268.566 -141.969)" fill="#965d7b"/><g transform="translate(128.438 76.747)" opacity="0.1"><path d="M422.881,290.1a2.406,2.406,0,0,1,.431,1.319,1.335,1.335,0,0,1-.138.478c-1.161-2.046-2.37-4.215-2.564-6.5A25.124,25.124,0,0,0,422.881,290.1Z" transform="translate(-411.288 -267.399)"/><path d="M397.86,334.524c1.165,1.015,3,1.319,3.685,2.706l-1.13.561a12.706,12.706,0,0,1-2.161-1.292,3.717,3.717,0,0,1-1.232-3.069,3.393,3.393,0,0,0,.837,1.094Z" transform="translate(-397.01 -296.457)"/><path d="M438.721,279.473c2.05-1.13,4.59-2.425,6.561-1.161,1,.644,1.6,1.853,2.71,2.3a4.136,4.136,0,0,0,2.2.1A17.515,17.515,0,0,0,459.9,275.7a7.273,7.273,0,0,1,2.54-2.05c2.062-.739,4.163.865,6.32,1.3,3.618.739,7-1.876,9.65-4.452,1.817-1.766,3.626-3.693,4.377-6.115,1.059-3.409.032-7.7,2.615-10.164,2.951-2.809,8.56-1.023,11.238-4.088,1.458-1.675,1.426-4,2.548-5.822.948-1.537,3.405-2.627,3.753-4.479a3.437,3.437,0,0,1,.438,1.58c-.043,2.094-2.765,3.227-3.8,4.87-1.122,1.821-1.09,4.148-2.548,5.822-2.678,3.065-8.3,1.28-11.238,4.088-2.583,2.461-1.556,6.755-2.615,10.164-.751,2.421-2.56,4.345-4.377,6.115-2.651,2.575-6.032,5.19-9.65,4.452-2.149-.438-4.25-2.042-6.32-1.3a7.317,7.317,0,0,0-2.54,2.05,17.515,17.515,0,0,1-9.709,5.021,4.135,4.135,0,0,1-2.2-.1c-1.106-.45-1.706-1.659-2.71-2.3-1.975-1.264-4.511.032-6.561,1.161a45.912,45.912,0,0,1-37.716,2.714l2.208-1.094A46,46,0,0,0,438.721,279.473Z" transform="translate(-399.666 -239.83)"/></g><path d="M740.883,596.144l3.322-1.608v-.628c0-.241-2.651.292-4.7.747C740.977,594.915,740.918,595.907,740.883,596.144Z" transform="translate(-475.774 -377.26)" opacity="0.1"/><ellipse cx="8.003" cy="9.737" rx="8.003" ry="9.737" transform="translate(259.993 163.084)" fill="#45bf55"/><path d="M398.969,405.42,386.1,418.108l-42.294-.739,11.629-11.949Z" transform="translate(-208.001 -245.271)" fill="#dda2a6"/><path d="M463.746,448.824v-43.4L450.88,418.108v42.472Z" transform="translate(-272.777 -245.271)" fill="#b77b7f"/><path d="M343.81,435.67v43.21H386.1V436.409Z" transform="translate(-208.001 -263.571)" fill="#dda2a6"/><path d="M343.81,435.67v43.21H386.1V436.409Z" transform="translate(-208.001 -263.571)" fill="#fff" opacity="0.3"/><path d="M387.725,459.38l-31.455-5.4-4.1,20.651,32.383,5.949Z" transform="translate(-213.059 -274.649)" fill="#dce0ed"/><path d="M393.254,474.772l-21.145-3.322-.529,2.757,21.145,3.587Z" transform="translate(-224.801 -285.218)" fill="#45bf55"/><path d="M392.5,492.116l-12.028-1.746-.529,3.061,12.557,1.762Z" transform="translate(-229.859 -296.664)" fill="#45bf55"/><path d="M464.339,436.918l-.573-17.088-3.306,3.263.577,17.128Z" transform="translate(-278.573 -253.988)" fill="#65617d"/><path d="M358.354,416.49l40.643.549,1.367.77-3.306,3.263-1.142-.672-40.256-1.142Z" transform="translate(-215.17 -251.968)" fill="#65617d"/></g></svg>