<svg xmlns="http://www.w3.org/2000/svg" width="60" height="59.997" viewBox="0 0 60 59.997"><path d="M38.75,30.836V20.322l-6.182-2.838c-6.853,8.154-9.415,29.393-26.006,29.393A6.562,6.562,0,1,0,6.562,60C31.481,60,50,45.6,55.685,35.352l-4.342-4.516ZM54.112,15.793C57.881,8.78,55.92,3.1,53.745.353a.937.937,0,0,0-1.4-.069l-2.684,2.7a.945.945,0,0,0-.1,1.2c.8,1.214,2,4.113-.164,8.475A16.551,16.551,0,0,0,33.75,13.9l8.75,4.018v9.169h10.44l6.408,6.666A18.308,18.308,0,0,0,60,29.145a18.047,18.047,0,0,0-5.888-13.352Z" transform="translate(0 -0.004)"/></svg>