<svg xmlns="http://www.w3.org/2000/svg" width="60" height="46.667" viewBox="0 0 60 46.667"><path d="M54.208,23.344c0-.823-.573-1.26-1.625-1.26h-.51v2.594h.49C53.635,24.677,54.208,24.219,54.208,23.344ZM55,6.25H5a5,5,0,0,0-5,5V47.917a5,5,0,0,0,5,5H55a5,5,0,0,0,5-5V11.25A5,5,0,0,0,55,6.25ZM50.406,20.719c2.354,0,5.51-.427,5.51,2.542a2.264,2.264,0,0,1-1.948,2.417l2.688,3.583H54.615L52.3,25.844h-.229V29.26H50.406Zm-5.823.01H49.3v1.458H46.25v1.9H49.2v1.438H46.25v2.313H49.3v1.438H44.583Zm-7.156,0,2.281,5.75,2.313-5.75h1.823l-3.7,8.771h-.9L35.6,20.729ZM31.6,20.417a4.646,4.646,0,1,1-4.646,4.646A4.643,4.643,0,0,1,31.6,20.417Zm-5.135.635v1.979a2.78,2.78,0,0,0-4.875,1.979,2.783,2.783,0,0,0,4.875,2V28.99a4.491,4.491,0,1,1,0-7.937ZM16.344,27.958c1.188,0,2.333-1.594-.344-2.542-1.562-.573-2.1-1.187-2.1-2.365,0-2.417,3.188-3.271,5.177-1.49L18.2,22.688c-1.083-1.208-2.594-.646-2.594.26,0,.458.281.719,1.281,1.073,1.9.688,2.458,1.3,2.458,2.667,0,3.073-4.042,3.9-5.9,1.177l1.073-1.031A1.973,1.973,0,0,0,16.344,27.958ZM5.771,29.271H3.333V20.729H5.771a4.282,4.282,0,1,1,0,8.542Zm7.031,0H11.135V20.729H12.8Zm43.865,18.75A1.574,1.574,0,0,1,55.1,49.583H13.333c19.75-3.708,39.865-14.5,43.333-16.667ZM7.719,22.875a3.033,3.033,0,0,0-2.281-.687H5v5.646h.438a3.213,3.213,0,0,0,2.281-.667,2.92,2.92,0,0,0,.927-2.156A2.841,2.841,0,0,0,7.719,22.875Z" transform="translate(0 -6.25)"/></svg>