<svg xmlns="http://www.w3.org/2000/svg" width="60" height="60" viewBox="0 0 60 60"><path d="M58.861,18.715,31.44.434a2.605,2.605,0,0,0-2.879,0L1.138,18.715A2.621,2.621,0,0,0,0,20.858V39.139a2.621,2.621,0,0,0,1.138,2.143L28.56,59.566a2.605,2.605,0,0,0,2.879,0L58.862,41.282A2.621,2.621,0,0,0,60,39.139V20.858A2.621,2.621,0,0,0,58.861,18.715ZM32.578,7.4l20.19,13.46-9.007,6.027L32.578,19.418Zm-5.156,0v12.02L16.239,26.885,7.232,20.858ZM5.156,25.68,11.618,30,5.156,34.318ZM27.422,52.6,7.232,39.139l9.007-6.027,11.183,7.467ZM30,36.092,20.893,30,30,23.9,39.107,30ZM32.578,52.6V40.579l11.183-7.467,9.007,6.027ZM54.844,34.318,48.382,30l6.462-4.319Z" transform="translate(0 0)"/></svg>