<svg xmlns="http://www.w3.org/2000/svg" width="60" height="45" viewBox="0 0 60 45"><path d="M33.75,20.3V18.125h1.875A1.874,1.874,0,0,0,37.5,16.25V14.375A1.874,1.874,0,0,0,35.625,12.5H24.375A1.874,1.874,0,0,0,22.5,14.375V16.25a1.874,1.874,0,0,0,1.875,1.875H26.25V20.3A26.234,26.234,0,0,0,3.75,46.25h52.5A26.234,26.234,0,0,0,33.75,20.3ZM58.125,50H1.875A1.874,1.874,0,0,0,0,51.875v3.75A1.874,1.874,0,0,0,1.875,57.5h56.25A1.874,1.874,0,0,0,60,55.625v-3.75A1.874,1.874,0,0,0,58.125,50Z" transform="translate(0 -12.5)"/></svg>