<svg xmlns="http://www.w3.org/2000/svg" width="60" height="60" viewBox="0 0 60 60"><path d="M61.563,31.563a30,30,0,1,1-30-30A30,30,0,0,1,61.563,31.563ZM44.427,27.289c.6-3.992-2.442-6.138-6.6-7.569l1.348-5.408-3.292-.82-1.313,5.265c-.865-.216-1.754-.419-2.637-.621l1.322-5.3-3.29-.82-1.349,5.406c-.716-.163-1.42-.324-2.1-.494l0-.017-4.54-1.133L21.1,19.293s2.442.56,2.391.594A1.751,1.751,0,0,1,25.029,21.8l-1.536,6.16a2.73,2.73,0,0,1,.342.11l-.348-.086-2.153,8.63a1.2,1.2,0,0,1-1.509.782c.033.048-2.393-.6-2.393-.6L15.8,40.567l4.284,1.068c.8.2,1.578.409,2.347.606L21.067,47.71l3.288.82L25.7,43.119q1.308.355,2.623.681l-1.345,5.386,3.292.82,1.362-5.459c5.613,1.062,9.835.634,11.611-4.443,1.432-4.088-.071-6.445-3.025-7.983,2.151-.5,3.771-1.91,4.2-4.833ZM36.906,37.835c-1.017,4.087-7.9,1.878-10.132,1.324l1.808-7.246C30.813,32.469,37.969,33.572,36.906,37.835Zm1.018-10.6C37,30.948,31.267,29.059,29.409,28.6l1.639-6.572C32.906,22.487,38.891,23.351,37.924,27.23Z" transform="translate(-1.563 -1.563)"/></svg>