<svg xmlns="http://www.w3.org/2000/svg" width="60" height="60.001" viewBox="0 0 60 60.001"><path d="M59.826,29.979A14.991,14.991,0,0,1,45.005,15,14.991,14.991,0,0,1,30.022.177a15.465,15.465,0,0,0-9.342,1.5l-8.1,4.127a15.5,15.5,0,0,0-6.772,6.775L1.693,20.653a15.544,15.544,0,0,0-1.5,9.486l1.416,8.938a15.53,15.53,0,0,0,4.355,8.55l6.418,6.417A15.473,15.473,0,0,0,20.9,58.388l8.989,1.424a15.459,15.459,0,0,0,9.437-1.5l8.1-4.126A15.5,15.5,0,0,0,54.2,47.415l4.113-8.072A15.537,15.537,0,0,0,59.826,29.979Zm-39.2,13.146a3.75,3.75,0,1,1,3.75-3.75A3.75,3.75,0,0,1,20.625,43.125Zm3.75-18.75a3.75,3.75,0,1,1,3.75-3.75A3.75,3.75,0,0,1,24.375,24.375Zm18.75,15a3.75,3.75,0,1,1,3.75-3.75A3.75,3.75,0,0,1,43.125,39.375Z" transform="translate(0 -0.001)"/></svg>