<svg xmlns="http://www.w3.org/2000/svg" xmlns:xlink="http://www.w3.org/1999/xlink" width="117.362" height="86.928" viewBox="0 0 117.362 86.928"><defs><linearGradient id="a" x1="0.5" y1="1" x2="0.5" gradientUnits="objectBoundingBox"><stop offset="0" stop-color="gray" stop-opacity="0.251"/><stop offset="0.54" stop-color="gray" stop-opacity="0.122"/><stop offset="1" stop-color="gray" stop-opacity="0.102"/></linearGradient><linearGradient id="b" x1="0.5" y1="1" x2="0.5" y2="0" xlink:href="#a"/><linearGradient id="c" x1="-0.211" y1="3.614" x2="-0.211" y2="0.343" xlink:href="#a"/><linearGradient id="d" x1="-0.036" y1="4.542" x2="-0.036" y2="1.284" xlink:href="#a"/><linearGradient id="e" x1="-0.017" y1="4.446" x2="-0.017" y2="1.187" xlink:href="#a"/><linearGradient id="f" x1="-1.04" y1="1.715" x2="-1.04" y2="0.715" xlink:href="#a"/><linearGradient id="g" x1="0.551" y1="0.784" x2="0.551" y2="0.225" xlink:href="#a"/><linearGradient id="h" x1="0.5" y1="1" x2="0.5" y2="0" xlink:href="#a"/></defs><g transform="translate(0 -0.002)"><path d="M166.153,63.195c-3.85-1.565-7.92-2.876-12.074-2.709a17.952,17.952,0,0,0-14.842,9.308c-2.437,4.569-2.737,9.926-3.786,15a85.766,85.766,0,0,1-6.414,17.994c-1.421,3.115-2.921,6.306-3.153,9.725a15.891,15.891,0,0,0,5.5,12.638,22.158,22.158,0,0,0,13.029,5.187,13.68,13.68,0,0,0,7.405-1.16c2.372-1.243,4.1-3.49,6.482-4.715a13.976,13.976,0,0,1,7.267-1.147,32.546,32.546,0,0,1,9.488,2.016c3.463,1.3,6.684,3.184,10.14,4.5s7.317,2.055,10.849.954c3.315-1.036,5.94-3.543,8.305-6.086a106.55,106.55,0,0,0,10.587-13.394A33.954,33.954,0,0,0,220,101.016,20.56,20.56,0,0,0,213.818,81c-4.558-4.028-10.679-5.776-16.67-6.837-5.462-.967-11.778-1.028-16.807-3.549C175.545,68.207,171.181,65.24,166.153,63.195Z" transform="translate(-116.29 -57.357)" fill="#45bf55" opacity="0.1"/><path d="M747.07,134.224c-1.48.059-1.556,3.879-1.463,4.045a10.288,10.288,0,0,1-.336,1.891,19.592,19.592,0,0,0-.594,3.1.905.905,0,0,1-.361.8,6.246,6.246,0,0,0-1.7,1.322l-.055.059a4.786,4.786,0,0,0-.747.578c-.112.163-.414.033-.414.033a8.077,8.077,0,0,0-.973-.05c-.076.023-.2-.118-.264-.207a.85.85,0,0,1-.052-.075l-.028-.771a.523.523,0,0,0-.1-.064c.017-.087.04-.177.066-.269a2.3,2.3,0,0,0,.942-.846c.026-.039.047-.079.071-.12a.305.305,0,0,0,.2.055.331.331,0,0,0,.088-.008.728.728,0,0,0,.267-.133,1.446,1.446,0,0,0,.493-.578.945.945,0,0,0,.047-.138c-.016.026-.035.052-.05.077a.8.8,0,0,0-.053-.672,2.193,2.193,0,0,1-.261-.381c-.088-.25.078-.508.179-.752a1.263,1.263,0,0,0,.093-.708.907.907,0,0,0-.383-.6c-.407-.264-.959-.119-1.432-.247a3.78,3.78,0,0,1-.49-.2,3.8,3.8,0,0,0-.754-.234.738.738,0,0,0-.726.144,1.313,1.313,0,0,0-.117.2.747.747,0,0,1-.464.333,1.73,1.73,0,0,1-.285.029.27.27,0,0,0,0-.118c-.119-.394.224-.686.671-.862a11.189,11.189,0,0,0,2.348-1.835,11.816,11.816,0,0,1,1.582-1.315,4.346,4.346,0,0,0,2.752-2.723c.68-2.135-3.25,1.492-3.646,1.6a4.051,4.051,0,0,0-.964.518l-2.519,1.458a9.1,9.1,0,0,0-1.36.938,4.576,4.576,0,0,0-1,1.423s-.243.394-.594.964a2.631,2.631,0,0,1-.769.817l.012-.021a6.118,6.118,0,0,0-.971,1.608c-.078.479-.431,2.429-.431,2.429a9.816,9.816,0,0,1-.523,1.834,5.32,5.32,0,0,1-.276,1,4.9,4.9,0,0,0-.449,1.491,3.237,3.237,0,0,0-.326,1.189l-.713,1.709a3.961,3.961,0,0,0-.364,1.339c.014.239.024.518.031.746v.1h0v.1c-.038.064-.135.228-.238.426a2.184,2.184,0,0,0-.3.869,4.888,4.888,0,0,1-.16,1.689l-.054-.021a.735.735,0,0,0-.105.344l.014.006a.647.647,0,0,1-.014.094c-.041.4.022.949-.079,1.07a37.259,37.259,0,0,0-.067,3.887,12.292,12.292,0,0,0,.223,3.8l-.035,1.155a10.777,10.777,0,0,0,.035,1.243,11.714,11.714,0,0,1,.071,1.256l.255,1.843a13.625,13.625,0,0,0-.05,3.551,3.9,3.9,0,0,1,.311,1.223,1.943,1.943,0,0,0,.474.184v.1l-.069,1.732v.1s-.007.046-.012.121h0v.3h0v.152c0,.017.005.034.007.051v.013a.316.316,0,0,0,.012.057h0a.163.163,0,0,0,.014.056v.006h0a.172.172,0,0,0,.007.029v.014a.152.152,0,0,0,.012.035v.008a.893.893,0,0,0,.033.088.008.008,0,0,0,0,.009c0,.01.01.022.014.032l.005.015.014.028.01.016.014.026.009.016c0,.008.01.016.014.025a.079.079,0,0,1,.012.016l.016.024.012.016.016.024.01.016.021.023.012.015.022.025.012.013.034.034a.02.02,0,0,0,.012.011.248.248,0,0,0,.024.024l.016.013.024.019.019.014.024.017.021.014.024.015.022.013.024.014.024.013.028.012.026.013.024.012.029.011.028.01.029.011.031.009.048.014.041.01.031.006.035.007h.034l.033,0h.438l.055,0h.034l.093-.011s1.175.175,1.213-.289a.368.368,0,0,1,.005-.074v-.671c-.007-.23-.019-.443-.024-.562a.674.674,0,0,0-.007-.1s-.4-.6-.336-.829a5.77,5.77,0,0,0,.052-.992s-.155-.367-.26-.693a.635.635,0,0,1-.021-.074c.085-.1.166-.2.243-.311a3.93,3.93,0,0,0-.293-2.362.15.15,0,0,1-.062-.121.017.017,0,0,1,0-.013l.2-2.445L732.3,169.4a3.927,3.927,0,0,1,.105-1.391l.378-3.684.537-2.143s.171-.084.311.319.48,2.227.48,2.227l.83,3.015a5.956,5.956,0,0,0,.259,1.224,2.318,2.318,0,0,1,.121.82,2.118,2.118,0,0,1,.223.771,3.336,3.336,0,0,0,.086,1.089,14.791,14.791,0,0,1,.119,1.761,3.553,3.553,0,0,0,.036,1.525,5.352,5.352,0,0,1,.085,1.742c.024.034.047.066.073.1-.01.022-.019.045-.028.066-.053.14-.095.238-.095.238a6.111,6.111,0,0,0,.05.992c.064.226-.336.829-.336.829s0,.037-.005.1c-.005.119-.017.331-.026.562v.67a.289.289,0,0,0,.007.075c.038.464,1.211.289,1.211.289l.095.011h.524l.036-.006.033-.005.033-.007.034-.006.04-.01.048-.014.031-.009.029-.011a.14.14,0,0,0,.026-.01l.029-.012.026-.011.028-.012.024-.013.024-.013.024-.013.024-.014.022-.015.022-.015.022-.016.021-.015a.259.259,0,0,0,.022-.017l.017-.015.026-.023.012-.012.034-.034.009-.013.024-.024.012-.016a.159.159,0,0,0,.019-.023l.012-.016.017-.024.009-.016.019-.024a.07.07,0,0,1,.009-.017c0-.008.01-.016.016-.025l.009-.016c0-.009.009-.018.014-.026s.005-.01.009-.016.009-.019.014-.028l.007-.015a.075.075,0,0,1,.016-.032v-.009l.031-.087v-.008a.128.128,0,0,1,.01-.034V179.8a.038.038,0,0,1,.009-.029v-.006a0,0,0,0,0,0-.006.288.288,0,0,1,.016-.055h0a.22.22,0,0,1,.012-.057v-.013a.458.458,0,0,1,.007-.051.048.048,0,0,0,0-.018v-.135h0v-.3h0a1.131,1.131,0,0,0-.014-.122v-.094l-.066-1.676v-.1a3.262,3.262,0,0,0,.3-.186,2.986,2.986,0,0,1,.257-1.339c.276-.385-.138-1.391-.138-1.391l-.171-3.6.067-1.658a1.657,1.657,0,0,1-.207-.8,2.96,2.96,0,0,0-.274-1.036s-.173-.57.034-.738a22.716,22.716,0,0,0-.224-3.833,34.235,34.235,0,0,0-.093-4.268v-.026l.055-.025c-.017-.127-.035-.247-.053-.358l-.059.018a2.652,2.652,0,0,0-.1-.414l-.274-1.265s-.007-.066-.014-.163c-.01-.114-.021-.268-.022-.4a.7.7,0,0,1,.017-.17l-.012-.013a.5.5,0,0,1,.012-.088l-.059-.051s-.009-.057-.014-.144a1.62,1.62,0,0,1,.072-.718,11.357,11.357,0,0,1,1.555-1.324l.794-1.588s.794-1.115,1.392-1.332a22.676,22.676,0,0,0,2.479-1.465,6.172,6.172,0,0,0,.7-.829l.022-.033h.014v-.022l1.762-2.638a2.678,2.678,0,0,0,.73-1.784l.183-2.774-.06-1.641L747,138.1S748.547,134.166,747.07,134.224Zm-10.09,7.179a2.238,2.238,0,0,0-.292,1.1v.1a2.2,2.2,0,0,0,.235.992.822.822,0,0,0-.171.3,1.677,1.677,0,0,1-.357-.669.693.693,0,0,0-.276-.452,1.87,1.87,0,0,1,.019-.595l.009-.008.022-.033h0c.073-.111.319-.485.576-.911a.863.863,0,0,0,.131.044l.159.039Z" transform="translate(-656.821 -121.763)" fill="url(#a)"/><path d="M855.245,216.349c.016-.035.026-.072.04-.11a2.664,2.664,0,0,0-.105.254C855.2,216.445,855.225,216.4,855.245,216.349Z" transform="translate(-770.066 -196.989)" fill="url(#b)"/><path d="M802.469,238.364s-.324,1.546-.921,1.745.726,1.969.726,1.969l2.742-.15.048-.573a2.831,2.831,0,0,1,.35-2.542C806.28,237.417,802.469,238.364,802.469,238.364Z" transform="translate(-721.849 -216.54)" fill="#f6bac2"/><path d="M746.385,555.578c-.036.461-1.172.286-1.172.286-1.882.26-1.57-1.582-1.57-1.582v-.095l.064-1.718.019-.48s2.072-.949,2.02-.749a1.141,1.141,0,0,0,.083.447c.1.323.252.688.252.688a6.208,6.208,0,0,1-.05.983c-.062.224.324.821.324.821s0,.038.005.1A12,12,0,0,1,746.385,555.578Z" transform="translate(-670.064 -497.263)" fill="#b77983"/><path d="M795.069,557.878s-1.135.174-1.171-.286a12.007,12.007,0,0,1,.019-1.3.737.737,0,0,1,.007-.105s.386-.6.324-.821a6.29,6.29,0,0,1-.052-.987s.041-.095.093-.235a2.878,2.878,0,0,0,.245-.9c-.05-.2,2.019.747,2.019.747l.021.537.062,1.661v.093S796.949,558.14,795.069,557.878Z" transform="translate(-715.122 -499.063)" fill="#b77983"/><path d="M785.1,136.568a4.247,4.247,0,0,1-2.659,2.7,11.679,11.679,0,0,0-1.527,1.3,11.08,11.08,0,0,1-2.271,1.82c-.433.176-.764.465-.647.855.1.361-1.03,2.131-1.2,2.394h0l-.021.033-.357.374-1.215.614-.987-.316-.126-1.187.524-.932h0a2.542,2.542,0,0,0,.742-.811c.342-.565.575-.955.575-.955a4.517,4.517,0,0,1,.964-1.413,8.573,8.573,0,0,1,1.313-.933l2.434-1.45a3.963,3.963,0,0,1,.932-.518C781.959,138.036,785.756,134.449,785.1,136.568Z" transform="translate(-697.375 -124.972)" fill="#f6bac2"/><path d="M775.2,217.961l1.622-.324a.1.1,0,0,0-.029.067h0l-.021.034-.357.374-1.215.614-.985-.316-.128-1.187.524-.932h0a1.852,1.852,0,0,0-.01,1.771Z" transform="translate(-697.375 -197.034)" opacity="0.05"/><path d="M856.909,263.443a.278.278,0,0,0-.012.035.4.4,0,0,1-.06.1l-.652.319-1,.1-.518-1.254.345-1.375.19-.258.053-.057c.019.248.121,1.545.114,1.934-.007.432.311.468.311.468Z" transform="translate(-769.606 -237.166)" opacity="0.05"/><path d="M755.428,223.175a.217.217,0,0,0-.009.033,6.065,6.065,0,0,1-.682.823,21.452,21.452,0,0,1-2.393,1.45c-.581.212-1.346,1.321-1.346,1.321l-.766,1.578a10.809,10.809,0,0,0-1.5,1.313,1.644,1.644,0,0,0-.072.713.766.766,0,0,0,.012.143l-.4.421-.321.336-.454.472-.738-.1-2.3-.366-.44-.248-2.45-1.38s0-.086-.007-.218c0-.058,0-.124-.007-.2-.007-.224-.017-.5-.028-.74a3.971,3.971,0,0,1,.349-1.329l.69-1.7a3.313,3.313,0,0,1,.314-1.18,4.981,4.981,0,0,1,.433-1.478,5.215,5.215,0,0,0,.266-.989,9.675,9.675,0,0,0,.507-1.819s.34-1.928.414-2.409a6.012,6.012,0,0,1,.939-1.595,1.89,1.89,0,0,0-.074,1.894l.6-.1,1.62-.315c-.073.049-.024.6-.024.6a.7.7,0,0,1,.266.449,1.712,1.712,0,0,0,.366.688l.007.01a.816.816,0,0,1,.392-.557l.374.5.126.6a.844.844,0,0,1-.25.249c-.216.166.09.6.09.6a3.055,3.055,0,0,1,.135.823h0a1.212,1.212,0,0,1,.706-.24,2.165,2.165,0,0,0,.423-.608.253.253,0,0,1,.14-.169.244.244,0,0,1,.217,0,2.278,2.278,0,0,1,.409-.283c.2-.1.43.1.43.1l.026.766a.728.728,0,0,0,.053.073c.064.091.181.231.255.207a7.579,7.579,0,0,1,.939.05s.292.124.4-.033a4.965,4.965,0,0,1,.726-.573s.117,1.542.117,1.974.311.466.311.466Z" transform="translate(-668.174 -196.801)" fill="#d39999"/><path d="M875.81,284.6h-.021C875.829,284.5,875.81,284.6,875.81,284.6Z" transform="translate(-788.539 -258.228)" fill="none"/><circle cx="0.149" cy="0.149" r="0.149" transform="translate(80.305 25.214)" fill="#4b4442"/><circle cx="0.149" cy="0.149" r="0.149" transform="translate(79.216 27.383)" fill="#4b4442"/><circle cx="0.149" cy="0.149" r="0.149" transform="translate(77.073 32.027)" fill="#4b4442"/><circle cx="0.149" cy="0.149" r="0.149" transform="translate(78.086 29.684)" fill="#4b4442"/><path d="M746.64,551.688a2,2,0,0,1-2.122.782l.017-.48s2.074-.949,2.02-.749A1.09,1.09,0,0,0,746.64,551.688Z" transform="translate(-670.867 -497.262)" opacity="0.05"/><path d="M800.089,554.574a1.613,1.613,0,0,1-2.281-.385,2.925,2.925,0,0,0,.245-.9c-.05-.2,2.017.749,2.017.749Z" transform="translate(-718.638 -499.099)" opacity="0.05"/><path d="M741.618,366.7a3.084,3.084,0,0,0-.248,1.329,1.675,1.675,0,0,1-2.607-.266,5.549,5.549,0,0,0-.085-1.729,3.6,3.6,0,0,1-.033-1.512,14.463,14.463,0,0,0-.117-1.744,3.382,3.382,0,0,1-.083-1.081,2.139,2.139,0,0,0-.216-.763,2.377,2.377,0,0,0-.116-.814,5.979,5.979,0,0,1-.25-1.214l-.8-2.991s-.335-1.811-.466-2.209-.3-.317-.3-.317l-.476,2.145-.367,3.655a4.018,4.018,0,0,0-.1,1.379l.117,1.412-.195,2.427v.012a.156.156,0,0,0,.06.121,3.974,3.974,0,0,1,.279,2.343,2.038,2.038,0,0,1-2.793.881,3.875,3.875,0,0,0-.3-1.213,13.889,13.889,0,0,1,.048-3.522l-.248-1.828s-.017-1.1-.066-1.243a10.844,10.844,0,0,1-.033-1.229l.033-1.146a12.56,12.56,0,0,1-.217-3.772,38.116,38.116,0,0,1,.067-3.855,4.792,4.792,0,0,0,.076-1.063.79.79,0,0,1,.1-.341l.017-.016a4.15,4.15,0,0,0,.2-1.746,2.264,2.264,0,0,1,.286-.861c.1-.2.2-.367.233-.427l.016-.023a22.058,22.058,0,0,1,3.456,1.429,4.723,4.723,0,0,0,1.427.443,3.214,3.214,0,0,0,.745.01,2.59,2.59,0,0,0,1.07-.348,1.9,1.9,0,0,0,.464-.372,3.057,3.057,0,0,0,0,.669c.007.1.012.161.012.161l.278,1.233a3.263,3.263,0,0,1,.1.447c.019.11.036.229.052.355a34.151,34.151,0,0,1,.09,4.234,23.337,23.337,0,0,1,.217,3.8c-.2.166-.034.731-.034.731a2.97,2.97,0,0,1,.266,1.031,1.668,1.668,0,0,0,.2.8l-.066,1.645.172,3.569S741.887,366.32,741.618,366.7Z" transform="translate(-659.636 -312.84)" fill="#8499f0"/><path d="M806.13,488.108s1.259-.726,1.536-.4S806.13,488.108,806.13,488.108Z" transform="translate(-726.097 -440.26)" opacity="0.05"/><path d="M813.063,496.138s-.209.1.248.236S813.063,496.138,813.063,496.138Z" transform="translate(-732.27 -447.892)" opacity="0.05"/><path d="M739.987,476.751a1.935,1.935,0,0,0,2.032.136A15.238,15.238,0,0,0,739.987,476.751Z" transform="translate(-666.804 -430.5)" opacity="0.05"/><path d="M749.965,490.238a1.344,1.344,0,0,1-.909.675C748.443,491,749.965,490.238,749.965,490.238Z" transform="translate(-674.804 -442.605)" opacity="0.05"/><path d="M797.711,502.52s1.434,2.279,1.159,2.816S797.711,502.52,797.711,502.52Z" transform="translate(-718.549 -453.612)" opacity="0.05"/><path d="M773.08,369.09l-.15,4.461s.885-.036,1.037-1.507.262-2.667.262-2.667Z" transform="translate(-696.335 -334.006)" opacity="0.05"/><path d="M772.6,368.129l-.148,4.462s.883-.037,1.035-1.508.264-2.666.264-2.666Z" transform="translate(-695.905 -333.144)" fill="#8499f0"/><path d="M736.7,368.867s-.7,1.872-2.295.965a.742.742,0,0,1,.1-.341,1.261,1.261,0,0,0,1.865-.763Z" transform="translate(-661.806 -333.683)" opacity="0.05"/><path d="M736.224,366.946s-.7,1.872-2.295.964a.724.724,0,0,1,.1-.341,1.259,1.259,0,0,0,1.865-.761Z" transform="translate(-661.374 -331.961)" opacity="0.05"/><path d="M736.224,367.906s-.7,1.871-2.295.965a.716.716,0,0,1,.1-.341,1.26,1.26,0,0,0,1.865-.761Z" transform="translate(-661.374 -332.821)" fill="#8499f0"/><path d="M794.337,375.523c-1.756.835-2.4-1.134-2.4-1.134l.416.013c.072,1.259,1.46.92,1.934.765C794.306,375.282,794.322,375.4,794.337,375.523Z" transform="translate(-713.375 -338.756)" opacity="0.05"/><path d="M795.3,374.074c-1.753.834-2.4-1.134-2.4-1.134l.416.013c.072,1.259,1.46.92,1.934.767C795.268,373.83,795.283,373.948,795.3,374.074Z" transform="translate(-714.237 -337.457)" opacity="0.05"/><path d="M794.818,374.555c-1.755.833-2.4-1.135-2.4-1.135l.414.013c.072,1.26,1.461.921,1.936.767C794.783,374.309,794.8,374.429,794.818,374.555Z" transform="translate(-713.805 -337.887)" fill="#8499f0"/><path d="M736.224,367.906s-.7,1.871-2.295.965a.716.716,0,0,1,.1-.341,1.26,1.26,0,0,0,1.865-.761Z" transform="translate(-661.374 -332.821)" fill="#fff" opacity="0.1"/><path d="M794.818,374.555c-1.755.833-2.4-1.135-2.4-1.135l.414.013c.072,1.26,1.461.921,1.936.767C794.783,374.309,794.8,374.429,794.818,374.555Z" transform="translate(-713.805 -337.887)" fill="#fff" opacity="0.1"/><path d="M746.4,580.679a3.023,3.023,0,0,1-.012.345c-.036.461-1.17.288-1.17.288-1.039.143-1.411-.354-1.534-.83a1.969,1.969,0,0,1-.057-.473,1.934,1.934,0,0,1,.019-.283v-.095a.7.7,0,0,1,.645.131,1.093,1.093,0,0,0,1.071.088,1.447,1.447,0,0,1,.621.186c.1.085.259-.117.381-.311.005.124.017.349.024.588C746.4,580.44,746.4,580.564,746.4,580.679Z" transform="translate(-670.069 -522.712)" opacity="0.05"/><path d="M744.585,584.217s-.311.3-.9-.167a1.889,1.889,0,0,1-.059-.473A5.344,5.344,0,0,0,744.585,584.217Z" transform="translate(-670.07 -526.275)" opacity="0.05"/><path d="M767.485,586.842a.231.231,0,0,1-.335-.054,2.345,2.345,0,0,0,.331-.311C767.483,586.6,767.485,586.726,767.485,586.842Z" transform="translate(-691.153 -528.874)" opacity="0.05"/><path d="M793.867,582.747a3.039,3.039,0,0,0,.012.347c.036.462,1.17.286,1.17.286,1.037.145,1.411-.354,1.534-.828a1.992,1.992,0,0,0,.038-.756V581.7a.7.7,0,0,0-.645.131,1.1,1.1,0,0,1-1.071.088,1.421,1.421,0,0,0-.621.186c-.1.083-.259-.119-.38-.311-.007.124-.019.349-.026.59C793.868,582.507,793.867,582.631,793.867,582.747Z" transform="translate(-715.103 -524.565)" opacity="0.05"/><path d="M811.428,586.265s.311.305.9-.166a1.968,1.968,0,0,0,.059-.471A5.715,5.715,0,0,1,811.428,586.265Z" transform="translate(-730.845 -528.112)" opacity="0.05"/><path d="M793.867,588.9a.243.243,0,0,0,.181.047.236.236,0,0,0,.155-.1,2.17,2.17,0,0,1-.331-.311C793.871,588.661,793.867,588.785,793.867,588.9Z" transform="translate(-715.104 -530.723)" opacity="0.05"/><path d="M770.961,285s-1.594,4.4-.98,4.785S770.961,285,770.961,285Z" transform="translate(-693.566 -258.627)" opacity="0.05"/><path d="M790.234,271.88s-.3,1.462-.15,1.6S790.234,271.88,790.234,271.88Z" transform="translate(-711.674 -246.865)" opacity="0.05"/><path d="M807.124,304.77s-1.962,1.828-1.831,1.977S807.124,304.77,807.124,304.77Z" transform="translate(-725.342 -276.348)" opacity="0.05"/><path d="M815.848,257.567c-.744.227-2.479.757-2.5.753l.1-.4a1.213,1.213,0,0,1,.706-.24,2.169,2.169,0,0,0,.423-.607.251.251,0,0,1,.14-.17.247.247,0,0,1,.217,0,2.4,2.4,0,0,1,.407-.283c.2-.1.431.1.431.1l.026.765S815.815,257.524,815.848,257.567Z" transform="translate(-732.567 -233.168)" opacity="0.05"/><path d="M815.848,256.628c-.744.227-2.479.757-2.5.751l.1-.394a1.21,1.21,0,0,1,.706-.241,2.165,2.165,0,0,0,.423-.606.252.252,0,0,1,.357-.166,2.347,2.347,0,0,1,.407-.282c.2-.1.431.1.431.1l.026.765Z" transform="translate(-732.567 -232.326)" fill="#d39999"/><path d="M806.1,244.156a3.043,3.043,0,0,1,.133.823l-.288.229-.55-1.583-.026-.822-.009-.047.007.009a.81.81,0,0,1,.39-.556l.376.5.124.6s-.033.085-.248.25S806.1,244.156,806.1,244.156Z" transform="translate(-725.403 -220.269)" opacity="0.05"/><path d="M806.592,243.665a3.032,3.032,0,0,1,.133.822l-.288.233-.549-1.583-.026-.823-.012-.047.009.01a.812.812,0,0,1,.392-.558l.373.5.126.6s-.034.084-.25.249S806.592,243.665,806.592,243.665Z" transform="translate(-725.845 -219.83)" fill="#d39999"/><path d="M809.546,214.932a2.243,2.243,0,1,1-2.243-2.243,2.225,2.225,0,0,1,2.243,2.243Z" transform="translate(-725.137 -193.807)" opacity="0.05"/><path d="M809.527,213.972a2.231,2.231,0,1,1-.654-1.589A2.244,2.244,0,0,1,809.527,213.972Z" transform="translate(-725.117 -192.946)" fill="#f6bac2"/><path d="M811.982,213.947a2.242,2.242,0,0,1-.328,1.166c-.033-.06-.053-.128-.086-.188-.047-.084-.154-.154-.233-.1a.255.255,0,0,0-.074.1.408.408,0,0,1-.335.273.33.33,0,0,1-.283-.243,1.021,1.021,0,0,1-.016-.4.909.909,0,0,0-.174-.761,1.142,1.142,0,0,0-.433-.194.567.567,0,0,1-.373-.276c-.041-.1-.031-.213-.069-.311a.542.542,0,0,0-.4-.3,1.055,1.055,0,0,1-.707.241,2.61,2.61,0,0,1-.692-.11,2.244,2.244,0,0,1,4.2,1.091Z" transform="translate(-727.573 -192.922)" opacity="0.05"/><path d="M806.438,203.288c.038.1.028.216.069.311a.567.567,0,0,0,.373.275,1.136,1.136,0,0,1,.433.193.906.906,0,0,1,.174.763,1.019,1.019,0,0,0,.016.4.337.337,0,0,0,.285.242.41.41,0,0,0,.333-.272.253.253,0,0,1,.074-.1c.079-.053.186.018.233.1a1,1,0,0,0,.135.251.3.3,0,0,0,.271.062.67.67,0,0,0,.257-.132,1.416,1.416,0,0,0,.478-.573.823.823,0,0,0-.031-.725,2.17,2.17,0,0,1-.248-.379c-.086-.248.074-.5.173-.745a1.309,1.309,0,0,0,.088-.7.907.907,0,0,0-.369-.594c-.4-.261-.927-.118-1.384-.244a3.618,3.618,0,0,1-.476-.2,3.542,3.542,0,0,0-.723-.232.706.706,0,0,0-.7.142,1.525,1.525,0,0,0-.114.2.72.72,0,0,1-.449.329c-.133.032-.273.024-.414.044a.457.457,0,0,0-.345.2.678.678,0,0,0-.022.415.419.419,0,0,1-.105.39c-.052.04-.124.06-.157.117a.17.17,0,0,0,.048.2.481.481,0,0,0,.2.087,3.049,3.049,0,0,0,.8.135,1.048,1.048,0,0,0,.738-.272c-.017.017-.129.01-.15.009A.6.6,0,0,1,806.438,203.288Z" transform="translate(-724.431 -183.289)" fill="#7e646b"/><g transform="translate(79.871 18.532)" opacity="0.05"><path d="M809.479,220.411a.719.719,0,0,1-.257.134.3.3,0,0,1-.271-.063.989.989,0,0,1-.135-.252c-.047-.083-.154-.154-.235-.1a.256.256,0,0,0-.073.1.408.408,0,0,1-.333.273.332.332,0,0,1-.285-.243,1.018,1.018,0,0,1-.017-.4.9.9,0,0,0-.171-.761,1.137,1.137,0,0,0-.435-.194.569.569,0,0,1-.373-.276c-.041-.1-.031-.213-.069-.311a.544.544,0,0,0-.4-.3,1.066,1.066,0,0,1-.7.242,3.093,3.093,0,0,1-.8-.136.475.475,0,0,1-.2-.086.147.147,0,0,1-.031-.037.272.272,0,0,0-.117.09.164.164,0,0,0,.048.2.471.471,0,0,0,.2.087,2.99,2.99,0,0,0,.794.135,1.065,1.065,0,0,0,.706-.241.544.544,0,0,1,.4.3c.036.1.028.216.067.311a.567.567,0,0,0,.374.276,1.158,1.158,0,0,1,.433.193.9.9,0,0,1,.173.762.984.984,0,0,0,.016.4.333.333,0,0,0,.285.243.411.411,0,0,0,.333-.273.248.248,0,0,1,.072-.1c.081-.053.19.017.236.1a1.051,1.051,0,0,0,.133.252.3.3,0,0,0,.273.062.709.709,0,0,0,.257-.132,1.4,1.4,0,0,0,.474-.573,1.2,1.2,0,0,0,.045-.137A1.5,1.5,0,0,1,809.479,220.411Z" transform="translate(-804.564 -217.107)"/><path d="M854,219.4c.021-.048.04-.1.062-.142s.024-.072.036-.11A2.6,2.6,0,0,0,854,219.4Z" transform="translate(-848.878 -218.129)"/><path d="M807.014,209.92a.423.423,0,0,0,.1-.381,1.591,1.591,0,0,1-.021-.239.341.341,0,0,0-.057.073.676.676,0,0,0-.022.414A.864.864,0,0,1,807.014,209.92Z" transform="translate(-806.739 -209.3)"/></g><path d="M747,346.805c-.193.013-.462.028-.787.039-.228.008-.48.013-.75.013-.236,0-.485,0-.745-.012a15.9,15.9,0,0,1-2.441-.251,5.341,5.341,0,0,1-2.693-1.169c.105-.2.2-.368.233-.428,0-.058,0-.125-.007-.2,1.094.518,4.5,1.956,7.113,1.14a.9.9,0,0,0,.01.143l.06.049A3.057,3.057,0,0,0,747,346.805Z" transform="translate(-666.439 -312.232)" opacity="0.05"/><path d="M747,345.835c-.193.014-.462.028-.787.039-.228.008-.48.012-.75.012-.236,0-.485,0-.745-.011a15.993,15.993,0,0,1-2.441-.25,5.343,5.343,0,0,1-2.693-1.171c.105-.2.2-.367.233-.426,0-.058,0-.125-.007-.2,1.094.518,4.5,1.957,7.113,1.145a.881.881,0,0,0,.01.142l.06.05A3.01,3.01,0,0,0,747,345.835Z" transform="translate(-666.439 -311.361)" fill="#4b4442"/><path d="M309.224,402.371a1.425,1.425,0,0,1-.317-1.084l4.573-37.414.379-3.107a1.434,1.434,0,0,1,1.414-1.259l13.393-.09a1.432,1.432,0,0,0,1.423-1.472l0-.141a1.434,1.434,0,0,1,1.432-1.483h14.074a1.433,1.433,0,0,1,1.433,1.429,1.617,1.617,0,0,1-.012.193,1.434,1.434,0,0,0,1.384,1.623l13.516.344a1.432,1.432,0,0,1,1.376,1.674l-6.757,39.468-.127.745a1.428,1.428,0,0,1-.207.534Z" transform="translate(-280.371 -322.558)" fill="#b7b6cc"/><g transform="translate(54.051 25.532)" opacity="0.5"><rect width="27.227" height="8.325" transform="matrix(0.568, -0.823, 0.823, 0.568, 0, 22.401)" fill="url(#c)"/></g><rect width="7.914" height="26.862" transform="matrix(0.823, 0.568, -0.568, 0.823, 69.643, 25.835)" fill="#f9fafb"/><rect width="5.587" height="5.587" transform="matrix(0.821, 0.571, -0.571, 0.821, 70.112, 26.882)" fill="#f7b643"/><rect width="5.595" height="5.595" transform="matrix(0.823, 0.568, -0.568, 0.823, 66.518, 32.411)" fill="#f7b643" opacity="0.5"/><rect width="5.595" height="5.595" transform="matrix(0.823, 0.568, -0.568, 0.823, 62.678, 37.969)" fill="#f7b643" opacity="0.3"/><g transform="translate(52.623 24.199)" opacity="0.5"><rect width="27.125" height="8.325" transform="translate(0 26.036) rotate(-73.71)" fill="url(#d)"/></g><rect width="7.914" height="26.761" transform="translate(60.443 24.451) rotate(16.29)" fill="#f9fafb"/><rect width="5.595" height="5.595" transform="translate(61.44 25.192) rotate(16.29)" fill="#f97878"/><rect width="5.595" height="5.595" transform="translate(59.546 31.676) rotate(16.29)" fill="#f97878" opacity="0.5"/><rect width="5.595" height="5.595" transform="translate(57.651 38.158) rotate(16.29)" fill="#f97878" opacity="0.3"/><g transform="translate(52.638 24.651)" opacity="0.5"><rect width="27.125" height="8.325" transform="translate(0 27.038) rotate(-85.4)" fill="url(#e)"/></g><rect width="7.914" height="26.761" transform="translate(55.062 24.856) rotate(4.6)" fill="#f9fafb"/><rect width="5.595" height="5.595" transform="translate(56.185 25.38) rotate(4.6)" fill="#73b53b"/><rect width="5.595" height="5.595" transform="translate(55.643 32.112) rotate(4.6)" fill="#73b53b" opacity="0.5"/><rect width="5.595" height="5.595" transform="translate(55.101 38.846) rotate(4.6)" fill="#73b53b" opacity="0.3"/><g transform="translate(51.232 25.379)" opacity="0.5"><rect width="8.325" height="27.125" transform="translate(0 0.379) rotate(-2.61)" fill="url(#f)"/></g><rect width="7.914" height="26.761" transform="translate(51.513 25.928) rotate(-2.61)" fill="#fff"/><rect width="5.595" height="5.595" transform="translate(52.692 26.306) rotate(-2.61)" fill="#45bf55"/><rect width="5.602" height="5.602" transform="translate(53.218 32.84) rotate(-2.862)" fill="#45bf55" opacity="0.5"/><rect width="5.595" height="5.595" transform="translate(53.307 39.801) rotate(-2.61)" fill="#45bf55" opacity="0.3"/><path d="M247,360.159l-7.032,2.72-10.277,3.973c-.389-.725-.961-1.7-1.668-2.875-2.434-4.033-6.462-10.308-10.048-15.821-4.04-6.216-7.518-11.461-7.518-11.461l2.517-.725L233.54,330Z" transform="translate(-192.132 -298.965)" fill="#e6ecf8"/><path d="M268.794,360.159l-7.032,2.72a52.773,52.773,0,0,1-11.948,1.1c-2.434-4.033-6.462-10.308-10.049-15.821l-5-12.191L255.332,330Z" transform="translate(-213.924 -298.965)" opacity="0.1"/><path d="M265.554,332.489s-10.924,6.462-27.234,5l-13-31.7,6.231-1.071,21.541-3.7,12.224,30.852Z" transform="translate(-205.453 -272.986)" fill="#45bf55"/><path d="M319.23,331.912a51.607,51.607,0,0,1-8.542-.242,27.455,27.455,0,0,1-9.293-2.607,28.174,28.174,0,0,1-6.075-4.08c-4.53-4.074-7.333-9.9-9.85-20.223l21.54-3.7Z" transform="translate(-259.371 -273.023)" opacity="0.1"/><path d="M314.6,250.261a59.65,59.65,0,0,1-16.249.606,27.45,27.45,0,0,1-9.293-2.607,28.122,28.122,0,0,1-6.075-4.081c-5.607-5.044-8.568-12.774-11.621-28.384a41.181,41.181,0,0,0,26.624-3.846S302.44,239.8,314.6,250.261Z" transform="translate(-246.724 -193.143)" fill="#f9fafb"/><path d="M398.9,503.833a27.436,27.436,0,0,1-9.293-2.607,28.163,28.163,0,0,1-6.075-4.08c4.774-.386,5.46-3,5.46-3C392.529,499.764,398.9,503.833,398.9,503.833Z" transform="translate(-347.274 -446.109)" opacity="0.1"/><path d="M338.2,278.771s10.886-.614,13.925-2.961l.461,1.482A41.67,41.67,0,0,1,338.2,280.5Z" transform="translate(-306.64 -250.388)" fill="#45bf55" opacity="0.3"/><path d="M338.2,336.724s10.54-.577,18.5-4.424l.269.615s-6.32,3.689-18.772,4.655Z" transform="translate(-306.639 -301.026)" fill="#45bf55" opacity="0.3"/><path d="M346.39,364.231s10.54-.576,18.5-4.423l.27.614s-6.32,3.689-18.771,4.655Z" transform="translate(-313.981 -325.686)" fill="#45bf55" opacity="0.3"/><path d="M354.569,391.782s10.538-.576,18.5-4.423l.267.615s-6.318,3.689-18.77,4.655Z" transform="translate(-321.313 -350.382)" fill="#45bf55" opacity="0.3"/><path d="M362.759,419.332s10.54-.576,18.5-4.423l.269.615s-6.319,3.689-18.771,4.655Z" transform="translate(-328.655 -375.078)" fill="#45bf55" opacity="0.3"/><path d="M370.939,446.893s10.539-.577,18.5-4.423l.268.615s-6.319,3.688-18.771,4.654Z" transform="translate(-335.987 -399.783)" fill="#45bf55" opacity="0.3"/><path d="M1052.508,827.189s-4.382-.264-3.865,2.807a.742.742,0,0,0,.386.788s.01-.229.452-.152a1.969,1.969,0,0,0,.473.024.98.98,0,0,0,.583-.242h0a3.469,3.469,0,0,0,1.708-2.521s.355-.438.342-.552l-.739.311a1.309,1.309,0,0,1,.052.978s-.024-.958-.162-.935c-.031,0-.386.185-.386.185a2.18,2.18,0,0,1,.1,1.6s.124-1.144-.242-1.537l-.518.3a2.317,2.317,0,0,1,.162,1.744,3.261,3.261,0,0,0-.273-1.67l-.473.369a2.232,2.232,0,0,1,.186,1.594s-.038-1.4-.286-1.5a2.64,2.64,0,0,0-.473.516s.324.685.121,1.049c0,0-.124-.932-.228-.932a3.054,3.054,0,0,0-.452,1.035,2.238,2.238,0,0,1,.355-1.1,1.23,1.23,0,0,0-.632.33s.066-.44.732-.476a2.922,2.922,0,0,1,.428-.5,2.68,2.68,0,0,0-1.063.124,1.185,1.185,0,0,1,1.187-.226l.466-.378a3.844,3.844,0,0,0-1.242.01,1.511,1.511,0,0,1,1.366-.1l.507-.3a4.551,4.551,0,0,0-1.187-.1,1.811,1.811,0,0,1,1.339.019l.359-.162s-.545-.1-.707-.124-.166-.06-.166-.06a1.892,1.892,0,0,1,1.025.114A4.734,4.734,0,0,0,1052.508,827.189Z" transform="translate(-943.449 -744.645)" fill="#45bf55"/><ellipse cx="3.099" cy="0.524" rx="3.099" ry="0.524" transform="translate(102.942 85.881)" fill="#45bf55" opacity="0.1"/><ellipse cx="10.566" cy="0.957" rx="10.566" ry="0.957" transform="translate(73.731 83.492)" fill="#45bf55" opacity="0.1"/><path d="M1086.964,729.4s-2.471-.15-2.174,1.58a.419.419,0,0,0,.217.445s0-.128.252-.085a1.086,1.086,0,0,0,.269.012.546.546,0,0,0,.328-.135h0a1.964,1.964,0,0,0,.966-1.42s.2-.248.19-.311l-.414.176a.748.748,0,0,1,.028.552s-.01-.54-.093-.528c-.014,0-.214.1-.214.1a1.225,1.225,0,0,1,.059.906s.072-.645-.135-.866l-.3.171a1.284,1.284,0,0,1,.093.983,1.809,1.809,0,0,0-.155-.94l-.262.205a1.281,1.281,0,0,1,.1.9s-.024-.788-.162-.847a1.784,1.784,0,0,0-.269.29s.183.386.069.59c0,0-.069-.524-.128-.526a1.74,1.74,0,0,0-.255.585,1.255,1.255,0,0,1,.2-.621.692.692,0,0,0-.359.185s.038-.247.414-.269a1.717,1.717,0,0,1,.242-.28,1.492,1.492,0,0,0-.6.071.663.663,0,0,1,.666-.126l.266-.216a2.141,2.141,0,0,0-.7.007.849.849,0,0,1,.773-.055l.283-.171a2.4,2.4,0,0,0-.666-.057,1.016,1.016,0,0,1,.752.012l.207-.091s-.311-.062-.4-.072-.1-.033-.1-.033a1.059,1.059,0,0,1,.58.064A2.491,2.491,0,0,0,1086.964,729.4Z" transform="translate(-975.869 -656.989)" fill="#45bf55"/><ellipse cx="1.748" cy="0.295" rx="1.748" ry="0.295" transform="translate(107.651 74.294)" fill="#45bf55" opacity="0.1"/><path d="M942.319,743.895s-2.985-.181-2.629,1.908a.5.5,0,0,0,.262.538s0-.155.311-.105a1.278,1.278,0,0,0,.324.016.648.648,0,0,0,.393-.162h0a2.361,2.361,0,0,0,1.166-1.715s.242-.3.231-.378l-.507.216a.892.892,0,0,1,.034.664s-.017-.65-.11-.637c-.021,0-.262.126-.262.126a1.505,1.505,0,0,1,.073,1.094s.083-.778-.166-1.047l-.355.209a1.559,1.559,0,0,1,.11,1.184,2.233,2.233,0,0,0-.183-1.137l-.321.25a1.533,1.533,0,0,1,.128,1.085s-.028-.951-.2-1.023a1.929,1.929,0,0,0-.324.347s.221.469.086.716c0,0-.086-.633-.155-.638a2.229,2.229,0,0,0-.314.707,1.557,1.557,0,0,1,.242-.747.869.869,0,0,0-.428.223s.045-.3.5-.324c0,0,.231-.317.293-.335a1.823,1.823,0,0,0-.725.081.806.806,0,0,1,.8-.152l.317-.26a2.631,2.631,0,0,0-.845.01,1.024,1.024,0,0,1,.932-.066l.345-.209a3.125,3.125,0,0,0-.807-.069,1.226,1.226,0,0,1,.908.016l.248-.112s-.373-.072-.48-.085-.117-.041-.117-.041a1.28,1.28,0,0,1,.7.076A3.263,3.263,0,0,0,942.319,743.895Z" transform="translate(-845.792 -669.98)" fill="#45bf55"/><ellipse cx="2.11" cy="0.356" rx="2.11" ry="0.356" transform="translate(92.361 76.186)" fill="#45bf55" opacity="0.1"/><ellipse cx="3.099" cy="0.524" rx="3.099" ry="0.524" transform="translate(2.562 84.319)" fill="#45bf55" opacity="0.1"/><path d="M68.1,817.672a6.515,6.515,0,0,0,2.3-.433c.534-.38,2.719-.83,2.852-.226s2.657,3.028.661,3.043a16.865,16.865,0,0,1-5.171-.635C68.211,819.1,68.1,817.672,68.1,817.672Z" transform="translate(-64.52 -735.263)" fill="#a8a8a8"/><path d="M73.931,828.074a16.922,16.922,0,0,1-5.171-.635c-.4-.247-.565-1.132-.622-1.541H68.08s.112,1.425.643,1.749a17.051,17.051,0,0,0,5.172.644c.576-.005.775-.207.765-.519C74.579,827.955,74.359,828.07,73.931,828.074Z" transform="translate(-64.502 -743.492)" opacity="0.2"/><rect width="17.68" height="31.639" transform="translate(81.807 16.816) rotate(-71.99)" fill="url(#g)"/><rect width="17.436" height="31.202" transform="translate(82.052 16.768) rotate(-71.99)" fill="#f6f7f9"/><g transform="translate(87.388 6.115)" opacity="0.2"><circle cx="3.249" cy="3.249" r="3.249" transform="translate(0 0)" fill="#45bf55"/></g><g transform="translate(98.409 7.933)" opacity="0.2"><rect width="0.89" height="14.154" transform="translate(0 0.846) rotate(-71.99)" fill="#45bf55"/></g><g transform="translate(97.707 10.09)" opacity="0.2"><rect width="0.89" height="7.21" transform="translate(0 0.846) rotate(-71.99)" fill="#45bf55"/></g><g transform="translate(97.004 12.249)" opacity="0.2"><rect width="0.89" height="11.661" transform="translate(0 0.846) rotate(-71.99)" fill="#45bf55"/></g><g transform="translate(96.303 14.407)" opacity="0.2"><rect width="0.89" height="14.154" transform="translate(0 0.846) rotate(-71.99)" fill="#45bf55"/></g><g transform="translate(104.769 20.689)" opacity="0.5"><rect width="1.721" height="3.917" transform="translate(0 1.636) rotate(-71.99)" fill="#45bf55"/></g><path d="M782.606,436.28a.7.7,0,0,0-.012-.1.481.481,0,0,0-.017-.1c-.014-.071-.028-.141-.045-.207-.007-.033-.016-.066-.024-.1a2.665,2.665,0,0,0-.519-1l-.041-.047c-.012-.016-.055-.06-.083-.087s-.053-.053-.081-.077-.054-.046-.076-.067c-.05-.04-.1-.073-.138-.1s-.059-.04-.083-.054a.485.485,0,0,0-.2-.063l-.431-.043h0l-.587-.057-2.1-.816-.083.029a4.92,4.92,0,0,1-.155-.518.46.46,0,0,0,.166-.12.386.386,0,0,0,.114-.147c.052-.122-.048-.382-.028-.531a2.491,2.491,0,0,1,.259-.687,3.184,3.184,0,0,0,.347-1.481,1.667,1.667,0,0,0-.69-1.313c-.223-.148-.485-.227-.718-.361-.178-.1-.336-.243-.511-.361a2.936,2.936,0,0,0-2.892-.208,14.332,14.332,0,0,0-1.22.794,2.059,2.059,0,0,1-1.377.379c-.007.02-.01.04-.016.06l-.038-.005c-.085.225.117.449.311.6a2.1,2.1,0,0,0,1.22.6,1.285,1.285,0,0,1,.531.04.421.421,0,0,1,.1.063,2.3,2.3,0,0,0,.726,2.3l-1.071-.386s-.045.023-.116.066l-1.487-.989s-2.983-1.082-3.811.6,3.592.815,3.592.815l.945.518a.86.86,0,0,0,.1.569l2.578,1.593a13.64,13.64,0,0,1-1.529.414c-.221,0-.828.218-1.215,1.087s-1.77,5.109-2.983,5.815-4.42,5.436-4.42,5.436l.016.036c-.059.016-.112.031-.169.05a3.412,3.412,0,0,0-1.665,1.255.533.533,0,0,0,.374.84,2.321,2.321,0,0,0,2.286-.863.586.586,0,0,0,.06-.085.435.435,0,0,0,.311.015l1.549-1.251s-1.211,1.192-.5,2.28l-.053.075a17.332,17.332,0,0,0-2.59,5.637s-.664.49-.718,2.446a37.464,37.464,0,0,1-.719,5.109,24.724,24.724,0,0,0-.164,4.892s.031.046.09.115c-.021.025-.043.052-.069.079a1.343,1.343,0,0,1-1.184.518c-.773-.164-.773,1.195.333,1.3a29.507,29.507,0,0,1,3.016.6.637.637,0,0,0,.788-.678,5.778,5.778,0,0,0-.331-1.495c-.012-.027-.024-.052-.036-.076.033-.031.067-.062.1-.095a10.128,10.128,0,0,1,.388-3.043,50.959,50.959,0,0,0,.994-6.2c-.043-.977,2.723-4.787,3.927-6.4l-.012-.061c.311-.415.506-.663.506-.663l.93,5.926a8.539,8.539,0,0,0,.994,2.01,42.225,42.225,0,0,1,2.654,5.925,4.4,4.4,0,0,0,.837,1.949l-.071.069a1.214,1.214,0,0,1-1.044.374c-.773-.165-.773,1.195.333,1.3a29.877,29.877,0,0,1,3.016.606.639.639,0,0,0,.788-.679,4.878,4.878,0,0,0-.426-1.684.793.793,0,0,0-.064-.1.588.588,0,0,0,.221-.154,23.646,23.646,0,0,1-1.437-4.351s-.607-3.532-2.65-4.837a48.66,48.66,0,0,1,.775-6.878c.014-.06.029-.12.043-.179a16.232,16.232,0,0,0,1.611-.336l.055-1.63.278,1.3,3.093-1.9s-.028-.342-.081-.868c-.026-.263-.057-.572-.1-.907-.031-.267-.066-.55-.1-.841-.012-.072-.022-.146-.031-.218-.041-.293-.086-.59-.133-.88-.019-.109-.036-.217-.057-.324-.024-.141-.052-.28-.079-.413-.012-.068-.028-.135-.04-.2s-.029-.131-.043-.194-.029-.125-.045-.185a.884.884,0,0,1-.021-.09c-.016-.059-.031-.116-.047-.173a3.017,3.017,0,0,1-.114-.713v-.286a2.037,2.037,0,0,1,.028-.286c.007-.047.016-.094.026-.141a3.143,3.143,0,0,1,.155-.556c.034-.089.072-.179.116-.267.1-.207.209-.428.317-.663.055-.116.112-.237.169-.36s.112-.246.169-.373a16.381,16.381,0,0,0,1.209-3.411c.016-.092.024-.179.031-.261A1.916,1.916,0,0,0,782.606,436.28Z" transform="translate(-685.75 -386.247)" fill="url(#h)"/><path d="M830.809,468.4l-1.824-1.232s-2.893-1.073-3.7.59,3.482.8,3.482.8l1.822,1.016Z" transform="translate(-743.18 -421.615)" fill="#ae6e79"/><rect width="17.429" height="27.132" transform="translate(67.859 57) rotate(-57.265)" fill="#f9fafb"/><rect width="4.931" height="1.16" transform="translate(71.241 55.978) rotate(-57.57)" fill="#b7b6cc"/><rect width="10.829" height="1.064" transform="translate(74.371 56.821) rotate(-57.57)" fill="#b7b6cc"/><rect width="10.829" height="1.064" transform="translate(76.289 58.038) rotate(-57.57)" fill="#b7b6cc"/><rect width="10.829" height="1.064" transform="translate(78.207 59.258) rotate(-57.57)" fill="#b7b6cc"/><rect width="10.814" height="1.062" transform="translate(80.191 61.025) rotate(-57.265)" fill="#b7b6cc"/><rect width="10.829" height="1.064" transform="translate(82.043 61.695) rotate(-57.57)" fill="#fff"/><rect width="10.829" height="1.064" transform="translate(83.961 62.913) rotate(-57.57)" fill="#fff"/><rect width="2.804" height="2.804" transform="translate(92.015 57.72) rotate(-57.57)" fill="#b7b6cc"/><path d="M898.8,820.414a28.428,28.428,0,0,0-2.924-.6c-1.073-.1-1.073-1.451-.323-1.287a1.163,1.163,0,0,0,1.011-.367,2.375,2.375,0,0,0,.207-.228.624.624,0,0,1,.349-.212,2.913,2.913,0,0,1,1.751.057.789.789,0,0,1,.278.305,5.02,5.02,0,0,1,.414,1.658.623.623,0,0,1-.763.669Z" transform="translate(-805.785 -736.067)" fill="#bebed0"/><path d="M767.939,825.622a28.376,28.376,0,0,0-2.924-.6c-1.073-.105-1.073-1.451-.323-1.285a1.29,1.29,0,0,0,1.147-.507.841.841,0,0,0,.076-.09.633.633,0,0,1,.347-.207,2.894,2.894,0,0,1,1.753.059.924.924,0,0,1,.366.488,5.709,5.709,0,0,1,.323,1.475.621.621,0,0,1-.764.664Z" transform="translate(-688.477 -740.739)" fill="#bebed0"/><path d="M782.871,823.48a1.57,1.57,0,0,1-2.541-.247,1.119,1.119,0,0,0,.076-.09.621.621,0,0,1,.347-.207A2.888,2.888,0,0,1,782.5,823,.88.88,0,0,1,782.871,823.48Z" transform="translate(-702.968 -740.738)" opacity="0.1"/><path d="M912.467,818.084a6.189,6.189,0,0,1-2.419.286,1.4,1.4,0,0,1-.169-.209,2.373,2.373,0,0,0,.207-.226.624.624,0,0,1,.349-.212,2.894,2.894,0,0,1,1.749.057A.761.761,0,0,1,912.467,818.084Z" transform="translate(-819.097 -736.066)" opacity="0.1"/><path d="M795.494,664.016c-.376.483-2.519.374-2.519.374a4.109,4.109,0,0,1-.911-2.036,41.775,41.775,0,0,0-2.572-5.838,8.455,8.455,0,0,1-.964-1.984l-.909-5.84s-4.394,5.787-4.341,7.02a51.031,51.031,0,0,1-.966,6.111,10.219,10.219,0,0,0-.374,3,1.589,1.589,0,0,1-2.571-.267,24.617,24.617,0,0,1,.16-4.822,37.385,37.385,0,0,0,.7-5.038c.055-1.929.7-2.41.7-2.41a17.23,17.23,0,0,1,2.517-5.557c.323-.464.538-.711.538-.711l8.678,1.018a5.583,5.583,0,0,0-.373,1.149,49.213,49.213,0,0,0-.751,6.78c1.982,1.285,2.571,4.765,2.571,4.765A23.622,23.622,0,0,0,795.494,664.016Z" transform="translate(-702.025 -582.246)" fill="#5c5c8e"/><g transform="translate(78.484 63.769)" opacity="0.05"><path d="M797.8,672.524l-.112-.714s-4.393,5.787-4.339,7.02a50.717,50.717,0,0,1-.964,6.113,10.214,10.214,0,0,0-.374,3,1.868,1.868,0,0,1-.84.538,1.473,1.473,0,0,0,1.482-.538,10.181,10.181,0,0,1,.376-3,51.309,51.309,0,0,0,.964-6.113C793.949,677.865,796.632,674.109,797.8,672.524Z" transform="translate(-791.17 -669.135)"/><path d="M834.753,659.708s-.592-3.485-2.572-4.767a48.91,48.91,0,0,1,.75-6.779,5.474,5.474,0,0,1,.374-1.151L824.627,646a.6.6,0,0,0-.059.067l8.093.951a5.554,5.554,0,0,0-.373,1.149,48.9,48.9,0,0,0-.751,6.779c1.981,1.287,2.571,4.767,2.571,4.767A23.6,23.6,0,0,0,835.5,664c-.221.283-1.056.364-1.7.381.518.014,2.038.019,2.348-.381A23.674,23.674,0,0,1,834.753,659.708Z" transform="translate(-821.108 -645.997)"/></g><path d="M783.71,630.779a1.878,1.878,0,0,1-.254.442,2.243,2.243,0,0,1-2.219.851.526.526,0,0,1-.362-.828A3.287,3.287,0,0,1,782.49,630a2.826,2.826,0,0,1,.685-.138Z" transform="translate(-703.369 -567.761)" fill="#ae6e79"/><path d="M873.686,480.451l-4.3-1.572s-1.232.644-.749,1.553l4.184,2.628Z" transform="translate(-782.029 -432.422)" fill="#42383c"/><path d="M873.837,480.623l-4.3-1.572s-1.232.644-.75,1.555l4.18,2.624Z" transform="translate(-782.163 -432.575)" opacity="0.1"/><path d="M899.828,468.135s-.052,2.519,1.071,3.376-3.268,1.339-3.268,1.339.7-2.572,0-3.911S899.828,468.135,899.828,468.135Z" transform="translate(-808.021 -422.695)" fill="#ae6e79"/><path d="M828.637,646.966a5.589,5.589,0,0,0-.373,1.149,14.177,14.177,0,0,1-8.789-1.363c-.021-.031-.038-.062-.055-.093.323-.464.538-.711.538-.711Z" transform="translate(-738.009 -582.183)" opacity="0.1"/><path d="M798.528,630.821a1.9,1.9,0,0,1-.255.443c-.5-.083-.892-1.035-.964-1.216a3.061,3.061,0,0,1,.683-.14Z" transform="translate(-718.188 -567.806)" opacity="0.1"/><path d="M811.715,490.779l-1.929.7-.8,1.071s-1.656.535-1.874.535-.8.216-1.18,1.073-1.715,5.038-2.893,5.733-4.287,5.357-4.287,5.357.537,1.451,1.178,1.234l1.5-1.234s-1.178,1.178-.483,2.252a14.423,14.423,0,0,0,10.45,1.018l.052-1.608.269,1.285,3-1.875a37.849,37.849,0,0,0-.752-5.217,3.182,3.182,0,0,1,.209-2.219c.776-1.62,1.977-4.329,1.831-5.317a2.464,2.464,0,0,0-1.082-1.82.434.434,0,0,0-.188-.062l-.98-.1Z" transform="translate(-719.479 -443.09)" fill="#42383c"/><path d="M834.147,542.758s-1.073,4.983-2.252,5.787-4.339,3.376-4.448,3.8" transform="translate(-745.207 -489.683)" opacity="0.05"/><path d="M829.5,541.209s-1.071,4.984-2.25,5.788-4.341,3.375-4.448,3.8" transform="translate(-741.038 -488.295)" fill="#42383c"/><path d="M897.281,499.239s3.7-1.232,4.765-.913" transform="translate(-807.805 -449.807)" opacity="0.1"/><g transform="translate(92.055 47.69)" opacity="0.05"><path d="M925.833,506.329c.776-1.62,1.977-4.329,1.832-5.316a2.48,2.48,0,0,0-1.08-1.822.472.472,0,0,0-.193-.062l-.411-.041a.469.469,0,0,1,.124.05,2.469,2.469,0,0,1,1.077,1.822c.148.987-1.052,3.7-1.829,5.317a3.177,3.177,0,0,0-.207,2.217,38.151,38.151,0,0,1,.752,5.219l-2.584,1.615.069.311,3-1.875a37.594,37.594,0,0,0-.752-5.219A3.172,3.172,0,0,1,925.833,506.329Z" transform="translate(-923.2 -498.226)"/><path d="M890.361,461.1l.464.047-2.019-.8-.179.066Z" transform="translate(-888.627 -460.35)"/></g><path d="M887.449,584.889s1.656-.911,2.2-.7a9.251,9.251,0,0,0,2.519-.055" transform="translate(-798.991 -526.777)" opacity="0.05"/><path d="M899.671,470.661c-.06-.537.188-.456.188-.456s-2.893-.535-2.2.8a3.1,3.1,0,0,1,.293,1.177h.028C898.788,472.187,899.257,471.289,899.671,470.661Z" transform="translate(-808.049 -424.55)" opacity="0.05"/><circle cx="2.304" cy="2.304" r="2.304" transform="translate(87.628 42.814)" fill="#ae6e79"/><path d="M866.584,438.315a3.221,3.221,0,0,0,.336-1.459,1.655,1.655,0,0,0-.669-1.3c-.216-.145-.469-.223-.7-.355-.174-.1-.33-.239-.5-.355a2.8,2.8,0,0,0-2.8-.207,13.057,13.057,0,0,0-1.184.782,1.973,1.973,0,0,1-1.335.374c-.079.223.117.443.3.6a2.027,2.027,0,0,0,1.185.587,1.239,1.239,0,0,1,.518.039.727.727,0,0,1,.262.244,4.876,4.876,0,0,1,.549.927.76.76,0,0,0,.245.361c.207.133.474.022.723.013a1.5,1.5,0,0,1,1.009.481,3.043,3.043,0,0,0,.906.687c.266.1.8.1.933-.221.05-.12-.047-.376-.028-.524A2.543,2.543,0,0,1,866.584,438.315Z" transform="translate(-774.134 -392.515)" opacity="0.1"/><path d="M867.053,437.784a3.237,3.237,0,0,0,.336-1.458,1.661,1.661,0,0,0-.669-1.3c-.217-.147-.471-.224-.7-.356-.174-.1-.33-.239-.5-.355a2.811,2.811,0,0,0-2.805-.208,13.048,13.048,0,0,0-1.184.782,1.969,1.969,0,0,1-1.335.374c-.079.223.116.443.3.6a2.028,2.028,0,0,0,1.185.587,1.211,1.211,0,0,1,.518.04.715.715,0,0,1,.262.245,4.71,4.71,0,0,1,.547.925.773.773,0,0,0,.247.361c.207.132.474.022.723.012a1.5,1.5,0,0,1,1.008.482,3.064,3.064,0,0,0,.907.687c.267.1.8.1.933-.222.052-.119-.047-.377-.026-.524A2.539,2.539,0,0,1,867.053,437.784Z" transform="translate(-774.554 -392.039)" fill="#42383c"/><path d="M356.192,464.419a1.069,1.069,0,0,1-.686.243l-46.282-.2a1.425,1.425,0,0,1-.317-1.084l4.573-37.414,2.867-.031a1.082,1.082,0,0,1,1.056.8l.537,1.977a1.082,1.082,0,0,0,1.071.8l11.444-.274a1.083,1.083,0,0,0,1.058-1.083v-1.31a1.083,1.083,0,0,1,1.071-1.083l15.858-.171a1.085,1.085,0,0,1,1.075.88l7.013,36.671.046.236A1.075,1.075,0,0,1,356.192,464.419Z" transform="translate(-280.372 -384.652)" opacity="0.1"/><path d="M266.346,430.6l-15.858.171a1.083,1.083,0,0,0-1.073,1.082v1.31a1.083,1.083,0,0,1-1.056,1.083l-11.443.275a1.084,1.084,0,0,1-1.072-.8l-.538-1.975a1.083,1.083,0,0,0-1.057-.8l-15.285.166a1.081,1.081,0,0,0-1.057,1.263l6.149,36.191a1.083,1.083,0,0,0,1.064.9l48.288.207a1.083,1.083,0,0,0,1.068-1.287l-7.057-36.909A1.082,1.082,0,0,0,266.346,430.6Z" transform="translate(-198.795 -389.143)" fill="#e6e8ee"/><path d="M859.509,157.981l-.083.922.06,1.63-.176,2.751a2.682,2.682,0,0,1-.706,1.769l-1.736,2.667-.012.005-.652.319-1,.1-.519-1.254.343-1.378.192-.257.052-.058a6,6,0,0,1,1.642-1.313.9.9,0,0,0,.349-.8,19.9,19.9,0,0,1,.573-3.075,10.5,10.5,0,0,0,.324-1.878c-.091-.167-.017-3.955,1.411-4.013S859.509,157.981,859.509,157.981Z" transform="translate(-769.625 -141.308)" fill="#f6bac2"/><ellipse cx="1.679" cy="0.231" rx="1.679" ry="0.231" transform="translate(14.008 72.376)" fill="#45bf55" opacity="0.1"/><ellipse cx="1.679" cy="0.231" rx="1.679" ry="0.231" transform="translate(7.576 73.028)" fill="#45bf55" opacity="0.1"/><ellipse cx="1.679" cy="0.231" rx="1.679" ry="0.231" transform="translate(0 72.145)" fill="#45bf55" opacity="0.1"/><ellipse cx="1.193" cy="0.164" rx="1.193" ry="0.164" transform="translate(10.636 74.953)" fill="#45bf55" opacity="0.1"/><ellipse cx="1.193" cy="0.164" rx="1.193" ry="0.164" transform="translate(3.96 74.789)" fill="#45bf55" opacity="0.1"/><path d="M60.658,626.779s2.355-7.719-.369-10.811a5.123,5.123,0,0,0-5.387-1.75,1.912,1.912,0,0,0-1.235,1.025c-.363.782-.3,2.048,2.259,3.53,4.279,2.479,4.546,5.876,4.546,5.876Z" transform="translate(-51.439 -553.574)" fill="#45bf55"/><path d="M70.54,626.41s6.941,2.176,5.387,11.466" transform="translate(-66.707 -564.669)" fill="none" stroke="#565987" stroke-miterlimit="10" stroke-width="1"/><path d="M103.523,633.918a1.534,1.534,0,0,0-.652,1.613" transform="translate(-95.636 -571.399)" fill="none" stroke="#565987" stroke-miterlimit="10" stroke-width="1"/><path d="M77.26,636.3a1.206,1.206,0,0,1,1.3-.266" transform="translate(-72.731 -573.207)" fill="none" stroke="#565987" stroke-miterlimit="10" stroke-width="1"/><path d="M103.75,666.626s1.027-.519,1.292.133" transform="translate(-96.477 -600.545)" fill="none" stroke="#565987" stroke-miterlimit="10" stroke-width="1"/><path d="M121.475,678.758s-.771-.062-.785.311" transform="translate(-111.662 -611.59)" fill="none" stroke="#565987" stroke-miterlimit="10" stroke-width="1"/><path d="M87.439,690.172s-2.759-5.611-3.516-5.49c-.36.057-.525.412-.6.768a2.264,2.264,0,0,0,.15,1.366A6.05,6.05,0,0,0,87.439,690.172Z" transform="translate(-78.125 -616.902)" fill="#45bf55"/><path d="M89.71,695s2.894,4.2,3.454,4.382" transform="translate(-83.891 -626.154)" fill="none" stroke="#565987" stroke-miterlimit="10" stroke-width="1"/><line x2="0.675" transform="translate(5.553 69.502)" fill="none" stroke="#565987" stroke-miterlimit="10" stroke-width="1"/><line x2="1.06" y2="0.046" transform="translate(6.362 71.037)" fill="none" stroke="#565987" stroke-miterlimit="10" stroke-width="1"/><line x1="0.115" y2="0.552" transform="translate(6.892 69.808)" fill="none" stroke="#565987" stroke-miterlimit="10" stroke-width="1"/><line x1="0.021" y2="0.501" transform="translate(8.112 71.487)" fill="none" stroke="#565987" stroke-miterlimit="10" stroke-width="1"/><path d="M122.66,690.172s2.757-5.611,3.515-5.49c.36.057.526.412.6.768a2.261,2.261,0,0,1-.151,1.366A6.053,6.053,0,0,1,122.66,690.172Z" transform="translate(-113.428 -616.902)" fill="#45bf55"/><path d="M126.5,695s-2.9,4.2-3.455,4.382" transform="translate(-113.777 -626.154)" fill="none" stroke="#565987" stroke-miterlimit="10" stroke-width="1"/><line x1="0.675" transform="translate(12.318 69.502)" fill="none" stroke="#565987" stroke-miterlimit="10" stroke-width="1"/><line x1="1.06" y2="0.046" transform="translate(11.125 71.037)" fill="none" stroke="#565987" stroke-miterlimit="10" stroke-width="1"/><line x2="0.115" y2="0.552" transform="translate(11.539 69.808)" fill="none" stroke="#565987" stroke-miterlimit="10" stroke-width="1"/><line x2="0.021" y2="0.501" transform="translate(10.413 71.487)" fill="none" stroke="#565987" stroke-miterlimit="10" stroke-width="1"/><path d="M75.523,743.756a.484.484,0,0,1-.157-.238.207.207,0,0,1,.11-.242.306.306,0,0,1,.29.1.371.371,0,0,0,.281.131.428.428,0,0,1-.132-.4.159.159,0,0,1,.036-.081c.056-.06.158-.034.225.012a.855.855,0,0,1,.273.7,1.34,1.34,0,0,0,0-.288.3.3,0,0,1,.116-.252.323.323,0,0,1,.165-.04.337.337,0,0,1,.268.078.265.265,0,0,1-.01.328,1.1,1.1,0,0,1-.278.223.617.617,0,0,0-.2.188.168.168,0,0,0-.015.033h-.6A1.686,1.686,0,0,1,75.523,743.756Z" transform="translate(-71.027 -669.174)" fill="#45bf55"/><path d="M176.971,721.986a.468.468,0,0,1-.157-.236.208.208,0,0,1,.109-.242.306.306,0,0,1,.29.1.377.377,0,0,0,.283.136.43.43,0,0,1-.133-.4.15.15,0,0,1,.038-.081c.056-.06.157-.036.225.01a.84.84,0,0,1,.273.7,1.355,1.355,0,0,0,0-.29.3.3,0,0,1,.1-.257.363.363,0,0,1,.165-.036.343.343,0,0,1,.268.076.264.264,0,0,1-.011.328.983.983,0,0,1-.276.221.646.646,0,0,0-.2.192.114.114,0,0,0-.014.033h-.59A1.645,1.645,0,0,1,176.971,721.986Z" transform="translate(-161.966 -649.669)" fill="#45bf55"/><path d="M143.153,743.8a.5.5,0,0,1-.157-.236.21.21,0,0,1,.11-.243.307.307,0,0,1,.29.105.386.386,0,0,0,.283.136.434.434,0,0,1-.134-.4.172.172,0,0,1,.038-.083c.056-.06.157-.034.225.014a.839.839,0,0,1,.273.7,1.382,1.382,0,0,0,0-.286.3.3,0,0,1,.109-.257.447.447,0,0,1,.433.04.263.263,0,0,1-.012.328,1.018,1.018,0,0,1-.276.221.623.623,0,0,0-.2.19.136.136,0,0,0-.014.035h-.6A1.769,1.769,0,0,1,143.153,743.8Z" transform="translate(-131.651 -669.219)" fill="#45bf55"/><path d="M44.314,706.25s-.225.3.1.74.6.82.49,1.094c0,0-.5-.828-.9-.835S43.87,706.743,44.314,706.25Z" transform="translate(-42.745 -636.238)" fill="#45bf55"/><path d="M44.321,706.25a.388.388,0,0,0-.046.093c-.394.462-.6.9-.225.906.352.01.776.64.876.8a.21.21,0,0,1-.011.036s-.5-.828-.9-.835S43.876,706.743,44.321,706.25Z" transform="translate(-42.751 -636.238)" opacity="0.1"/><path d="M44.66,709.295c0,.1.011.188.026.188s.026-.085.026-.188-.014-.055-.029-.055S44.66,709.191,44.66,709.295Z" transform="translate(-43.508 -638.909)" fill="#ffd037"/><path d="M42.788,710.452a.377.377,0,0,0,.177.069c.007-.014-.061-.062-.152-.114s-.055-.012-.062,0S42.7,710.4,42.788,710.452Z" transform="translate(-41.781 -639.944)" fill="#ffd037"/><path d="M54.808,706.25s.226.3-.1.74-.6.82-.49,1.094c0,0,.5-.828.9-.835S55.253,706.743,54.808,706.25Z" transform="translate(-52.051 -636.238)" fill="#45bf55"/><path d="M54.916,706.25a.413.413,0,0,1,.047.093c.394.462.6.9.225.906-.352.01-.776.64-.877.8a.154.154,0,0,0,.012.036s.5-.828.9-.835S55.36,706.743,54.916,706.25Z" transform="translate(-52.158 -636.238)" opacity="0.1"/><path d="M63.752,709.295c0,.1-.011.188-.026.188s-.026-.085-.026-.188.014-.055.029-.055S63.752,709.191,63.752,709.295Z" transform="translate(-60.576 -638.909)" fill="#ffd037"/><path d="M64.054,710.452a.381.381,0,0,1-.177.069c-.006-.014.061-.062.152-.114s.055-.012.061,0S64.144,710.4,64.054,710.452Z" transform="translate(-60.733 -639.944)" fill="#ffd037"/><path d="M43.254,720.647a2.338,2.338,0,0,1-.818-.152c-.19-.136-.967-.3-1.015-.081s-.945,1.077-.235,1.082a6.041,6.041,0,0,0,1.84-.224C43.215,721.156,43.254,720.647,43.254,720.647Z" transform="translate(-40.15 -648.841)" fill="#a8a8a8"/><path d="M41.177,724.353a5.983,5.983,0,0,0,1.84-.224c.144-.088.2-.4.221-.549h.021s-.039.507-.229.623a6.1,6.1,0,0,1-1.84.224c-.207,0-.276-.074-.271-.183C40.946,724.313,41.03,724.349,41.177,724.353Z" transform="translate(-40.154 -651.773)" opacity="0.2"/><circle cx="2.241" cy="2.241" r="2.241" transform="translate(1.275 10.887)" fill="#45bf55" opacity="0.1"/><circle cx="2.241" cy="2.241" r="2.241" transform="translate(109.02 28.793)" fill="#45bf55" opacity="0.1"/><circle cx="2.241" cy="2.241" r="2.241" transform="translate(68.741 3.772)" fill="#45bf55" opacity="0.1"/><circle cx="3.755" cy="3.755" r="3.755" transform="translate(4.242 21.734)" fill="#45bf55" opacity="0.1"/><path d="M462.2,605.664l-.131-.133a.139.139,0,0,1-.047-.1.142.142,0,0,1,.047-.1l1.163-1.163a.139.139,0,0,1,.1-.047.142.142,0,0,1,.1.047l1.163,1.163a.14.14,0,0,1,.045.1.136.136,0,0,1-.045.1l-.133.135a.144.144,0,0,1-.1.043.149.149,0,0,1-.105-.043l-.687-.726v1.72a.142.142,0,0,1-.143.145h-.192a.146.146,0,0,1-.145-.145V604.94l-.688.726a.141.141,0,0,1-.1.043A.143.143,0,0,1,462.2,605.664Z" transform="translate(-417.639 -544.685)" fill="#f6f7f9"/><path d="M451.552,591.648a2.361,2.361,0,1,1-2.361,2.362,2.361,2.361,0,0,1,2.361-2.362m0-.311a2.672,2.672,0,1,0,2.671,2.673A2.673,2.673,0,0,0,451.552,591.338Z" transform="translate(-405.854 -533.231)" fill="#f6f7f9"/></g></svg>