<svg xmlns="http://www.w3.org/2000/svg" xmlns:xlink="http://www.w3.org/1999/xlink" width="1087.427" height="325.854" viewBox="0 0 1087.427 325.854"><defs><clipPath id="a"><path d="M249.829-95.361q0,31.421-16.809,54.712T185.889-5.933Q155.566,5.493,112.939,5.493q-49.438,0-90.527-16.7V-97.559a178.814,178.814,0,0,0,43.726,23.4q23.95,8.9,44.6,8.9,15.6,0,24.17-5.6t8.569-16.37a22.19,22.19,0,0,0-4.285-13.513q-4.285-5.823-12.964-10.876t-32.19-13.843q-76.025-29.224-76.025-94.482,0-45.7,34.717-73.059T145.9-320.361q16.479,0,30.322,1.318t25.159,3.3q11.316,1.978,31.75,7.471v80.2q-39.771-21.753-78.223-21.753-15.82,0-25.488,5.933t-9.668,16.26a20.389,20.389,0,0,0,7.8,16.37q7.8,6.482,32.629,16.809,49,19.775,69.324,43.286T249.829-95.361ZM508.447,0,397.266-152.051a362.392,362.392,0,0,1-21.533-32.52h-.879q1.318,23.291,1.318,52.295V0H288.281V-315.088H377.93L484.5-170.508q1.978,2.856,4.834,6.812t5.713,8.13q2.856,4.175,5.383,8.13a50.01,50.01,0,0,1,3.845,7.031h.879q-1.318-9.668-1.318-33.4V-315.088h87.891V0ZM653.687,0V-315.088H849.9v74.268H748.608V-194.9H843.75v74.268H748.608v46.362H857.153V0ZM901.978,0V-315.088h196.216v74.268H996.9V-194.9h95.142v74.268H996.9v46.362h108.545V0Z" transform="translate(67 401)" fill="#cf0404"/></clipPath></defs><g transform="translate(-85.018 -80.639)" clip-path="url(#a)"><image width="1200" height="900" transform="translate(-26 -206)" xlink:href="../sneee.jpg"/></g></svg>